<?xml version="1.0" encoding="UTF-8" standalone="no"?>
<!DOCTYPE svg PUBLIC "-//W3C//DTD SVG 1.1//EN" "http://www.w3.org/Graphics/SVG/1.1/DTD/svg11.dtd">
<svg xmlns="http://www.w3.org/2000/svg" version="1.1" viewBox="0 0 1080 1080" width="1080" height="1080">
<g stroke-width="2.00" fill="none" stroke-linecap="butt">
<path stroke="#7f746c" vector-effect="non-scaling-stroke" d="
  M 411.02 242.31
  L 415.60 268.20
  A 0.42 0.41 -4.5 0 1 415.18 268.68
  Q 396.89 268.60 385.50 270.00
  Q 380.79 270.58 363.15 273.56
  Q 355.15 274.92 348.74 277.15
  Q 336.46 281.44 324.34 287.22
  A 2.15 2.15 -42.4 0 1 322.31 287.13
  Q 312.16 281.14 300.52 280.29
  Q 296.99 280.04 288.50 279.50
  Q 272.05 278.46 257.40 283.80
  Q 246.60 287.73 238.56 296.56
  Q 232.14 303.62 229.55 312.28
  Q 227.60 318.80 227.49 325.22
  Q 227.38 332.04 229.94 338.31
  Q 234.41 349.28 242.55 359.42
  Q 251.18 370.18 264.71 374.65
  A 0.84 0.84 10.3 0 1 265.28 375.47
  Q 264.59 395.79 269.88 414.58
  Q 276.47 437.99 292.56 456.17
  Q 306.02 471.38 325.38 477.21
  Q 325.84 477.35 325.48 477.67
  Q 315.33 486.54 307.24 497.05
  Q 302.99 502.56 295.85 513.48
  Q 282.56 533.79 272.11 555.71
  Q 267.92 564.49 266.86 567.19
  Q 264.28 573.76 263.75 579.50
  Q 263.43 582.97 265.72 585.72
  Q 267.33 587.65 270.42 588.91
  Q 273.25 590.06 275.98 590.40
  A 2.68 2.66 -7.1 0 1 278.12 592.05
  Q 283.01 604.24 288.31 615.12
  Q 295.57 630.05 306.39 642.63
  Q 310.86 647.82 314.31 649.69
  Q 322.33 654.02 324.19 655.56
  Q 328.05 658.77 330.11 665.52
  A 1.39 1.38 -41.5 0 1 330.05 666.46
  Q 326.84 674.04 323.57 681.60
  Q 322.43 684.21 320.45 686.19
  Q 315.59 691.06 310.09 696.24
  A 1.17 1.01 -42.2 0 0 309.91 697.73
  L 312.80 701.12
  A 0.51 0.41 -45.0 0 0 313.49 701.04
  L 316.07 698.15
  Q 316.49 697.69 316.25 698.27
  Q 307.00 720.42 296.70 742.10
  Q 292.14 751.71 283.06 759.56
  Q 280.97 761.37 281.59 763.77
  Q 282.02 765.41 283.63 766.69
  Q 285.21 767.95 287.00 768.25
  Q 293.45 769.35 303.25 769.83
  Q 324.21 770.85 345.19 770.08
  A 0.31 0.31 -78.7 0 1 345.48 770.52
  Q 340.51 781.58 334.69 792.21
  Q 334.65 792.29 333.05 795.48
  Q 331.62 798.31 329.56 800.66
  Q 327.94 802.50 323.33 805.58
  Q 318.73 808.66 314.51 812.25
  Q 309.81 816.26 307.86 820.37
  Q 305.56 825.20 305.00 831.00
  Q 304.25 838.69 308.00 844.19
  Q 309.96 847.05 317.41 852.89
  Q 328.05 861.21 340.14 867.40
  Q 350.76 872.84 359.23 881.26
  Q 363.08 885.09 367.50 888.25
  Q 372.97 892.15 379.75 892.20
  Q 385.32 892.24 390.74 890.95
  Q 396.50 889.58 400.32 885.07
  Q 403.70 881.08 402.90 876.50
  Q 402.55 874.48 399.76 870.36
  Q 396.11 864.99 392.69 857.31
  Q 388.27 847.41 387.52 838.77
  Q 386.93 832.02 386.79 825.25
  Q 386.73 822.30 387.81 819.56
  Q 395.05 801.28 406.03 784.98
  A 0.78 0.78 23.2 0 1 406.80 784.65
  Q 423.89 787.67 439.15 779.89
  A 0.79 0.79 -20.4 0 1 440.27 780.40
  Q 447.22 808.12 461.39 832.14
  Q 464.50 837.40 466.08 843.30
  Q 466.75 845.82 466.00 850.00
  Q 464.31 859.39 466.79 868.98
  Q 468.54 875.76 472.32 880.21
  Q 476.50 885.11 482.61 887.97
  Q 488.86 890.88 496.00 889.50
  Q 507.91 887.19 515.63 878.55
  Q 518.85 874.94 518.87 874.93
  Q 523.86 869.91 529.56 866.56
  Q 543.67 858.29 556.04 849.25
  Q 564.63 842.97 567.62 838.35
  Q 572.07 831.43 572.23 822.50
  Q 572.40 813.43 565.53 807.75
  Q 563.12 805.75 560.00 805.55
  Q 554.94 805.23 550.45 807.07
  Q 550.15 807.19 543.95 811.01
  Q 536.91 815.36 528.25 815.17
  Q 524.99 815.10 521.73 815.50
  A 2.06 2.04 76.1 0 1 519.56 814.18
  Q 517.12 807.63 516.10 800.72
  Q 515.31 795.40 515.29 795.29
  Q 513.34 783.67 511.81 771.99
  A 0.59 0.58 -11.7 0 1 512.23 771.36
  Q 518.74 769.45 524.94 766.68
  Q 528.98 764.87 531.60 761.11
  A 2.70 2.69 48.6 0 0 531.77 758.32
  Q 529.12 753.22 528.64 746.99
  Q 526.32 716.36 523.76 685.75
  Q 521.47 658.21 516.25 638.00
  Q 512.02 621.62 507.15 605.71
  A 0.90 0.90 73.1 0 1 507.75 604.58
  Q 511.16 603.54 513.40 601.15
  Q 515.72 598.70 514.58 595.86
  Q 513.41 592.94 513.40 592.86
  Q 512.68 589.74 512.50 585.25
  Q 512.05 574.37 511.48 563.19
  Q 511.43 562.07 511.91 563.08
  Q 515.42 570.49 521.76 576.25
  Q 529.34 583.15 538.94 578.94
  Q 549.33 574.38 555.24 563.52
  Q 557.38 559.59 557.50 556.00
  Q 557.95 542.80 558.52 535.23
  Q 559.08 527.75 557.25 522.75
  Q 553.06 511.29 548.57 499.97
  Q 547.85 498.14 548.54 496.30
  Q 551.26 489.09 552.14 482.02
  Q 553.11 474.29 549.25 467.68
  A 0.65 0.64 52.5 0 1 549.35 466.90
  L 586.21 430.29
  A 0.58 0.58 58.3 0 1 587.17 430.52
  Q 595.11 453.92 605.34 476.36
  Q 612.90 492.96 623.65 507.56
  Q 630.37 516.67 636.82 522.57
  Q 646.02 530.99 657.29 536.73
  Q 668.82 542.60 679.06 546.44
  Q 698.47 553.70 726.92 563.61
  Q 740.42 568.32 749.19 573.06
  Q 769.04 583.80 777.38 605.38
  Q 779.30 610.35 779.35 610.47
  Q 781.14 614.89 782.89 619.33
  Q 784.59 623.64 788.69 629.31
  Q 792.17 634.13 795.77 642.60
  Q 799.62 651.67 807.98 645.74
  Q 813.56 641.79 816.69 638.19
  Q 832.44 620.07 848.76 596.71
  Q 861.83 578.00 875.46 559.70
  Q 883.44 548.99 890.69 542.44
  Q 898.18 535.66 909.12 530.98
  Q 909.15 530.96 911.43 530.10
  Q 917.23 527.90 919.95 522.17
  Q 920.81 520.36 918.93 519.63
  Q 917.01 518.88 915.44 517.08
  Q 911.44 512.52 909.42 506.78
  Q 907.35 500.91 905.64 494.92
  Q 900.40 476.50 893.61 458.59
  Q 889.34 447.36 883.14 437.09
  Q 876.84 426.65 867.68 418.59
  Q 856.92 409.11 850.44 404.81
  Q 831.59 392.32 813.47 378.79
  Q 796.37 366.02 787.06 349.44
  Q 780.34 337.47 776.81 327.94
  Q 765.20 296.60 758.40 260.56
  A 1.05 0.93 -30.8 0 1 758.67 259.72
  L 765.87 252.07
  A 1.06 0.98 63.1 0 0 766.12 251.19
  Q 765.56 247.96 763.23 248.79
  Q 762.23 249.15 760.66 250.70
  Q 653.10 356.99 545.69 463.43
  A 0.37 0.37 35.3 0 1 545.25 463.50
  Q 535.86 458.62 525.24 459.46
  Q 524.76 459.50 525.18 459.23
  Q 544.49 447.09 554.10 427.02
  Q 557.42 420.06 558.87 411.50
  Q 560.24 403.43 560.53 395.25
  Q 560.91 384.86 560.09 375.26
  Q 559.21 364.94 556.43 354.75
  A 1.87 1.87 -30.8 0 1 556.88 352.98
  Q 565.02 344.40 567.14 332.28
  Q 570.78 311.47 559.26 294.01
  Q 552.74 284.12 540.94 280.31
  Q 530.87 277.06 520.89 277.15
  Q 514.40 277.21 509.35 279.18
  Q 503.90 281.31 499.07 285.23
  A 1.18 1.17 38.5 0 1 497.79 285.37
  Q 481.09 276.92 463.95 273.49
  Q 441.82 269.05 419.24 268.75
  A 0.46 0.46 -4.7 0 1 418.80 268.38
  L 413.97 242.42
  A 1.15 1.15 -23.8 0 1 414.41 241.29
  Q 419.27 237.54 418.13 233.45
  Q 417.08 229.70 413.02 228.42
  Q 408.84 227.10 405.03 230.79
  Q 402.37 233.36 403.50 236.50
  Q 405.19 241.19 410.43 241.77
  A 0.67 0.65 -1.6 0 1 411.02 242.31"
/>
<path stroke="#fcc27e" vector-effect="non-scaling-stroke" d="
  M 642.94 775.56
  Q 651.76 783.74 663.24 784.41
  Q 673.64 785.02 682.46 780.04
  Q 694.35 773.33 697.82 758.18
  A 0.76 0.74 -83.2 0 0 697.10 757.25
  L 684.32 757.31
  A 0.72 0.71 -80.1 0 0 683.65 757.79
  Q 680.36 767.19 671.94 769.94
  Q 664.78 772.27 658.27 769.16
  Q 652.64 766.48 649.56 761.37
  Q 646.45 756.22 646.69 749.44
  Q 646.94 742.29 650.70 737.20
  Q 654.45 732.10 660.65 730.18
  Q 667.45 728.08 674.17 731.33
  Q 677.30 732.84 679.64 735.51
  Q 681.92 738.10 683.57 741.33
  A 1.25 1.24 76.1 0 0 684.67 742.00
  L 696.51 742.00
  A 1.02 1.01 -6.7 0 0 697.50 740.75
  Q 695.55 732.58 690.37 726.56
  Q 685.31 720.69 677.76 717.85
  Q 670.19 714.99 662.07 715.89
  Q 654.24 716.75 647.58 720.96
  Q 639.26 726.21 635.24 735.08
  Q 631.46 743.43 631.99 752.82
  Q 632.75 766.12 642.94 775.56"
/>
<path stroke="#fcc27e" vector-effect="non-scaling-stroke" d="
  M 774.7491 750.3162
  A 35.26 34.56 0.4 0 0 739.7313 715.5108
  A 35.26 34.56 0.4 0 0 704.2309 749.8238
  A 35.26 34.56 0.4 0 0 739.2487 784.6292
  A 35.26 34.56 0.4 0 0 774.7491 750.3162"
/>
<path stroke="#7f746c" vector-effect="non-scaling-stroke" d="
  M 793.50 783.04
  Q 788.15 793.49 782.51 803.79
  Q 780.42 807.60 774.81 812.56
  Q 769.06 817.65 763.12 819.78
  Q 759.46 821.10 756.23 820.74
  Q 752.68 820.35 749.47 818.38
  Q 748.22 817.62 749.52 816.96
  Q 757.17 813.07 762.93 806.43
  Q 765.53 803.44 765.75 801.25
  Q 766.36 795.12 761.80 794.01
  Q 758.74 793.26 755.14 795.29
  Q 750.12 798.11 747.25 803.21
  Q 745.21 806.84 743.97 808.24
  Q 740.28 812.42 736.07 816.08
  Q 732.02 819.62 728.75 820.25
  Q 724.50 821.07 724.38 816.75
  Q 724.26 812.83 725.56 810.31
  Q 728.55 804.53 730.09 800.57
  Q 731.01 798.21 730.86 796.82
  Q 730.60 794.27 727.75 793.75
  Q 722.12 792.72 716.69 796.69
  Q 712.75 799.56 707.91 804.58
  Q 707.57 804.93 707.73 804.48
  Q 709.04 800.83 709.25 799.25
  Q 710.07 793.13 704.09 793.81
  Q 700.98 794.16 698.32 795.83
  Q 689.87 801.14 683.81 809.09
  Q 682.84 810.37 683.64 808.86
  Q 687.05 802.52 690.50 796.21
  Q 690.79 795.67 690.88 795.23
  Q 691.14 793.81 689.92 794.41
  Q 689.47 794.63 689.16 795.18
  Q 681.85 808.05 674.83 821.07
  Q 674.52 821.65 674.41 822.10
  Q 674.01 823.79 675.44 823.00
  Q 675.90 822.75 676.27 822.19
  Q 682.44 813.07 691.06 803.81
  Q 696.08 798.43 702.42 795.91
  Q 704.52 795.08 705.82 795.37
  Q 708.24 795.91 707.25 799.50
  Q 705.45 806.04 702.74 810.67
  Q 699.83 815.65 696.77 820.56
  Q 696.46 821.06 696.38 821.52
  Q 696.13 823.06 697.46 822.26
  Q 697.90 822.00 698.23 821.45
  Q 704.72 810.54 712.69 802.19
  Q 716.23 798.47 721.20 796.37
  Q 723.86 795.24 725.96 795.30
  Q 730.90 795.46 727.94 801.44
  Q 725.53 806.33 723.45 811.37
  Q 721.78 815.42 722.75 818.50
  Q 724.01 822.48 727.56 822.28
  Q 729.46 822.18 732.59 820.44
  Q 739.14 816.80 743.06 811.81
  Q 745.34 808.92 745.08 812.25
  Q 745.01 813.20 745.09 813.76
  Q 745.89 819.16 750.81 821.19
  Q 757.50 823.94 764.67 821.06
  Q 772.49 817.92 778.70 811.67
  Q 779.67 810.70 779.17 811.98
  Q 777.48 816.36 779.68 819.44
  Q 781.58 822.09 785.28 822.40
  Q 788.69 822.69 791.93 820.93
  Q 798.75 817.22 803.82 811.30
  Q 805.26 809.62 804.35 811.63
  Q 802.38 815.98 804.58 820.25
  A 1.42 1.40 -1.7 0 0 805.27 820.89
  Q 811.35 823.43 816.64 819.17
  Q 820.39 816.14 823.34 812.34
  Q 823.84 811.70 823.92 812.23
  Q 823.95 812.41 823.85 812.62
  Q 820.65 819.25 817.53 826.51
  A 3.34 3.31 -2.2 0 1 815.99 828.16
  Q 805.22 833.69 794.29 838.76
  Q 787.09 842.10 783.87 848.92
  Q 782.38 852.06 782.87 854.78
  Q 783.48 858.23 786.42 860.12
  Q 788.56 861.50 791.35 861.40
  Q 794.20 861.30 796.44 859.94
  Q 806.22 853.99 811.67 842.87
  Q 815.00 836.06 818.13 829.32
  A 1.58 1.56 -2.0 0 1 818.82 828.59
  Q 834.10 820.22 846.16 808.46
  Q 846.22 808.40 847.01 807.72
  Q 848.29 806.63 846.97 805.95
  A 0.73 0.67 -53.0 0 0 846.15 806.10
  Q 834.64 817.50 820.65 825.51
  Q 819.70 826.06 820.14 825.05
  Q 826.79 809.83 834.56 795.29
  Q 834.87 794.70 834.96 794.29
  Q 835.22 793.02 834.03 793.38
  A 1.45 1.11 -78.0 0 0 833.31 794.00
  Q 827.66 804.02 821.19 812.19
  Q 818.51 815.57 814.76 818.03
  Q 811.87 819.91 809.43 820.14
  Q 805.37 820.51 805.28 816.41
  Q 805.24 814.67 806.20 811.67
  Q 808.85 803.38 813.39 795.92
  Q 813.73 795.37 813.83 794.89
  Q 814.19 793.18 812.81 793.98
  Q 812.35 794.25 812.01 794.81
  Q 810.15 797.93 808.52 801.17
  Q 806.42 805.33 804.85 807.39
  Q 798.75 815.40 790.44 819.69
  Q 787.24 821.34 783.75 820.24
  Q 781.48 819.53 780.80 817.61
  Q 780.12 815.65 780.75 813.25
  Q 781.78 809.32 782.98 806.99
  Q 789.16 794.94 795.54 783.00"
/>
<path stroke="#fcc27e" vector-effect="non-scaling-stroke" d="
  M 795.54 783.00
  Q 806.40 783.22 813.00 782.75
  Q 832.72 781.33 840.72 765.33
  Q 843.69 759.39 844.24 752.65
  Q 844.83 745.46 842.69 739.31
  Q 836.70 722.15 820.08 718.15
  Q 815.30 717.00 803.34 717.00
  Q 794.92 717.00 786.50 717.00
  A 0.50 0.50 0.0 0 0 786.00 717.50
  L 786.00 781.83
  A 1.12 1.12 0.5 0 0 787.10 782.95
  L 793.50 783.04"
/>
<path stroke="#7d4f13" vector-effect="non-scaling-stroke" d="
  M 795.54 783.00
  L 802.75 769.71"
/>
<path stroke="#fcc27d" vector-effect="non-scaling-stroke" d="
  M 802.75 769.71
  Q 808.33 770.31 813.70 769.31
  Q 819.71 768.19 823.42 764.92
  Q 829.35 759.68 829.52 750.75
  Q 829.76 738.05 819.99 732.84
  Q 816.22 730.83 810.68 730.43
  Q 806.01 730.10 800.93 730.51
  A 0.75 0.73 -2.6 0 0 800.25 731.24
  L 800.37 769.81"
/>
<path stroke="#7d4f13" vector-effect="non-scaling-stroke" d="
  M 800.37 769.81
  L 793.50 783.04"
/>
<path stroke="#7f746a" vector-effect="non-scaling-stroke" d="
  M 802.75 769.71
  L 810.26 755.68
  A 1.21 0.95 -46.2 0 0 810.35 754.76
  Q 809.92 753.71 809.10 754.47
  Q 808.78 754.77 808.40 755.47
  Q 804.55 762.62 800.37 769.81"
/>
<path stroke="#fcc27e" vector-effect="non-scaling-stroke" d="
  M 870.04 768.94
  L 870.27 756.81
  A 0.56 0.51 -0.1 0 1 870.82 756.31
  L 892.32 756.08
  A 0.53 0.52 -0.0 0 0 892.84 755.57
  L 892.98 743.85
  A 0.55 0.54 0.0 0 0 892.43 743.31
  L 870.95 743.25
  A 0.93 0.90 0.3 0 1 870.02 742.34
  L 870.16 730.93
  A 0.54 0.52 -0.0 0 1 870.69 730.42
  L 894.82 730.26
  A 0.68 0.67 0.0 0 0 895.50 729.59
  L 895.50 717.50
  A 0.50 0.50 0.0 0 0 895.00 717.00
  L 856.63 717.00
  A 0.88 0.88 0.0 0 0 855.75 717.88
  L 855.93 782.31
  A 0.51 0.51 0.0 0 0 856.44 782.82
  L 895.35 782.99
  A 1.09 1.02 -0.7 0 0 896.45 781.93
  L 896.06 770.24
  A 0.58 0.49 0.1 0 0 895.49 769.76
  L 870.56 769.46
  A 0.53 0.51 1.1 0 1 870.04 768.94"
/>
<path stroke="#42040d" vector-effect="non-scaling-stroke" d="
  M 620.96 496.03
  L 624.00 500.21"
/>
<path stroke="#720007" vector-effect="non-scaling-stroke" d="
  M 624.00 500.21
  Q 636.51 519.68 656.68 530.99
  Q 667.28 536.93 678.58 541.40
  Q 698.63 549.33 719.06 556.19
  Q 723.18 557.57 741.06 564.44
  Q 756.98 570.55 767.72 582.20
  Q 773.21 588.16 777.76 597.34
  Q 781.72 605.32 784.81 614.19
  Q 786.54 619.14 789.50 623.76
  Q 793.93 630.68 794.45 631.64
  Q 797.73 637.69 798.44 640.06
  Q 800.46 646.86 806.56 643.06
  Q 812.20 639.56 817.24 633.49
  Q 831.84 615.91 845.02 597.24
  Q 857.93 578.97 871.26 560.99
  Q 878.50 551.21 887.00 542.49
  Q 895.59 533.67 903.56 530.31
  Q 909.94 527.62 916.13 524.08
  A 0.94 0.94 -41.4 0 0 916.23 522.51
  Q 911.66 519.04 909.18 514.38
  Q 908.54 513.18 905.43 504.56
  Q 902.43 496.26 901.25 491.75
  Q 895.19 468.63 884.81 447.12
  Q 876.72 430.35 863.19 419.31
  Q 850.09 408.63 831.58 396.42
  Q 815.01 385.50 804.06 375.94
  Q 790.85 364.40 781.46 347.25"
/>
<path stroke="#42040d" vector-effect="non-scaling-stroke" d="
  M 781.46 347.25
  Q 781.23 344.78 779.54 343.00"
/>
<path stroke="#720007" vector-effect="non-scaling-stroke" d="
  M 779.54 343.00
  Q 772.51 327.97 769.25 317.50
  Q 761.06 291.22 755.50 264.23
  Q 755.27 263.12 754.46 263.92
  Q 673.90 343.53 593.35 423.36
  Q 591.84 424.85 590.58 426.41
  A 0.76 0.75 54.9 0 0 590.45 427.17
  Q 597.16 445.21 604.16 462.40
  Q 611.28 479.90 620.96 496.03"
/>
<path stroke="#b40414" vector-effect="non-scaling-stroke" d="
  M 779.54 343.00
  Q 779.70 345.46 781.46 347.25"
/>
<path stroke="#b40414" vector-effect="non-scaling-stroke" d="
  M 624.00 500.21
  Q 623.85 497.10 620.96 496.03"
/>
<path stroke="#7e520f" vector-effect="non-scaling-stroke" d="
  M 300.50 459.24
  Q 314.58 472.25 333.04 476.01
  Q 336.08 476.63 345.47 477.93
  Q 352.66 478.92 358.00 479.25
  Q 391.10 481.30 425.56 477.85
  Q 435.55 476.86 445.44 475.62
  Q 472.74 472.23 499.44 465.51
  Q 510.35 462.77 517.25 459.75
  Q 528.73 454.73 537.53 445.60
  Q 544.67 438.21 549.46 429.61
  Q 555.10 419.52 556.66 407.98
  Q 557.62 400.88 557.66 388.01
  Q 557.75 357.57 543.56 330.19
  Q 537.98 319.42 529.06 311.20
  Q 511.63 295.14 490.15 285.13
  Q 475.06 278.10 460.00 275.50
  Q 428.60 270.08 395.26 272.33
  Q 369.00 274.11 344.02 282.32
  Q 332.91 285.97 322.19 292.69
  Q 315.62 296.80 305.45 302.63
  Q 301.52 304.88 298.96 306.92
  Q 295.01 310.07 293.31 312.31
  Q 278.76 331.51 272.11 354.71
  Q 266.82 373.14 268.88 392.26
  Q 270.49 407.15 275.49 421.25
  Q 283.32 443.35 300.50 459.24"
/>
<path stroke="#75521f" vector-effect="non-scaling-stroke" d="
  M 514.76 295.72
  Q 525.26 303.17 534.25 312.25
  Q 542.45 320.52 547.54 331.01
  Q 551.94 340.07 554.77 349.81
  Q 554.95 350.46 555.41 349.96
  Q 558.21 346.87 560.22 343.21
  Q 562.03 339.93 563.18 335.55
  Q 568.72 314.49 557.38 296.66
  Q 553.70 290.87 549.51 287.83
  Q 544.86 284.47 538.56 282.69
  Q 531.73 280.75 528.25 280.54"
/>
<path stroke="#7e520f" vector-effect="non-scaling-stroke" d="
  M 528.25 280.54
  Q 519.44 279.67 515.00 280.50
  Q 508.74 281.67 501.65 286.95
  A 0.34 0.33 42.4 0 0 501.68 287.50
  L 514.76 295.72"
/>
<path stroke="#f3a42e" vector-effect="non-scaling-stroke" d="
  M 528.25 280.54
  L 528.19 281.32
  A 0.61 0.54 8.7 0 0 528.68 281.91
  Q 540.32 284.37 542.75 285.75
  Q 545.65 287.40 548.56 289.04
  Q 549.86 289.77 550.91 291.05
  Q 551.91 292.27 553.01 293.41
  Q 554.79 295.26 555.77 297.16
  Q 557.97 301.38 560.26 305.55
  Q 560.46 305.93 560.46 306.50
  Q 560.45 307.06 560.65 307.58
  Q 563.43 314.78 562.96 322.28
  Q 562.63 327.54 561.68 332.72
  Q 560.72 337.87 558.27 342.78
  Q 555.98 347.34 554.31 342.52
  Q 551.12 333.34 545.52 323.99
  Q 541.35 317.03 536.27 311.53
  Q 531.51 306.38 525.06 300.69
  Q 520.10 296.31 514.76 295.72"
/>
<path stroke="#7e520f" vector-effect="non-scaling-stroke" d="
  M 256.17 367.34
  Q 260.08 370.21 264.77 371.38
  A 0.49 0.49 -75.6 0 0 265.37 371.02
  Q 266.26 367.45 266.03 363.74
  Q 266.00 363.25 266.22 362.80
  Q 267.26 360.66 267.69 358.94
  Q 272.25 340.72 282.69 322.19
  Q 291.20 307.08 305.84 297.78
  Q 312.14 293.77 318.93 290.06
  Q 320.06 289.43 318.93 288.81
  Q 313.84 285.99 308.19 284.56
  Q 301.73 282.93 287.50 282.50
  Q 274.74 282.11 265.17 284.38
  Q 250.79 287.78 241.34 298.15
  Q 235.84 304.18 233.25 311.36
  Q 230.55 318.79 230.80 327.01
  Q 230.98 332.74 233.94 339.31
  Q 241.80 356.78 256.17 367.34"
/>
<path stroke="#75521f" vector-effect="non-scaling-stroke" d="
  M 555.64 529.50
  Q 554.24 522.51 551.46 516.05
  Q 548.14 508.34 545.58 500.35
  Q 544.87 498.14 545.28 496.59
  Q 545.69 495.05 546.69 492.94
  Q 548.28 489.55 549.00 480.00
  Q 549.48 473.55 546.04 469.46
  Q 544.25 467.33 541.83 465.69
  Q 539.45 464.08 536.50 463.54"
/>
<path stroke="#7e520f" vector-effect="non-scaling-stroke" d="
  M 536.50 463.54
  Q 525.21 460.51 515.56 466.06
  Q 503.18 473.20 500.54 487.76
  Q 498.34 499.86 508.99 505.10
  A 1.03 0.95 -83.9 0 1 509.51 505.80
  Q 509.83 507.48 511.19 508.56
  Q 514.37 511.11 511.02 512.62
  A 0.70 0.65 -15.9 0 0 510.61 513.30
  Q 510.72 514.31 510.94 515.29
  Q 511.23 516.62 511.12 517.74
  Q 509.94 529.16 510.37 540.61
  Q 510.82 552.37 513.52 559.05
  Q 517.15 568.01 524.88 574.62
  Q 530.47 579.40 537.35 576.40
  Q 542.11 574.33 547.31 569.31
  Q 551.37 565.40 553.20 560.86
  Q 554.42 557.84 554.71 550.96
  Q 555.17 540.23 555.64 529.50"
/>
<path stroke="#f3a42e" vector-effect="non-scaling-stroke" d="
  M 536.50 463.54
  Q 534.99 465.16 537.56 465.94
  Q 547.68 468.98 547.27 479.75
  A 1.52 1.14 33.4 0 0 547.58 480.61
  Q 548.31 481.56 547.80 482.81
  Q 546.40 486.26 545.42 489.86
  Q 545.07 491.14 544.23 493.01
  Q 543.52 494.58 543.14 496.26
  Q 542.63 498.48 543.51 501.16
  Q 545.19 506.22 547.42 511.07
  Q 551.36 519.68 554.17 528.72
  A 0.97 0.53 78.1 0 0 554.75 529.40
  L 555.64 529.50"
/>
<path stroke="#7e520f" vector-effect="non-scaling-stroke" d="
  M 439.04 568.75
  L 497.25 511.29"
/>
<path stroke="#720007" vector-effect="non-scaling-stroke" d="
  M 497.25 511.29
  L 502.39 506.48
  A 0.87 0.84 -36.1 0 0 502.57 505.45
  Q 501.66 503.80 500.51 502.34
  Q 498.96 500.37 498.44 499.29
  Q 496.46 495.15 496.75 491.50
  Q 497.95 476.61 508.70 467.01
  Q 510.29 465.60 508.27 466.24
  Q 496.43 470.01 484.29 472.44
  Q 478.66 473.57 464.60 475.97
  Q 411.47 485.04 357.50 482.30
  Q 342.55 481.54 327.99 478.12
  A 0.70 0.70 -67.0 0 0 327.23 478.43
  Q 324.71 482.46 321.23 485.73
  Q 314.04 492.50 308.23 500.47
  Q 285.72 531.35 270.41 566.36
  Q 267.80 572.32 266.76 578.75
  Q 266.11 582.73 269.06 584.69
  Q 272.01 586.64 275.77 586.80
  Q 278.34 586.91 280.09 587.50
  Q 284.69 589.02 289.47 589.63
  Q 293.51 590.14 298.98 590.80
  Q 312.84 592.48 324.90 585.95
  Q 329.67 583.36 333.31 579.06
  Q 336.97 574.74 339.44 569.94
  Q 344.68 559.75 349.25 547.25
  Q 353.07 536.81 360.34 513.05
  Q 360.61 512.16 361.00 511.69
  Q 362.09 510.38 362.82 512.04
  A 1.56 1.19 -55.7 0 1 362.87 512.99
  Q 359.93 523.88 356.36 534.57
  Q 352.21 546.97 350.16 552.44
  Q 346.89 561.16 342.63 569.81
  A 1.62 1.61 47.8 0 0 342.57 571.12
  Q 347.83 584.70 351.50 597.75
  Q 354.58 608.70 355.25 616.25
  Q 355.35 617.34 354.72 620.10
  Q 354.13 622.67 354.30 623.95
  Q 354.79 627.74 358.54 629.54
  A 0.94 0.85 -46.7 0 0 359.41 629.47
  Q 361.99 627.81 365.75 628.00
  Q 368.05 628.12 370.32 626.79
  Q 372.71 625.39 372.77 625.36
  Q 380.81 621.35 389.25 617.64
  Q 390.31 617.18 391.09 616.40
  L 439.04 568.75"
/>
<path stroke="#f05216" vector-effect="non-scaling-stroke" d="
  M 497.25 511.29
  L 472.74 515.42
  A 0.67 0.67 72.1 0 1 472.02 515.05
  L 457.72 486.68
  Q 457.21 485.67 456.97 486.77
  L 450.11 518.39
  A 1.21 1.19 1.0 0 1 449.14 519.31
  L 418.25 524.66
  Q 417.74 524.75 418.18 525.00
  L 444.82 540.01
  A 0.69 0.68 21.1 0 1 445.15 540.74
  L 439.04 568.75"
/>
<path stroke="#720007" vector-effect="non-scaling-stroke" d="
  M 435.54 579.82
  L 400.85 614.02
  Q 399.63 615.22 401.34 615.14
  Q 404.89 614.96 409.44 615.56
  Q 411.64 615.85 422.06 618.96
  Q 426.68 620.34 429.02 620.71
  Q 433.34 621.38 436.25 620.75
  Q 444.30 619.00 454.46 613.94
  Q 459.42 611.47 462.97 610.44
  Q 468.64 608.79 472.00 608.50
  Q 490.44 606.90 506.75 601.50
  Q 509.05 600.74 510.92 598.64
  A 0.97 0.93 58.3 0 0 511.11 597.76
  Q 509.48 592.13 509.27 586.29
  Q 509.05 580.28 509.04 580.22
  Q 507.62 559.32 507.75 555.25
  Q 507.81 553.23 507.53 551.66
  Q 507.03 548.91 507.01 548.16
  Q 506.46 529.65 506.54 511.12"
/>
<path stroke="#7e520f" vector-effect="non-scaling-stroke" d="
  M 506.54 511.12
  Q 506.70 510.42 506.22 510.15
  A 0.80 0.58 -49.6 0 0 505.39 510.35
  Q 475.06 540.41 444.85 570.60
  Q 440.20 575.24 435.54 579.82"
/>
<path stroke="#f05216" vector-effect="non-scaling-stroke" d="
  M 506.54 511.12
  L 482.79 534.95
  A 1.12 1.08 54.5 0 0 482.60 536.22
  L 498.67 568.64
  Q 499.41 570.13 497.95 569.32
  L 467.23 552.24
  A 1.56 1.55 -53.2 0 0 465.37 552.51
  L 437.88 580.29
  A 2.30 2.29 -63.4 0 1 435.91 580.95
  Q 435.75 580.92 435.54 579.82"
/>
<path stroke="#7f746a" vector-effect="non-scaling-stroke" d="
  M 340.16 574.34
  Q 336.82 579.48 332.74 583.90
  A 0.74 0.71 52.8 0 0 332.64 584.73
  L 350.90 619.25
  Q 351.74 620.83 352.02 619.07
  Q 352.53 615.90 351.95 613.01
  Q 347.98 593.26 340.80 574.41
  Q 340.55 573.75 340.16 574.34"
/>
<path stroke="#7e520f" vector-effect="non-scaling-stroke" d="
  M 358.05 632.77
  Q 353.13 630.13 350.69 625.31
  Q 340.93 606.06 330.55 586.80
  A 0.52 0.51 58.8 0 0 329.82 586.62
  Q 315.43 595.92 299.24 594.06
  Q 290.50 593.05 281.80 591.64
  A 0.29 0.29 -5.3 0 0 281.48 592.02
  Q 288.26 610.69 298.85 627.36
  Q 304.47 636.19 307.64 639.76
  Q 312.91 645.66 319.81 649.19
  Q 328.18 653.46 331.74 661.40
  Q 333.46 665.22 334.63 666.56
  Q 339.47 672.11 347.03 673.59
  Q 352.58 674.67 359.50 673.50
  Q 367.20 672.20 372.18 667.18
  Q 376.73 662.58 378.94 657.19
  Q 384.46 643.70 374.53 633.22
  Q 371.84 630.38 368.04 631.49
  Q 367.58 631.62 367.09 631.60
  Q 361.86 631.37 358.95 632.77
  A 1.07 0.97 -42.4 0 1 358.05 632.77"
/>
<path stroke="#7e520f" vector-effect="non-scaling-stroke" d="
  M 347.01 823.73
  Q 350.05 826.45 353.00 826.50
  Q 367.84 826.74 383.00 821.93
  A 1.95 1.95 -88.0 0 0 384.23 820.78
  Q 391.70 801.35 403.15 784.23
  A 0.38 0.37 -63.5 0 0 402.97 783.66
  Q 387.26 778.52 379.81 775.69
  Q 365.55 770.26 349.66 770.25
  A 1.35 1.35 12.2 0 0 348.43 771.04
  Q 341.63 786.17 333.46 800.49
  A 3.33 3.29 50.0 0 0 333.23 803.27
  Q 337.75 815.46 347.01 823.73"
/>
<path stroke="#7e520f" vector-effect="non-scaling-stroke" d="
  M 469.73 840.69
  Q 478.08 841.78 485.19 839.69
  Q 491.38 837.87 500.55 831.30
  Q 509.41 824.94 515.10 814.30
  A 2.63 2.60 53.8 0 0 515.36 812.56
  Q 511.36 792.37 509.03 772.72
  A 0.69 0.69 -8.1 0 0 508.24 772.13
  Q 493.72 774.49 479.75 774.51
  Q 469.95 774.52 460.17 775.25
  Q 451.92 775.87 443.83 778.30
  A 0.83 0.82 -15.5 0 0 443.26 779.29
  Q 448.79 801.47 459.33 821.72
  Q 459.33 821.73 463.47 829.08
  Q 466.34 834.19 468.82 839.99
  A 1.17 1.16 82.2 0 0 469.73 840.69"
/>
<path stroke="#f05216" vector-effect="non-scaling-stroke" d="
  M 770.85 430.93
  Q 753.31 417.03 736.54 402.41
  Q 735.73 401.69 735.93 402.76
  L 743.91 445.35
  A 1.34 1.31 70.3 0 1 743.26 446.76
  Q 720.47 459.37 697.45 470.78
  Q 697.01 471.00 697.50 471.05
  L 751.71 476.32
  A 1.21 1.18 83.9 0 1 752.72 477.15
  Q 759.60 498.84 763.24 520.78
  Q 763.42 521.86 763.81 520.83
  Q 771.73 499.50 782.76 478.83
  A 0.97 0.97 -75.4 0 1 783.63 478.32
  L 831.87 478.75
  Q 833.36 478.77 832.08 478.00
  Q 812.63 466.29 795.80 451.93
  A 0.97 0.95 31.4 0 1 795.53 450.85
  Q 803.63 429.95 810.20 409.80
  Q 810.60 408.57 809.47 409.22
  L 771.69 431.01
  A 0.78 0.74 48.7 0 1 770.85 430.93"
/>
<path stroke="#f3a42e" vector-effect="non-scaling-stroke" d="
  M 538.54 411.25
  Q 540.00 411.08 540.35 409.82
  Q 541.20 406.75 541.87 403.63
  Q 542.52 400.63 542.56 397.31
  Q 542.62 392.14 542.56 383.44
  Q 542.49 372.02 539.94 362.06
  Q 539.44 360.12 539.27 358.69
  Q 538.89 355.50 538.88 355.45
  Q 536.65 344.51 531.23 334.79
  Q 530.36 333.22 528.37 330.50
  Q 526.69 328.21 525.53 326.18
  Q 524.08 323.63 521.45 322.32
  Q 505.65 314.42 488.00 314.76"
/>
<path stroke="#83530f" vector-effect="non-scaling-stroke" d="
  M 488.00 314.76
  Q 457.98 309.81 432.00 308.75
  Q 407.08 307.73 382.31 310.57
  Q 364.69 312.60 353.75 316.00
  Q 344.94 318.74 336.77 323.04
  Q 326.58 328.39 316.89 334.62
  Q 314.24 336.32 312.69 338.69
  Q 308.48 345.12 306.50 353.00
  Q 304.31 361.70 303.10 379.51
  Q 302.33 390.77 304.53 401.70
  Q 306.35 410.70 308.50 417.29
  Q 311.25 425.69 316.06 431.69
  Q 321.04 437.89 328.91 441.31
  Q 333.59 443.35 343.70 445.86
  Q 350.74 447.62 358.94 448.81
  Q 377.60 451.53 394.50 452.40
  Q 405.05 452.94 414.50 452.39
  Q 427.06 451.65 442.00 449.50
  Q 467.60 445.81 485.75 441.50
  Q 505.35 436.84 521.36 429.68
  Q 528.67 426.41 532.10 422.75
  Q 536.60 417.94 538.54 411.25"
/>
<path stroke="#7a531f" vector-effect="non-scaling-stroke" d="
  M 488.00 314.76
  Q 502.35 317.36 510.25 319.75
  Q 521.90 323.27 528.73 334.44
  Q 533.20 341.74 535.56 349.98
  Q 541.68 371.43 540.75 393.75
  Q 540.31 404.28 538.54 411.25"
/>
<path stroke="#805316" vector-effect="non-scaling-stroke" d="
  M 322.44 433.31
  Q 327.17 437.08 333.17 439.29
  Q 336.36 440.46 344.87 442.61
  Q 352.54 444.54 360.37 445.66
  Q 364.86 446.30 375.99 447.63
  Q 401.88 450.73 427.78 447.96
  Q 435.00 447.19 447.61 445.35
  Q 473.18 441.61 496.25 435.25
  Q 504.58 432.95 514.22 429.05
  Q 522.69 425.63 524.81 424.34
  Q 530.16 421.07 532.94 415.69
  Q 536.71 408.38 537.32 398.00
  Q 538.84 372.43 531.21 348.01
  Q 529.45 342.36 526.53 337.20
  Q 520.53 326.57 508.84 322.84
  Q 505.75 321.86 499.00 320.50
  Q 459.91 312.65 423.00 311.75
  Q 399.44 311.18 374.35 315.06
  Q 362.61 316.88 354.83 319.28
  Q 336.21 325.02 320.37 336.84
  Q 315.75 340.30 313.81 345.31
  Q 309.01 357.77 307.72 371.27
  Q 306.72 381.73 307.14 391.25
  Q 307.82 406.88 313.89 421.58
  Q 316.93 428.93 322.44 433.31"
/>
<path stroke="#7b5316" vector-effect="non-scaling-stroke" d="
  M 331.02 428.96
  Q 335.33 432.51 341.44 434.56
  Q 350.29 437.53 357.71 438.94
  Q 389.93 445.02 422.51 443.02
  Q 430.49 442.54 441.92 440.91
  Q 451.59 439.52 461.25 438.00
  Q 485.65 434.15 508.89 425.81
  Q 516.29 423.15 519.94 420.94
  Q 527.36 416.42 529.91 407.18
  Q 531.63 400.95 532.00 394.50
  Q 533.33 371.35 525.75 349.50
  Q 521.29 336.64 510.90 330.29
  Q 507.76 328.37 503.19 326.98
  Q 499.16 325.75 495.01 324.96
  Q 469.09 319.97 442.75 318.25
  Q 419.43 316.73 398.70 318.30
  Q 385.99 319.26 378.81 320.32
  Q 351.66 324.33 328.74 339.75
  Q 325.14 342.17 323.15 345.15
  Q 319.34 350.86 318.00 357.50
  Q 315.96 367.63 315.17 378.54
  Q 314.52 387.49 315.82 395.40
  Q 317.27 404.25 320.06 412.81
  Q 323.21 422.51 331.02 428.96"
/>
<path stroke="#75521f" vector-effect="non-scaling-stroke" d="
  M 458.71 363.00
  Q 454.84 366.66 452.69 372.69
  Q 449.57 381.43 448.75 388.46"
/>
<path stroke="#7e520f" vector-effect="non-scaling-stroke" d="
  M 448.75 388.46
  L 448.25 393.87
  A 0.35 0.33 -9.1 0 0 448.73 394.19
  Q 460.08 389.76 470.38 383.93
  Q 481.46 377.65 483.54 365.01
  Q 484.71 357.87 487.03 351.03
  A 0.37 0.36 9.7 0 0 486.68 350.55
  Q 469.74 350.31 458.71 363.00"
/>
<path stroke="#f3a42e" vector-effect="non-scaling-stroke" d="
  M 448.75 388.46
  Q 449.91 388.53 450.78 387.98
  A 1.06 0.85 79.6 0 0 451.21 387.18
  Q 451.90 374.81 459.21 364.89
  A 0.53 0.42 38.1 0 0 459.06 364.24
  Q 458.48 363.78 458.71 363.00"
/>
<path stroke="#7e520f" vector-effect="non-scaling-stroke" d="
  M 397.19 385.06
  Q 402.81 389.64 409.80 391.58
  Q 419.92 394.39 430.45 395.96
  A 0.71 0.70 -87.0 0 0 431.26 395.23
  Q 430.94 387.99 429.11 381.22
  Q 426.43 371.30 418.57 365.52
  Q 415.49 363.25 411.11 361.60
  Q 407.14 360.10 402.95 359.26
  Q 392.16 357.07 380.65 355.07
  A 0.36 0.35 85.0 0 0 380.26 355.54
  Q 383.93 365.58 388.96 375.05
  Q 392.07 380.89 397.19 385.06"
/>
<path stroke="#7b5316" vector-effect="non-scaling-stroke" d="
  M 481.1774 405.7006
  A 4.28 4.02 -2.0 0 0 476.7597 401.8324
  A 4.28 4.02 -2.0 0 0 472.6226 405.9994
  A 4.28 4.02 -2.0 0 0 477.0403 409.8676
  A 4.28 4.02 -2.0 0 0 481.1774 405.7006"
/>
<path stroke="#7b5316" vector-effect="non-scaling-stroke" d="
  M 395.2725 414.4885
  A 5.54 5.17 93.7 0 0 400.7892 409.2936
  A 5.54 5.17 93.7 0 0 395.9875 403.4315
  A 5.54 5.17 93.7 0 0 390.4708 408.6264
  A 5.54 5.17 93.7 0 0 395.2725 414.4885"
/>
<path stroke="#fcc27d" vector-effect="non-scaling-stroke" d="
  M 740.1565 770.9697
  A 20.90 20.54 88.2 0 0 760.0299 749.4348
  A 20.90 20.54 88.2 0 0 738.8435 729.1903
  A 20.90 20.54 88.2 0 0 718.9701 750.7252
  A 20.90 20.54 88.2 0 0 740.1565 770.9697"
/>
<path stroke="#7f746c" vector-effect="non-scaling-stroke" d="
  M 759.76 795.62
  Q 756.98 795.56 754.56 797.56
  Q 749.18 802.04 747.20 808.49
  Q 746.13 812.00 747.17 815.24
  A 0.64 0.64 67.7 0 0 748.07 815.62
  Q 752.31 813.48 755.84 810.70
  Q 759.00 808.20 760.24 806.89
  Q 762.19 804.82 763.50 802.00
  Q 764.81 799.16 763.41 797.30
  Q 762.19 795.68 759.76 795.62"
/>
<path stroke="#7f746c" vector-effect="non-scaling-stroke" d="
  M 789.34 859.41
  Q 791.54 860.06 793.69 859.19
  Q 800.51 856.41 805.10 849.63
  Q 811.09 840.77 815.49 831.01
  Q 815.69 830.56 815.24 830.77
  Q 798.08 838.90 793.56 841.31
  Q 788.52 844.01 785.72 848.95
  Q 783.06 853.68 785.92 857.12
  Q 787.33 858.81 789.34 859.41"
/>
</g>
<path fill="#fee7d7" d="
  M 0.00 0.00
  L 1080.00 0.00
  L 1080.00 1080.00
  L 0.00 1080.00
  L 0.00 0.00
  Z
  M 411.02 242.31
  L 415.60 268.20
  A 0.42 0.41 -4.5 0 1 415.18 268.68
  Q 396.89 268.60 385.50 270.00
  Q 380.79 270.58 363.15 273.56
  Q 355.15 274.92 348.74 277.15
  Q 336.46 281.44 324.34 287.22
  A 2.15 2.15 -42.4 0 1 322.31 287.13
  Q 312.16 281.14 300.52 280.29
  Q 296.99 280.04 288.50 279.50
  Q 272.05 278.46 257.40 283.80
  Q 246.60 287.73 238.56 296.56
  Q 232.14 303.62 229.55 312.28
  Q 227.60 318.80 227.49 325.22
  Q 227.38 332.04 229.94 338.31
  Q 234.41 349.28 242.55 359.42
  Q 251.18 370.18 264.71 374.65
  A 0.84 0.84 10.3 0 1 265.28 375.47
  Q 264.59 395.79 269.88 414.58
  Q 276.47 437.99 292.56 456.17
  Q 306.02 471.38 325.38 477.21
  Q 325.84 477.35 325.48 477.67
  Q 315.33 486.54 307.24 497.05
  Q 302.99 502.56 295.85 513.48
  Q 282.56 533.79 272.11 555.71
  Q 267.92 564.49 266.86 567.19
  Q 264.28 573.76 263.75 579.50
  Q 263.43 582.97 265.72 585.72
  Q 267.33 587.65 270.42 588.91
  Q 273.25 590.06 275.98 590.40
  A 2.68 2.66 -7.1 0 1 278.12 592.05
  Q 283.01 604.24 288.31 615.12
  Q 295.57 630.05 306.39 642.63
  Q 310.86 647.82 314.31 649.69
  Q 322.33 654.02 324.19 655.56
  Q 328.05 658.77 330.11 665.52
  A 1.39 1.38 -41.5 0 1 330.05 666.46
  Q 326.84 674.04 323.57 681.60
  Q 322.43 684.21 320.45 686.19
  Q 315.59 691.06 310.09 696.24
  A 1.17 1.01 -42.2 0 0 309.91 697.73
  L 312.80 701.12
  A 0.51 0.41 -45.0 0 0 313.49 701.04
  L 316.07 698.15
  Q 316.49 697.69 316.25 698.27
  Q 307.00 720.42 296.70 742.10
  Q 292.14 751.71 283.06 759.56
  Q 280.97 761.37 281.59 763.77
  Q 282.02 765.41 283.63 766.69
  Q 285.21 767.95 287.00 768.25
  Q 293.45 769.35 303.25 769.83
  Q 324.21 770.85 345.19 770.08
  A 0.31 0.31 -78.7 0 1 345.48 770.52
  Q 340.51 781.58 334.69 792.21
  Q 334.65 792.29 333.05 795.48
  Q 331.62 798.31 329.56 800.66
  Q 327.94 802.50 323.33 805.58
  Q 318.73 808.66 314.51 812.25
  Q 309.81 816.26 307.86 820.37
  Q 305.56 825.20 305.00 831.00
  Q 304.25 838.69 308.00 844.19
  Q 309.96 847.05 317.41 852.89
  Q 328.05 861.21 340.14 867.40
  Q 350.76 872.84 359.23 881.26
  Q 363.08 885.09 367.50 888.25
  Q 372.97 892.15 379.75 892.20
  Q 385.32 892.24 390.74 890.95
  Q 396.50 889.58 400.32 885.07
  Q 403.70 881.08 402.90 876.50
  Q 402.55 874.48 399.76 870.36
  Q 396.11 864.99 392.69 857.31
  Q 388.27 847.41 387.52 838.77
  Q 386.93 832.02 386.79 825.25
  Q 386.73 822.30 387.81 819.56
  Q 395.05 801.28 406.03 784.98
  A 0.78 0.78 23.2 0 1 406.80 784.65
  Q 423.89 787.67 439.15 779.89
  A 0.79 0.79 -20.4 0 1 440.27 780.40
  Q 447.22 808.12 461.39 832.14
  Q 464.50 837.40 466.08 843.30
  Q 466.75 845.82 466.00 850.00
  Q 464.31 859.39 466.79 868.98
  Q 468.54 875.76 472.32 880.21
  Q 476.50 885.11 482.61 887.97
  Q 488.86 890.88 496.00 889.50
  Q 507.91 887.19 515.63 878.55
  Q 518.85 874.94 518.87 874.93
  Q 523.86 869.91 529.56 866.56
  Q 543.67 858.29 556.04 849.25
  Q 564.63 842.97 567.62 838.35
  Q 572.07 831.43 572.23 822.50
  Q 572.40 813.43 565.53 807.75
  Q 563.12 805.75 560.00 805.55
  Q 554.94 805.23 550.45 807.07
  Q 550.15 807.19 543.95 811.01
  Q 536.91 815.36 528.25 815.17
  Q 524.99 815.10 521.73 815.50
  A 2.06 2.04 76.1 0 1 519.56 814.18
  Q 517.12 807.63 516.10 800.72
  Q 515.31 795.40 515.29 795.29
  Q 513.34 783.67 511.81 771.99
  A 0.59 0.58 -11.7 0 1 512.23 771.36
  Q 518.74 769.45 524.94 766.68
  Q 528.98 764.87 531.60 761.11
  A 2.70 2.69 48.6 0 0 531.77 758.32
  Q 529.12 753.22 528.64 746.99
  Q 526.32 716.36 523.76 685.75
  Q 521.47 658.21 516.25 638.00
  Q 512.02 621.62 507.15 605.71
  A 0.90 0.90 73.1 0 1 507.75 604.58
  Q 511.16 603.54 513.40 601.15
  Q 515.72 598.70 514.58 595.86
  Q 513.41 592.94 513.40 592.86
  Q 512.68 589.74 512.50 585.25
  Q 512.05 574.37 511.48 563.19
  Q 511.43 562.07 511.91 563.08
  Q 515.42 570.49 521.76 576.25
  Q 529.34 583.15 538.94 578.94
  Q 549.33 574.38 555.24 563.52
  Q 557.38 559.59 557.50 556.00
  Q 557.95 542.80 558.52 535.23
  Q 559.08 527.75 557.25 522.75
  Q 553.06 511.29 548.57 499.97
  Q 547.85 498.14 548.54 496.30
  Q 551.26 489.09 552.14 482.02
  Q 553.11 474.29 549.25 467.68
  A 0.65 0.64 52.5 0 1 549.35 466.90
  L 586.21 430.29
  A 0.58 0.58 58.3 0 1 587.17 430.52
  Q 595.11 453.92 605.34 476.36
  Q 612.90 492.96 623.65 507.56
  Q 630.37 516.67 636.82 522.57
  Q 646.02 530.99 657.29 536.73
  Q 668.82 542.60 679.06 546.44
  Q 698.47 553.70 726.92 563.61
  Q 740.42 568.32 749.19 573.06
  Q 769.04 583.80 777.38 605.38
  Q 779.30 610.35 779.35 610.47
  Q 781.14 614.89 782.89 619.33
  Q 784.59 623.64 788.69 629.31
  Q 792.17 634.13 795.77 642.60
  Q 799.62 651.67 807.98 645.74
  Q 813.56 641.79 816.69 638.19
  Q 832.44 620.07 848.76 596.71
  Q 861.83 578.00 875.46 559.70
  Q 883.44 548.99 890.69 542.44
  Q 898.18 535.66 909.12 530.98
  Q 909.15 530.96 911.43 530.10
  Q 917.23 527.90 919.95 522.17
  Q 920.81 520.36 918.93 519.63
  Q 917.01 518.88 915.44 517.08
  Q 911.44 512.52 909.42 506.78
  Q 907.35 500.91 905.64 494.92
  Q 900.40 476.50 893.61 458.59
  Q 889.34 447.36 883.14 437.09
  Q 876.84 426.65 867.68 418.59
  Q 856.92 409.11 850.44 404.81
  Q 831.59 392.32 813.47 378.79
  Q 796.37 366.02 787.06 349.44
  Q 780.34 337.47 776.81 327.94
  Q 765.20 296.60 758.40 260.56
  A 1.05 0.93 -30.8 0 1 758.67 259.72
  L 765.87 252.07
  A 1.06 0.98 63.1 0 0 766.12 251.19
  Q 765.56 247.96 763.23 248.79
  Q 762.23 249.15 760.66 250.70
  Q 653.10 356.99 545.69 463.43
  A 0.37 0.37 35.3 0 1 545.25 463.50
  Q 535.86 458.62 525.24 459.46
  Q 524.76 459.50 525.18 459.23
  Q 544.49 447.09 554.10 427.02
  Q 557.42 420.06 558.87 411.50
  Q 560.24 403.43 560.53 395.25
  Q 560.91 384.86 560.09 375.26
  Q 559.21 364.94 556.43 354.75
  A 1.87 1.87 -30.8 0 1 556.88 352.98
  Q 565.02 344.40 567.14 332.28
  Q 570.78 311.47 559.26 294.01
  Q 552.74 284.12 540.94 280.31
  Q 530.87 277.06 520.89 277.15
  Q 514.40 277.21 509.35 279.18
  Q 503.90 281.31 499.07 285.23
  A 1.18 1.17 38.5 0 1 497.79 285.37
  Q 481.09 276.92 463.95 273.49
  Q 441.82 269.05 419.24 268.75
  A 0.46 0.46 -4.7 0 1 418.80 268.38
  L 413.97 242.42
  A 1.15 1.15 -23.8 0 1 414.41 241.29
  Q 419.27 237.54 418.13 233.45
  Q 417.08 229.70 413.02 228.42
  Q 408.84 227.10 405.03 230.79
  Q 402.37 233.36 403.50 236.50
  Q 405.19 241.19 410.43 241.77
  A 0.67 0.65 -1.6 0 1 411.02 242.31
  Z
  M 642.94 775.56
  Q 651.76 783.74 663.24 784.41
  Q 673.64 785.02 682.46 780.04
  Q 694.35 773.33 697.82 758.18
  A 0.76 0.74 -83.2 0 0 697.10 757.25
  L 684.32 757.31
  A 0.72 0.71 -80.1 0 0 683.65 757.79
  Q 680.36 767.19 671.94 769.94
  Q 664.78 772.27 658.27 769.16
  Q 652.64 766.48 649.56 761.37
  Q 646.45 756.22 646.69 749.44
  Q 646.94 742.29 650.70 737.20
  Q 654.45 732.10 660.65 730.18
  Q 667.45 728.08 674.17 731.33
  Q 677.30 732.84 679.64 735.51
  Q 681.92 738.10 683.57 741.33
  A 1.25 1.24 76.1 0 0 684.67 742.00
  L 696.51 742.00
  A 1.02 1.01 -6.7 0 0 697.50 740.75
  Q 695.55 732.58 690.37 726.56
  Q 685.31 720.69 677.76 717.85
  Q 670.19 714.99 662.07 715.89
  Q 654.24 716.75 647.58 720.96
  Q 639.26 726.21 635.24 735.08
  Q 631.46 743.43 631.99 752.82
  Q 632.75 766.12 642.94 775.56
  Z
  M 774.7491 750.3162
  A 35.26 34.56 0.4 0 0 739.7313 715.5108
  A 35.26 34.56 0.4 0 0 704.2309 749.8238
  A 35.26 34.56 0.4 0 0 739.2487 784.6292
  A 35.26 34.56 0.4 0 0 774.7491 750.3162
  Z
  M 793.50 783.04
  Q 788.15 793.49 782.51 803.79
  Q 780.42 807.60 774.81 812.56
  Q 769.06 817.65 763.12 819.78
  Q 759.46 821.10 756.23 820.74
  Q 752.68 820.35 749.47 818.38
  Q 748.22 817.62 749.52 816.96
  Q 757.17 813.07 762.93 806.43
  Q 765.53 803.44 765.75 801.25
  Q 766.36 795.12 761.80 794.01
  Q 758.74 793.26 755.14 795.29
  Q 750.12 798.11 747.25 803.21
  Q 745.21 806.84 743.97 808.24
  Q 740.28 812.42 736.07 816.08
  Q 732.02 819.62 728.75 820.25
  Q 724.50 821.07 724.38 816.75
  Q 724.26 812.83 725.56 810.31
  Q 728.55 804.53 730.09 800.57
  Q 731.01 798.21 730.86 796.82
  Q 730.60 794.27 727.75 793.75
  Q 722.12 792.72 716.69 796.69
  Q 712.75 799.56 707.91 804.58
  Q 707.57 804.93 707.73 804.48
  Q 709.04 800.83 709.25 799.25
  Q 710.07 793.13 704.09 793.81
  Q 700.98 794.16 698.32 795.83
  Q 689.87 801.14 683.81 809.09
  Q 682.84 810.37 683.64 808.86
  Q 687.05 802.52 690.50 796.21
  Q 690.79 795.67 690.88 795.23
  Q 691.14 793.81 689.92 794.41
  Q 689.47 794.63 689.16 795.18
  Q 681.85 808.05 674.83 821.07
  Q 674.52 821.65 674.41 822.10
  Q 674.01 823.79 675.44 823.00
  Q 675.90 822.75 676.27 822.19
  Q 682.44 813.07 691.06 803.81
  Q 696.08 798.43 702.42 795.91
  Q 704.52 795.08 705.82 795.37
  Q 708.24 795.91 707.25 799.50
  Q 705.45 806.04 702.74 810.67
  Q 699.83 815.65 696.77 820.56
  Q 696.46 821.06 696.38 821.52
  Q 696.13 823.06 697.46 822.26
  Q 697.90 822.00 698.23 821.45
  Q 704.72 810.54 712.69 802.19
  Q 716.23 798.47 721.20 796.37
  Q 723.86 795.24 725.96 795.30
  Q 730.90 795.46 727.94 801.44
  Q 725.53 806.33 723.45 811.37
  Q 721.78 815.42 722.75 818.50
  Q 724.01 822.48 727.56 822.28
  Q 729.46 822.18 732.59 820.44
  Q 739.14 816.80 743.06 811.81
  Q 745.34 808.92 745.08 812.25
  Q 745.01 813.20 745.09 813.76
  Q 745.89 819.16 750.81 821.19
  Q 757.50 823.94 764.67 821.06
  Q 772.49 817.92 778.70 811.67
  Q 779.67 810.70 779.17 811.98
  Q 777.48 816.36 779.68 819.44
  Q 781.58 822.09 785.28 822.40
  Q 788.69 822.69 791.93 820.93
  Q 798.75 817.22 803.82 811.30
  Q 805.26 809.62 804.35 811.63
  Q 802.38 815.98 804.58 820.25
  A 1.42 1.40 -1.7 0 0 805.27 820.89
  Q 811.35 823.43 816.64 819.17
  Q 820.39 816.14 823.34 812.34
  Q 823.84 811.70 823.92 812.23
  Q 823.95 812.41 823.85 812.62
  Q 820.65 819.25 817.53 826.51
  A 3.34 3.31 -2.2 0 1 815.99 828.16
  Q 805.22 833.69 794.29 838.76
  Q 787.09 842.10 783.87 848.92
  Q 782.38 852.06 782.87 854.78
  Q 783.48 858.23 786.42 860.12
  Q 788.56 861.50 791.35 861.40
  Q 794.20 861.30 796.44 859.94
  Q 806.22 853.99 811.67 842.87
  Q 815.00 836.06 818.13 829.32
  A 1.58 1.56 -2.0 0 1 818.82 828.59
  Q 834.10 820.22 846.16 808.46
  Q 846.22 808.40 847.01 807.72
  Q 848.29 806.63 846.97 805.95
  A 0.73 0.67 -53.0 0 0 846.15 806.10
  Q 834.64 817.50 820.65 825.51
  Q 819.70 826.06 820.14 825.05
  Q 826.79 809.83 834.56 795.29
  Q 834.87 794.70 834.96 794.29
  Q 835.22 793.02 834.03 793.38
  A 1.45 1.11 -78.0 0 0 833.31 794.00
  Q 827.66 804.02 821.19 812.19
  Q 818.51 815.57 814.76 818.03
  Q 811.87 819.91 809.43 820.14
  Q 805.37 820.51 805.28 816.41
  Q 805.24 814.67 806.20 811.67
  Q 808.85 803.38 813.39 795.92
  Q 813.73 795.37 813.83 794.89
  Q 814.19 793.18 812.81 793.98
  Q 812.35 794.25 812.01 794.81
  Q 810.15 797.93 808.52 801.17
  Q 806.42 805.33 804.85 807.39
  Q 798.75 815.40 790.44 819.69
  Q 787.24 821.34 783.75 820.24
  Q 781.48 819.53 780.80 817.61
  Q 780.12 815.65 780.75 813.25
  Q 781.78 809.32 782.98 806.99
  Q 789.16 794.94 795.54 783.00
  Q 806.40 783.22 813.00 782.75
  Q 832.72 781.33 840.72 765.33
  Q 843.69 759.39 844.24 752.65
  Q 844.83 745.46 842.69 739.31
  Q 836.70 722.15 820.08 718.15
  Q 815.30 717.00 803.34 717.00
  Q 794.92 717.00 786.50 717.00
  A 0.50 0.50 0.0 0 0 786.00 717.50
  L 786.00 781.83
  A 1.12 1.12 0.5 0 0 787.10 782.95
  L 793.50 783.04
  Z
  M 870.04 768.94
  L 870.27 756.81
  A 0.56 0.51 -0.1 0 1 870.82 756.31
  L 892.32 756.08
  A 0.53 0.52 -0.0 0 0 892.84 755.57
  L 892.98 743.85
  A 0.55 0.54 0.0 0 0 892.43 743.31
  L 870.95 743.25
  A 0.93 0.90 0.3 0 1 870.02 742.34
  L 870.16 730.93
  A 0.54 0.52 -0.0 0 1 870.69 730.42
  L 894.82 730.26
  A 0.68 0.67 0.0 0 0 895.50 729.59
  L 895.50 717.50
  A 0.50 0.50 0.0 0 0 895.00 717.00
  L 856.63 717.00
  A 0.88 0.88 0.0 0 0 855.75 717.88
  L 855.93 782.31
  A 0.51 0.51 0.0 0 0 856.44 782.82
  L 895.35 782.99
  A 1.09 1.02 -0.7 0 0 896.45 781.93
  L 896.06 770.24
  A 0.58 0.49 0.1 0 0 895.49 769.76
  L 870.56 769.46
  A 0.53 0.51 1.1 0 1 870.04 768.94
  Z"
/>
<path fill="#000000" d="
  M 410.43 241.77
  Q 405.19 241.19 403.50 236.50
  Q 402.37 233.36 405.03 230.79
  Q 408.84 227.10 413.02 228.42
  Q 417.08 229.70 418.13 233.45
  Q 419.27 237.54 414.41 241.29
  A 1.15 1.15 -23.8 0 0 413.97 242.42
  L 418.80 268.38
  A 0.46 0.46 -4.7 0 0 419.24 268.75
  Q 441.82 269.05 463.95 273.49
  Q 481.09 276.92 497.79 285.37
  A 1.18 1.17 38.5 0 0 499.07 285.23
  Q 503.90 281.31 509.35 279.18
  Q 514.40 277.21 520.89 277.15
  Q 530.87 277.06 540.94 280.31
  Q 552.74 284.12 559.26 294.01
  Q 570.78 311.47 567.14 332.28
  Q 565.02 344.40 556.88 352.98
  A 1.87 1.87 -30.8 0 0 556.43 354.75
  Q 559.21 364.94 560.09 375.26
  Q 560.91 384.86 560.53 395.25
  Q 560.24 403.43 558.87 411.50
  Q 557.42 420.06 554.10 427.02
  Q 544.49 447.09 525.18 459.23
  Q 524.76 459.50 525.24 459.46
  Q 535.86 458.62 545.25 463.50
  A 0.37 0.37 35.3 0 0 545.69 463.43
  Q 653.10 356.99 760.66 250.70
  Q 762.23 249.15 763.23 248.79
  Q 765.56 247.96 766.12 251.19
  A 1.06 0.98 63.1 0 1 765.87 252.07
  L 758.67 259.72
  A 1.05 0.93 -30.8 0 0 758.40 260.56
  Q 765.20 296.60 776.81 327.94
  Q 780.34 337.47 787.06 349.44
  Q 796.37 366.02 813.47 378.79
  Q 831.59 392.32 850.44 404.81
  Q 856.92 409.11 867.68 418.59
  Q 876.84 426.65 883.14 437.09
  Q 889.34 447.36 893.61 458.59
  Q 900.40 476.50 905.64 494.92
  Q 907.35 500.91 909.42 506.78
  Q 911.44 512.52 915.44 517.08
  Q 917.01 518.88 918.93 519.63
  Q 920.81 520.36 919.95 522.17
  Q 917.23 527.90 911.43 530.10
  Q 909.15 530.96 909.12 530.98
  Q 898.18 535.66 890.69 542.44
  Q 883.44 548.99 875.46 559.70
  Q 861.83 578.00 848.76 596.71
  Q 832.44 620.07 816.69 638.19
  Q 813.56 641.79 807.98 645.74
  Q 799.62 651.67 795.77 642.60
  Q 792.17 634.13 788.69 629.31
  Q 784.59 623.64 782.89 619.33
  Q 781.14 614.89 779.35 610.47
  Q 779.30 610.35 777.38 605.38
  Q 769.04 583.80 749.19 573.06
  Q 740.42 568.32 726.92 563.61
  Q 698.47 553.70 679.06 546.44
  Q 668.82 542.60 657.29 536.73
  Q 646.02 530.99 636.82 522.57
  Q 630.37 516.67 623.65 507.56
  Q 612.90 492.96 605.34 476.36
  Q 595.11 453.92 587.17 430.52
  A 0.58 0.58 58.3 0 0 586.21 430.29
  L 549.35 466.90
  A 0.65 0.64 52.5 0 0 549.25 467.68
  Q 553.11 474.29 552.14 482.02
  Q 551.26 489.09 548.54 496.30
  Q 547.85 498.14 548.57 499.97
  Q 553.06 511.29 557.25 522.75
  Q 559.08 527.75 558.52 535.23
  Q 557.95 542.80 557.50 556.00
  Q 557.38 559.59 555.24 563.52
  Q 549.33 574.38 538.94 578.94
  Q 529.34 583.15 521.76 576.25
  Q 515.42 570.49 511.91 563.08
  Q 511.43 562.07 511.48 563.19
  Q 512.05 574.37 512.50 585.25
  Q 512.68 589.74 513.40 592.86
  Q 513.41 592.94 514.58 595.86
  Q 515.72 598.70 513.40 601.15
  Q 511.16 603.54 507.75 604.58
  A 0.90 0.90 73.1 0 0 507.15 605.71
  Q 512.02 621.62 516.25 638.00
  Q 521.47 658.21 523.76 685.75
  Q 526.32 716.36 528.64 746.99
  Q 529.12 753.22 531.77 758.32
  A 2.70 2.69 48.6 0 1 531.60 761.11
  Q 528.98 764.87 524.94 766.68
  Q 518.74 769.45 512.23 771.36
  A 0.59 0.58 -11.7 0 0 511.81 771.99
  Q 513.34 783.67 515.29 795.29
  Q 515.31 795.40 516.10 800.72
  Q 517.12 807.63 519.56 814.18
  A 2.06 2.04 76.1 0 0 521.73 815.50
  Q 524.99 815.10 528.25 815.17
  Q 536.91 815.36 543.95 811.01
  Q 550.15 807.19 550.45 807.07
  Q 554.94 805.23 560.00 805.55
  Q 563.12 805.75 565.53 807.75
  Q 572.40 813.43 572.23 822.50
  Q 572.07 831.43 567.62 838.35
  Q 564.63 842.97 556.04 849.25
  Q 543.67 858.29 529.56 866.56
  Q 523.86 869.91 518.87 874.93
  Q 518.85 874.94 515.63 878.55
  Q 507.91 887.19 496.00 889.50
  Q 488.86 890.88 482.61 887.97
  Q 476.50 885.11 472.32 880.21
  Q 468.54 875.76 466.79 868.98
  Q 464.31 859.39 466.00 850.00
  Q 466.75 845.82 466.08 843.30
  Q 464.50 837.40 461.39 832.14
  Q 447.22 808.12 440.27 780.40
  A 0.79 0.79 -20.4 0 0 439.15 779.89
  Q 423.89 787.67 406.80 784.65
  A 0.78 0.78 21.8 0 0 406.03 784.98
  Q 395.05 801.28 387.81 819.56
  Q 386.73 822.30 386.79 825.25
  Q 386.93 832.02 387.52 838.77
  Q 388.27 847.41 392.69 857.31
  Q 396.11 864.99 399.76 870.36
  Q 402.55 874.48 402.90 876.50
  Q 403.70 881.08 400.32 885.07
  Q 396.50 889.58 390.74 890.95
  Q 385.32 892.24 379.75 892.20
  Q 372.97 892.15 367.50 888.25
  Q 363.08 885.09 359.23 881.26
  Q 350.76 872.84 340.14 867.40
  Q 328.05 861.21 317.41 852.89
  Q 309.96 847.05 308.00 844.19
  Q 304.25 838.69 305.00 831.00
  Q 305.56 825.20 307.86 820.37
  Q 309.81 816.26 314.51 812.25
  Q 318.73 808.66 323.33 805.58
  Q 327.94 802.50 329.56 800.66
  Q 331.62 798.31 333.05 795.48
  Q 334.65 792.29 334.69 792.21
  Q 340.51 781.58 345.48 770.52
  A 0.31 0.31 -78.7 0 0 345.19 770.08
  Q 324.21 770.85 303.25 769.83
  Q 293.45 769.35 287.00 768.25
  Q 285.21 767.95 283.63 766.69
  Q 282.02 765.41 281.59 763.77
  Q 280.97 761.37 283.06 759.56
  Q 292.14 751.71 296.70 742.10
  Q 307.00 720.42 316.25 698.27
  Q 316.49 697.69 316.07 698.15
  L 313.49 701.04
  A 0.51 0.41 -45.0 0 1 312.80 701.12
  L 309.91 697.73
  A 1.17 1.01 -42.2 0 1 310.09 696.24
  Q 315.59 691.06 320.45 686.19
  Q 322.43 684.21 323.57 681.60
  Q 326.84 674.04 330.05 666.46
  A 1.39 1.38 -41.5 0 0 330.11 665.52
  Q 328.05 658.77 324.19 655.56
  Q 322.33 654.02 314.31 649.69
  Q 310.86 647.82 306.39 642.63
  Q 295.57 630.05 288.31 615.12
  Q 283.01 604.24 278.12 592.05
  A 2.68 2.66 -7.1 0 0 275.98 590.40
  Q 273.25 590.06 270.42 588.91
  Q 267.33 587.65 265.72 585.72
  Q 263.43 582.97 263.75 579.50
  Q 264.28 573.76 266.86 567.19
  Q 267.92 564.49 272.11 555.71
  Q 282.56 533.79 295.85 513.48
  Q 302.99 502.56 307.24 497.05
  Q 315.33 486.54 325.48 477.67
  Q 325.84 477.35 325.38 477.21
  Q 306.02 471.38 292.56 456.17
  Q 276.47 437.99 269.88 414.58
  Q 264.59 395.79 265.28 375.47
  A 0.84 0.84 10.3 0 0 264.71 374.65
  Q 251.18 370.18 242.55 359.42
  Q 234.41 349.28 229.94 338.31
  Q 227.38 332.04 227.49 325.22
  Q 227.60 318.80 229.55 312.28
  Q 232.14 303.62 238.56 296.56
  Q 246.60 287.73 257.40 283.80
  Q 272.05 278.46 288.50 279.50
  Q 296.99 280.04 300.52 280.29
  Q 312.16 281.14 322.31 287.13
  A 2.15 2.15 -42.4 0 0 324.34 287.22
  Q 336.46 281.44 348.74 277.15
  Q 355.15 274.92 363.15 273.56
  Q 380.79 270.58 385.50 270.00
  Q 396.89 268.60 415.18 268.68
  A 0.42 0.41 -4.5 0 0 415.60 268.20
  L 411.02 242.31
  A 0.67 0.65 -1.6 0 0 410.43 241.77
  Z
  M 620.96 496.03
  L 624.00 500.21
  Q 636.51 519.68 656.68 530.99
  Q 667.28 536.93 678.58 541.40
  Q 698.63 549.33 719.06 556.19
  Q 723.18 557.57 741.06 564.44
  Q 756.98 570.55 767.72 582.20
  Q 773.21 588.16 777.76 597.34
  Q 781.72 605.32 784.81 614.19
  Q 786.54 619.14 789.50 623.76
  Q 793.93 630.68 794.45 631.64
  Q 797.73 637.69 798.44 640.06
  Q 800.46 646.86 806.56 643.06
  Q 812.20 639.56 817.24 633.49
  Q 831.84 615.91 845.02 597.24
  Q 857.93 578.97 871.26 560.99
  Q 878.50 551.21 887.00 542.49
  Q 895.59 533.67 903.56 530.31
  Q 909.94 527.62 916.13 524.08
  A 0.94 0.94 -41.4 0 0 916.23 522.51
  Q 911.66 519.04 909.18 514.38
  Q 908.54 513.18 905.43 504.56
  Q 902.43 496.26 901.25 491.75
  Q 895.19 468.63 884.81 447.12
  Q 876.72 430.35 863.19 419.31
  Q 850.09 408.63 831.58 396.42
  Q 815.01 385.50 804.06 375.94
  Q 790.85 364.40 781.46 347.25
  Q 781.23 344.78 779.54 343.00
  Q 772.51 327.97 769.25 317.50
  Q 761.06 291.22 755.50 264.23
  Q 755.27 263.12 754.46 263.92
  Q 673.90 343.53 593.35 423.36
  Q 591.84 424.85 590.58 426.41
  A 0.76 0.75 54.9 0 0 590.45 427.17
  Q 597.16 445.21 604.16 462.40
  Q 611.28 479.90 620.96 496.03
  Z
  M 300.50 459.24
  Q 314.58 472.25 333.04 476.01
  Q 336.08 476.63 345.47 477.93
  Q 352.66 478.92 358.00 479.25
  Q 391.10 481.30 425.56 477.85
  Q 435.55 476.86 445.44 475.62
  Q 472.74 472.23 499.44 465.51
  Q 510.35 462.77 517.25 459.75
  Q 528.73 454.73 537.53 445.60
  Q 544.67 438.21 549.46 429.61
  Q 555.10 419.52 556.66 407.98
  Q 557.62 400.88 557.66 388.01
  Q 557.75 357.57 543.56 330.19
  Q 537.98 319.42 529.06 311.20
  Q 511.63 295.14 490.15 285.13
  Q 475.06 278.10 460.00 275.50
  Q 428.60 270.08 395.26 272.33
  Q 369.00 274.11 344.02 282.32
  Q 332.91 285.97 322.19 292.69
  Q 315.62 296.80 305.45 302.63
  Q 301.52 304.88 298.96 306.92
  Q 295.01 310.07 293.31 312.31
  Q 278.76 331.51 272.11 354.71
  Q 266.82 373.14 268.88 392.26
  Q 270.49 407.15 275.49 421.25
  Q 283.32 443.35 300.50 459.24
  Z
  M 514.76 295.72
  Q 525.26 303.17 534.25 312.25
  Q 542.45 320.52 547.54 331.01
  Q 551.94 340.07 554.77 349.81
  Q 554.95 350.46 555.41 349.96
  Q 558.21 346.87 560.22 343.21
  Q 562.03 339.93 563.18 335.55
  Q 568.72 314.49 557.38 296.66
  Q 553.70 290.87 549.51 287.83
  Q 544.86 284.47 538.56 282.69
  Q 531.73 280.75 528.25 280.54
  Q 519.44 279.67 515.00 280.50
  Q 508.74 281.67 501.65 286.95
  A 0.34 0.33 42.4 0 0 501.68 287.50
  L 514.76 295.72
  Z
  M 256.17 367.34
  Q 260.08 370.21 264.77 371.38
  A 0.49 0.49 -75.6 0 0 265.37 371.02
  Q 266.26 367.45 266.03 363.74
  Q 266.00 363.25 266.22 362.80
  Q 267.26 360.66 267.69 358.94
  Q 272.25 340.72 282.69 322.19
  Q 291.20 307.08 305.84 297.78
  Q 312.14 293.77 318.93 290.06
  Q 320.06 289.43 318.93 288.81
  Q 313.84 285.99 308.19 284.56
  Q 301.73 282.93 287.50 282.50
  Q 274.74 282.11 265.17 284.38
  Q 250.79 287.78 241.34 298.15
  Q 235.84 304.18 233.25 311.36
  Q 230.55 318.79 230.80 327.01
  Q 230.98 332.74 233.94 339.31
  Q 241.80 356.78 256.17 367.34
  Z
  M 555.64 529.50
  Q 554.24 522.51 551.46 516.05
  Q 548.14 508.34 545.58 500.35
  Q 544.87 498.14 545.28 496.59
  Q 545.69 495.05 546.69 492.94
  Q 548.28 489.55 549.00 480.00
  Q 549.48 473.55 546.04 469.46
  Q 544.25 467.33 541.83 465.69
  Q 539.45 464.08 536.50 463.54
  Q 525.21 460.51 515.56 466.06
  Q 503.18 473.20 500.54 487.76
  Q 498.34 499.86 508.99 505.10
  A 1.03 0.95 -83.9 0 1 509.51 505.80
  Q 509.83 507.48 511.19 508.56
  Q 514.37 511.11 511.02 512.62
  A 0.70 0.65 -15.9 0 0 510.61 513.30
  Q 510.72 514.31 510.94 515.29
  Q 511.23 516.62 511.12 517.74
  Q 509.94 529.16 510.37 540.61
  Q 510.82 552.37 513.52 559.05
  Q 517.15 568.01 524.88 574.62
  Q 530.47 579.40 537.35 576.40
  Q 542.11 574.33 547.31 569.31
  Q 551.37 565.40 553.20 560.86
  Q 554.42 557.84 554.71 550.96
  Q 555.17 540.23 555.64 529.50
  Z
  M 439.04 568.75
  L 497.25 511.29
  L 502.39 506.48
  A 0.87 0.84 -36.1 0 0 502.57 505.45
  Q 501.66 503.80 500.51 502.34
  Q 498.96 500.37 498.44 499.29
  Q 496.46 495.15 496.75 491.50
  Q 497.95 476.61 508.70 467.01
  Q 510.29 465.60 508.27 466.24
  Q 496.43 470.01 484.29 472.44
  Q 478.66 473.57 464.60 475.97
  Q 411.47 485.04 357.50 482.30
  Q 342.55 481.54 327.99 478.12
  A 0.70 0.70 -67.0 0 0 327.23 478.43
  Q 324.71 482.46 321.23 485.73
  Q 314.04 492.50 308.23 500.47
  Q 285.72 531.35 270.41 566.36
  Q 267.80 572.32 266.76 578.75
  Q 266.11 582.73 269.06 584.69
  Q 272.01 586.64 275.77 586.80
  Q 278.34 586.91 280.09 587.50
  Q 284.69 589.02 289.47 589.63
  Q 293.51 590.14 298.98 590.80
  Q 312.84 592.48 324.90 585.95
  Q 329.67 583.36 333.31 579.06
  Q 336.97 574.74 339.44 569.94
  Q 344.68 559.75 349.25 547.25
  Q 353.07 536.81 360.34 513.05
  Q 360.61 512.16 361.00 511.69
  Q 362.09 510.38 362.82 512.04
  A 1.56 1.19 -55.7 0 1 362.87 512.99
  Q 359.93 523.88 356.36 534.57
  Q 352.21 546.97 350.16 552.44
  Q 346.89 561.16 342.63 569.81
  A 1.62 1.61 47.8 0 0 342.57 571.12
  Q 347.83 584.70 351.50 597.75
  Q 354.58 608.70 355.25 616.25
  Q 355.35 617.34 354.72 620.10
  Q 354.13 622.67 354.30 623.95
  Q 354.79 627.74 358.54 629.54
  A 0.94 0.85 -46.7 0 0 359.41 629.47
  Q 361.99 627.81 365.75 628.00
  Q 368.05 628.12 370.32 626.79
  Q 372.71 625.39 372.77 625.36
  Q 380.81 621.35 389.25 617.64
  Q 390.31 617.18 391.09 616.40
  L 439.04 568.75
  Z
  M 435.54 579.82
  L 400.85 614.02
  Q 399.63 615.22 401.34 615.14
  Q 404.89 614.96 409.44 615.56
  Q 411.64 615.85 422.06 618.96
  Q 426.68 620.34 429.02 620.71
  Q 433.34 621.38 436.25 620.75
  Q 444.30 619.00 454.46 613.94
  Q 459.42 611.47 462.97 610.44
  Q 468.64 608.79 472.00 608.50
  Q 490.44 606.90 506.75 601.50
  Q 509.05 600.74 510.92 598.64
  A 0.97 0.93 58.3 0 0 511.11 597.76
  Q 509.48 592.13 509.27 586.29
  Q 509.05 580.28 509.04 580.22
  Q 507.62 559.32 507.75 555.25
  Q 507.81 553.23 507.53 551.66
  Q 507.03 548.91 507.01 548.16
  Q 506.46 529.65 506.54 511.12
  Q 506.70 510.42 506.22 510.15
  A 0.80 0.58 -49.6 0 0 505.39 510.35
  Q 475.06 540.41 444.85 570.60
  Q 440.20 575.24 435.54 579.82
  Z
  M 340.16 574.34
  Q 336.82 579.48 332.74 583.90
  A 0.74 0.71 52.8 0 0 332.64 584.73
  L 350.90 619.25
  Q 351.74 620.83 352.02 619.07
  Q 352.53 615.90 351.95 613.01
  Q 347.98 593.26 340.80 574.41
  Q 340.55 573.75 340.16 574.34
  Z
  M 358.05 632.77
  Q 353.13 630.13 350.69 625.31
  Q 340.93 606.06 330.55 586.80
  A 0.52 0.51 58.8 0 0 329.82 586.62
  Q 315.43 595.92 299.24 594.06
  Q 290.50 593.05 281.80 591.64
  A 0.29 0.29 -5.3 0 0 281.48 592.02
  Q 288.26 610.69 298.85 627.36
  Q 304.47 636.19 307.64 639.76
  Q 312.91 645.66 319.81 649.19
  Q 328.18 653.46 331.74 661.40
  Q 333.46 665.22 334.63 666.56
  Q 339.47 672.11 347.03 673.59
  Q 352.58 674.67 359.50 673.50
  Q 367.20 672.20 372.18 667.18
  Q 376.73 662.58 378.94 657.19
  Q 384.46 643.70 374.53 633.22
  Q 371.84 630.38 368.04 631.49
  Q 367.58 631.62 367.09 631.60
  Q 361.86 631.37 358.95 632.77
  A 1.07 0.97 -42.4 0 1 358.05 632.77
  Z
  M 347.01 823.73
  Q 350.05 826.45 353.00 826.50
  Q 367.84 826.74 383.00 821.93
  A 1.95 1.95 -88.0 0 0 384.23 820.78
  Q 391.70 801.35 403.15 784.23
  A 0.38 0.37 -63.5 0 0 402.97 783.66
  Q 387.26 778.52 379.81 775.69
  Q 365.55 770.26 349.66 770.25
  A 1.35 1.35 12.2 0 0 348.43 771.04
  Q 341.63 786.17 333.46 800.49
  A 3.33 3.29 50.0 0 0 333.23 803.27
  Q 337.75 815.46 347.01 823.73
  Z
  M 469.73 840.69
  Q 478.08 841.78 485.19 839.69
  Q 491.38 837.87 500.55 831.30
  Q 509.41 824.94 515.10 814.30
  A 2.63 2.60 53.8 0 0 515.36 812.56
  Q 511.36 792.37 509.03 772.72
  A 0.69 0.69 -8.1 0 0 508.24 772.13
  Q 493.72 774.49 479.75 774.51
  Q 469.95 774.52 460.17 775.25
  Q 451.92 775.87 443.83 778.30
  A 0.83 0.82 -15.5 0 0 443.26 779.29
  Q 448.79 801.47 459.33 821.72
  Q 459.33 821.73 463.47 829.08
  Q 466.34 834.19 468.82 839.99
  A 1.17 1.16 82.2 0 0 469.73 840.69
  Z"
/>
<path fill="#e3000d" d="
  M 779.54 343.00
  Q 779.70 345.46 781.46 347.25
  Q 790.85 364.40 804.06 375.94
  Q 815.01 385.50 831.58 396.42
  Q 850.09 408.63 863.19 419.31
  Q 876.72 430.35 884.81 447.12
  Q 895.19 468.63 901.25 491.75
  Q 902.43 496.26 905.43 504.56
  Q 908.54 513.18 909.18 514.38
  Q 911.66 519.04 916.23 522.51
  A 0.94 0.94 -41.4 0 1 916.13 524.08
  Q 909.94 527.62 903.56 530.31
  Q 895.59 533.67 887.00 542.49
  Q 878.50 551.21 871.26 560.99
  Q 857.93 578.97 845.02 597.24
  Q 831.84 615.91 817.24 633.49
  Q 812.20 639.56 806.56 643.06
  Q 800.46 646.86 798.44 640.06
  Q 797.73 637.69 794.45 631.64
  Q 793.93 630.68 789.50 623.76
  Q 786.54 619.14 784.81 614.19
  Q 781.72 605.32 777.76 597.34
  Q 773.21 588.16 767.72 582.20
  Q 756.98 570.55 741.06 564.44
  Q 723.18 557.57 719.06 556.19
  Q 698.63 549.33 678.58 541.40
  Q 667.28 536.93 656.68 530.99
  Q 636.51 519.68 624.00 500.21
  Q 623.85 497.10 620.96 496.03
  Q 611.28 479.90 604.16 462.40
  Q 597.16 445.21 590.45 427.17
  A 0.76 0.75 54.9 0 1 590.58 426.41
  Q 591.84 424.85 593.35 423.36
  Q 673.90 343.53 754.46 263.92
  Q 755.27 263.12 755.50 264.23
  Q 761.06 291.22 769.25 317.50
  Q 772.51 327.97 779.54 343.00
  Z
  M 770.85 430.93
  Q 753.31 417.03 736.54 402.41
  Q 735.73 401.69 735.93 402.76
  L 743.91 445.35
  A 1.34 1.31 70.3 0 1 743.26 446.76
  Q 720.47 459.37 697.45 470.78
  Q 697.01 471.00 697.50 471.05
  L 751.71 476.32
  A 1.21 1.18 83.9 0 1 752.72 477.15
  Q 759.60 498.84 763.24 520.78
  Q 763.42 521.86 763.81 520.83
  Q 771.73 499.50 782.76 478.83
  A 0.97 0.97 -75.4 0 1 783.63 478.32
  L 831.87 478.75
  Q 833.36 478.77 832.08 478.00
  Q 812.63 466.29 795.80 451.93
  A 0.97 0.95 31.4 0 1 795.53 450.85
  Q 803.63 429.95 810.20 409.80
  Q 810.60 408.57 809.47 409.22
  L 771.69 431.01
  A 0.78 0.74 48.7 0 1 770.85 430.93
  Z"
/>
<path fill="#fca41e" d="
  M 300.50 459.24
  Q 283.32 443.35 275.49 421.25
  Q 270.49 407.15 268.88 392.26
  Q 266.82 373.14 272.11 354.71
  Q 278.76 331.51 293.31 312.31
  Q 295.01 310.07 298.96 306.92
  Q 301.52 304.88 305.45 302.63
  Q 315.62 296.80 322.19 292.69
  Q 332.91 285.97 344.02 282.32
  Q 369.00 274.11 395.26 272.33
  Q 428.60 270.08 460.00 275.50
  Q 475.06 278.10 490.15 285.13
  Q 511.63 295.14 529.06 311.20
  Q 537.98 319.42 543.56 330.19
  Q 557.75 357.57 557.66 388.01
  Q 557.62 400.88 556.66 407.98
  Q 555.10 419.52 549.46 429.61
  Q 544.67 438.21 537.53 445.60
  Q 528.73 454.73 517.25 459.75
  Q 510.35 462.77 499.44 465.51
  Q 472.74 472.23 445.44 475.62
  Q 435.55 476.86 425.56 477.85
  Q 391.10 481.30 358.00 479.25
  Q 352.66 478.92 345.47 477.93
  Q 336.08 476.63 333.04 476.01
  Q 314.58 472.25 300.50 459.24
  Z
  M 538.54 411.25
  Q 540.00 411.08 540.35 409.82
  Q 541.20 406.75 541.87 403.63
  Q 542.52 400.63 542.56 397.31
  Q 542.62 392.14 542.56 383.44
  Q 542.49 372.02 539.94 362.06
  Q 539.44 360.12 539.27 358.69
  Q 538.89 355.50 538.88 355.45
  Q 536.65 344.51 531.23 334.79
  Q 530.36 333.22 528.37 330.50
  Q 526.69 328.21 525.53 326.18
  Q 524.08 323.63 521.45 322.32
  Q 505.65 314.42 488.00 314.76
  Q 457.98 309.81 432.00 308.75
  Q 407.08 307.73 382.31 310.57
  Q 364.69 312.60 353.75 316.00
  Q 344.94 318.74 336.77 323.04
  Q 326.58 328.39 316.89 334.62
  Q 314.24 336.32 312.69 338.69
  Q 308.48 345.12 306.50 353.00
  Q 304.31 361.70 303.10 379.51
  Q 302.33 390.77 304.53 401.70
  Q 306.35 410.70 308.50 417.29
  Q 311.25 425.69 316.06 431.69
  Q 321.04 437.89 328.91 441.31
  Q 333.59 443.35 343.70 445.86
  Q 350.74 447.62 358.94 448.81
  Q 377.60 451.53 394.50 452.40
  Q 405.05 452.94 414.50 452.39
  Q 427.06 451.65 442.00 449.50
  Q 467.60 445.81 485.75 441.50
  Q 505.35 436.84 521.36 429.68
  Q 528.67 426.41 532.10 422.75
  Q 536.60 417.94 538.54 411.25
  Z"
/>
<path fill="#fca41e" d="
  M 528.25 280.54
  L 528.19 281.32
  A 0.61 0.54 8.7 0 0 528.68 281.91
  Q 540.32 284.37 542.75 285.75
  Q 545.65 287.40 548.56 289.04
  Q 549.86 289.77 550.91 291.05
  Q 551.91 292.27 553.01 293.41
  Q 554.79 295.26 555.77 297.16
  Q 557.97 301.38 560.26 305.55
  Q 560.46 305.93 560.46 306.50
  Q 560.45 307.06 560.65 307.58
  Q 563.43 314.78 562.96 322.28
  Q 562.63 327.54 561.68 332.72
  Q 560.72 337.87 558.27 342.78
  Q 555.98 347.34 554.31 342.52
  Q 551.12 333.34 545.52 323.99
  Q 541.35 317.03 536.27 311.53
  Q 531.51 306.38 525.06 300.69
  Q 520.10 296.31 514.76 295.72
  L 501.68 287.50
  A 0.34 0.33 42.4 0 1 501.65 286.95
  Q 508.74 281.67 515.00 280.50
  Q 519.44 279.67 528.25 280.54
  Z"
/>
<path fill="#e9a43e" d="
  M 528.25 280.54
  Q 531.73 280.75 538.56 282.69
  Q 544.86 284.47 549.51 287.83
  Q 553.70 290.87 557.38 296.66
  Q 568.72 314.49 563.18 335.55
  Q 562.03 339.93 560.22 343.21
  Q 558.21 346.87 555.41 349.96
  Q 554.95 350.46 554.77 349.81
  Q 551.94 340.07 547.54 331.01
  Q 542.45 320.52 534.25 312.25
  Q 525.26 303.17 514.76 295.72
  Q 520.10 296.31 525.06 300.69
  Q 531.51 306.38 536.27 311.53
  Q 541.35 317.03 545.52 323.99
  Q 551.12 333.34 554.31 342.52
  Q 555.98 347.34 558.27 342.78
  Q 560.72 337.87 561.68 332.72
  Q 562.63 327.54 562.96 322.28
  Q 563.43 314.78 560.65 307.58
  Q 560.45 307.06 560.46 306.50
  Q 560.46 305.93 560.26 305.55
  Q 557.97 301.38 555.77 297.16
  Q 554.79 295.26 553.01 293.41
  Q 551.91 292.27 550.91 291.05
  Q 549.86 289.77 548.56 289.04
  Q 545.65 287.40 542.75 285.75
  Q 540.32 284.37 528.68 281.91
  A 0.61 0.54 8.7 0 1 528.19 281.32
  L 528.25 280.54
  Z"
/>
<path fill="#fca41e" d="
  M 256.17 367.34
  Q 241.80 356.78 233.94 339.31
  Q 230.98 332.74 230.80 327.01
  Q 230.55 318.79 233.25 311.36
  Q 235.84 304.18 241.34 298.15
  Q 250.79 287.78 265.17 284.38
  Q 274.74 282.11 287.50 282.50
  Q 301.73 282.93 308.19 284.56
  Q 313.84 285.99 318.93 288.81
  Q 320.06 289.43 318.93 290.06
  Q 312.14 293.77 305.84 297.78
  Q 291.20 307.08 282.69 322.19
  Q 272.25 340.72 267.69 358.94
  Q 267.26 360.66 266.22 362.80
  Q 266.00 363.25 266.03 363.74
  Q 266.26 367.45 265.37 371.02
  A 0.49 0.49 -75.6 0 1 264.77 371.38
  Q 260.08 370.21 256.17 367.34
  Z"
/>
<path fill="#0a0100" d="
  M 488.00 314.76
  Q 502.35 317.36 510.25 319.75
  Q 521.90 323.27 528.73 334.44
  Q 533.20 341.74 535.56 349.98
  Q 541.68 371.43 540.75 393.75
  Q 540.31 404.28 538.54 411.25
  Q 536.60 417.94 532.10 422.75
  Q 528.67 426.41 521.36 429.68
  Q 505.35 436.84 485.75 441.50
  Q 467.60 445.81 442.00 449.50
  Q 427.06 451.65 414.50 452.39
  Q 405.05 452.94 394.50 452.40
  Q 377.60 451.53 358.94 448.81
  Q 350.74 447.62 343.70 445.86
  Q 333.59 443.35 328.91 441.31
  Q 321.04 437.89 316.06 431.69
  Q 311.25 425.69 308.50 417.29
  Q 306.35 410.70 304.53 401.70
  Q 302.33 390.77 303.10 379.51
  Q 304.31 361.70 306.50 353.00
  Q 308.48 345.12 312.69 338.69
  Q 314.24 336.32 316.89 334.62
  Q 326.58 328.39 336.77 323.04
  Q 344.94 318.74 353.75 316.00
  Q 364.69 312.60 382.31 310.57
  Q 407.08 307.73 432.00 308.75
  Q 457.98 309.81 488.00 314.76
  Z
  M 322.44 433.31
  Q 327.17 437.08 333.17 439.29
  Q 336.36 440.46 344.87 442.61
  Q 352.54 444.54 360.37 445.66
  Q 364.86 446.30 375.99 447.63
  Q 401.88 450.73 427.78 447.96
  Q 435.00 447.19 447.61 445.35
  Q 473.18 441.61 496.25 435.25
  Q 504.58 432.95 514.22 429.05
  Q 522.69 425.63 524.81 424.34
  Q 530.16 421.07 532.94 415.69
  Q 536.71 408.38 537.32 398.00
  Q 538.84 372.43 531.21 348.01
  Q 529.45 342.36 526.53 337.20
  Q 520.53 326.57 508.84 322.84
  Q 505.75 321.86 499.00 320.50
  Q 459.91 312.65 423.00 311.75
  Q 399.44 311.18 374.35 315.06
  Q 362.61 316.88 354.83 319.28
  Q 336.21 325.02 320.37 336.84
  Q 315.75 340.30 313.81 345.31
  Q 309.01 357.77 307.72 371.27
  Q 306.72 381.73 307.14 391.25
  Q 307.82 406.88 313.89 421.58
  Q 316.93 428.93 322.44 433.31
  Z"
/>
<path fill="#f5a52b" d="
  M 322.44 433.31
  Q 316.93 428.93 313.89 421.58
  Q 307.82 406.88 307.14 391.25
  Q 306.72 381.73 307.72 371.27
  Q 309.01 357.77 313.81 345.31
  Q 315.75 340.30 320.37 336.84
  Q 336.21 325.02 354.83 319.28
  Q 362.61 316.88 374.35 315.06
  Q 399.44 311.18 423.00 311.75
  Q 459.91 312.65 499.00 320.50
  Q 505.75 321.86 508.84 322.84
  Q 520.53 326.57 526.53 337.20
  Q 529.45 342.36 531.21 348.01
  Q 538.84 372.43 537.32 398.00
  Q 536.71 408.38 532.94 415.69
  Q 530.16 421.07 524.81 424.34
  Q 522.69 425.63 514.22 429.05
  Q 504.58 432.95 496.25 435.25
  Q 473.18 441.61 447.61 445.35
  Q 435.00 447.19 427.78 447.96
  Q 401.88 450.73 375.99 447.63
  Q 364.86 446.30 360.37 445.66
  Q 352.54 444.54 344.87 442.61
  Q 336.36 440.46 333.17 439.29
  Q 327.17 437.08 322.44 433.31
  Z
  M 331.02 428.96
  Q 335.33 432.51 341.44 434.56
  Q 350.29 437.53 357.71 438.94
  Q 389.93 445.02 422.51 443.02
  Q 430.49 442.54 441.92 440.91
  Q 451.59 439.52 461.25 438.00
  Q 485.65 434.15 508.89 425.81
  Q 516.29 423.15 519.94 420.94
  Q 527.36 416.42 529.91 407.18
  Q 531.63 400.95 532.00 394.50
  Q 533.33 371.35 525.75 349.50
  Q 521.29 336.64 510.90 330.29
  Q 507.76 328.37 503.19 326.98
  Q 499.16 325.75 495.01 324.96
  Q 469.09 319.97 442.75 318.25
  Q 419.43 316.73 398.70 318.30
  Q 385.99 319.26 378.81 320.32
  Q 351.66 324.33 328.74 339.75
  Q 325.14 342.17 323.15 345.15
  Q 319.34 350.86 318.00 357.50
  Q 315.96 367.63 315.17 378.54
  Q 314.52 387.49 315.82 395.40
  Q 317.27 404.25 320.06 412.81
  Q 323.21 422.51 331.02 428.96
  Z"
/>
<path fill="#e9a43e" d="
  M 538.54 411.25
  Q 540.31 404.28 540.75 393.75
  Q 541.68 371.43 535.56 349.98
  Q 533.20 341.74 528.73 334.44
  Q 521.90 323.27 510.25 319.75
  Q 502.35 317.36 488.00 314.76
  Q 505.65 314.42 521.45 322.32
  Q 524.08 323.63 525.53 326.18
  Q 526.69 328.21 528.37 330.50
  Q 530.36 333.22 531.23 334.79
  Q 536.65 344.51 538.88 355.45
  Q 538.89 355.50 539.27 358.69
  Q 539.44 360.12 539.94 362.06
  Q 542.49 372.02 542.56 383.44
  Q 542.62 392.14 542.56 397.31
  Q 542.52 400.63 541.87 403.63
  Q 541.20 406.75 540.35 409.82
  Q 540.00 411.08 538.54 411.25
  Z"
/>
<path fill="#000000" d="
  M 331.02 428.96
  Q 323.21 422.51 320.06 412.81
  Q 317.27 404.25 315.82 395.40
  Q 314.52 387.49 315.17 378.54
  Q 315.96 367.63 318.00 357.50
  Q 319.34 350.86 323.15 345.15
  Q 325.14 342.17 328.74 339.75
  Q 351.66 324.33 378.81 320.32
  Q 385.99 319.26 398.70 318.30
  Q 419.43 316.73 442.75 318.25
  Q 469.09 319.97 495.01 324.96
  Q 499.16 325.75 503.19 326.98
  Q 507.76 328.37 510.90 330.29
  Q 521.29 336.64 525.75 349.50
  Q 533.33 371.35 532.00 394.50
  Q 531.63 400.95 529.91 407.18
  Q 527.36 416.42 519.94 420.94
  Q 516.29 423.15 508.89 425.81
  Q 485.65 434.15 461.25 438.00
  Q 451.59 439.52 441.92 440.91
  Q 430.49 442.54 422.51 443.02
  Q 389.93 445.02 357.71 438.94
  Q 350.29 437.53 341.44 434.56
  Q 335.33 432.51 331.02 428.96
  Z
  M 458.71 363.00
  Q 454.84 366.66 452.69 372.69
  Q 449.57 381.43 448.75 388.46
  L 448.25 393.87
  A 0.35 0.33 -9.1 0 0 448.73 394.19
  Q 460.08 389.76 470.38 383.93
  Q 481.46 377.65 483.54 365.01
  Q 484.71 357.87 487.03 351.03
  A 0.37 0.36 9.7 0 0 486.68 350.55
  Q 469.74 350.31 458.71 363.00
  Z
  M 397.19 385.06
  Q 402.81 389.64 409.80 391.58
  Q 419.92 394.39 430.45 395.96
  A 0.71 0.70 -87.0 0 0 431.26 395.23
  Q 430.94 387.99 429.11 381.22
  Q 426.43 371.30 418.57 365.52
  Q 415.49 363.25 411.11 361.60
  Q 407.14 360.10 402.95 359.26
  Q 392.16 357.07 380.65 355.07
  A 0.36 0.35 85.0 0 0 380.26 355.54
  Q 383.93 365.58 388.96 375.05
  Q 392.07 380.89 397.19 385.06
  Z
  M 481.1774 405.7006
  A 4.28 4.02 -2.0 0 0 476.7597 401.8324
  A 4.28 4.02 -2.0 0 0 472.6226 405.9994
  A 4.28 4.02 -2.0 0 0 477.0403 409.8676
  A 4.28 4.02 -2.0 0 0 481.1774 405.7006
  Z
  M 395.2725 414.4885
  A 5.54 5.17 93.7 0 0 400.7892 409.2936
  A 5.54 5.17 93.7 0 0 395.9875 403.4315
  A 5.54 5.17 93.7 0 0 390.4708 408.6264
  A 5.54 5.17 93.7 0 0 395.2725 414.4885
  Z"
/>
<path fill="#84071a" d="
  M 779.54 343.00
  Q 781.23 344.78 781.46 347.25
  Q 779.70 345.46 779.54 343.00
  Z"
/>
<path fill="#fca41e" d="
  M 448.75 388.46
  Q 449.91 388.53 450.78 387.98
  A 1.06 0.85 79.6 0 0 451.21 387.18
  Q 451.90 374.81 459.21 364.89
  A 0.53 0.42 38.1 0 0 459.06 364.24
  Q 458.48 363.78 458.71 363.00
  Q 469.74 350.31 486.68 350.55
  A 0.37 0.36 9.7 0 1 487.03 351.03
  Q 484.71 357.87 483.54 365.01
  Q 481.46 377.65 470.38 383.93
  Q 460.08 389.76 448.73 394.19
  A 0.35 0.33 -9.1 0 1 448.25 393.87
  L 448.75 388.46
  Z"
/>
<path fill="#fca41e" d="
  M 397.19 385.06
  Q 392.07 380.89 388.96 375.05
  Q 383.93 365.58 380.26 355.54
  A 0.36 0.35 85.0 0 1 380.65 355.07
  Q 392.16 357.07 402.95 359.26
  Q 407.14 360.10 411.11 361.60
  Q 415.49 363.25 418.57 365.52
  Q 426.43 371.30 429.11 381.22
  Q 430.94 387.99 431.26 395.23
  A 0.71 0.70 -87.0 0 1 430.45 395.96
  Q 419.92 394.39 409.80 391.58
  Q 402.81 389.64 397.19 385.06
  Z"
/>
<path fill="#e9a43e" d="
  M 458.71 363.00
  Q 458.48 363.78 459.06 364.24
  A 0.53 0.42 38.1 0 1 459.21 364.89
  Q 451.90 374.81 451.21 387.18
  A 1.06 0.85 79.6 0 1 450.78 387.98
  Q 449.91 388.53 448.75 388.46
  Q 449.57 381.43 452.69 372.69
  Q 454.84 366.66 458.71 363.00
  Z"
/>
<ellipse fill="#f5a52b" cx="0.00" cy="0.00" transform="translate(476.90,405.85) rotate(-2.0)" rx="4.28" ry="4.02"/>
<path fill="#fca41e" d="
  M 771.69 431.01
  L 809.47 409.22
  Q 810.60 408.57 810.20 409.80
  Q 803.63 429.95 795.53 450.85
  A 0.97 0.95 31.4 0 0 795.80 451.93
  Q 812.63 466.29 832.08 478.00
  Q 833.36 478.77 831.87 478.75
  L 783.63 478.32
  A 0.97 0.97 -75.4 0 0 782.76 478.83
  Q 771.73 499.50 763.81 520.83
  Q 763.42 521.86 763.24 520.78
  Q 759.60 498.84 752.72 477.15
  A 1.21 1.18 83.9 0 0 751.71 476.32
  L 697.50 471.05
  Q 697.01 471.00 697.45 470.78
  Q 720.47 459.37 743.26 446.76
  A 1.34 1.31 70.3 0 0 743.91 445.35
  L 735.93 402.76
  Q 735.73 401.69 736.54 402.41
  Q 753.31 417.03 770.85 430.93
  A 0.78 0.74 48.7 0 0 771.69 431.01
  Z"
/>
<ellipse fill="#f5a52b" cx="0.00" cy="0.00" transform="translate(395.63,408.96) rotate(93.7)" rx="5.54" ry="5.17"/>
<path fill="#fca41e" d="
  M 536.50 463.54
  Q 534.99 465.16 537.56 465.94
  Q 547.68 468.98 547.27 479.75
  A 1.52 1.14 33.4 0 0 547.58 480.61
  Q 548.31 481.56 547.80 482.81
  Q 546.40 486.26 545.42 489.86
  Q 545.07 491.14 544.23 493.01
  Q 543.52 494.58 543.14 496.26
  Q 542.63 498.48 543.51 501.16
  Q 545.19 506.22 547.42 511.07
  Q 551.36 519.68 554.17 528.72
  A 0.97 0.53 78.1 0 0 554.75 529.40
  L 555.64 529.50
  Q 555.17 540.23 554.71 550.96
  Q 554.42 557.84 553.20 560.86
  Q 551.37 565.40 547.31 569.31
  Q 542.11 574.33 537.35 576.40
  Q 530.47 579.40 524.88 574.62
  Q 517.15 568.01 513.52 559.05
  Q 510.82 552.37 510.37 540.61
  Q 509.94 529.16 511.12 517.74
  Q 511.23 516.62 510.94 515.29
  Q 510.72 514.31 510.61 513.30
  A 0.70 0.65 -15.9 0 1 511.02 512.62
  Q 514.37 511.11 511.19 508.56
  Q 509.83 507.48 509.51 505.80
  A 1.03 0.95 -83.9 0 0 508.99 505.10
  Q 498.34 499.86 500.54 487.76
  Q 503.18 473.20 515.56 466.06
  Q 525.21 460.51 536.50 463.54
  Z"
/>
<path fill="#e9a43e" d="
  M 536.50 463.54
  Q 539.45 464.08 541.83 465.69
  Q 544.25 467.33 546.04 469.46
  Q 549.48 473.55 549.00 480.00
  Q 548.28 489.55 546.69 492.94
  Q 545.69 495.05 545.28 496.59
  Q 544.87 498.14 545.58 500.35
  Q 548.14 508.34 551.46 516.05
  Q 554.24 522.51 555.64 529.50
  L 554.75 529.40
  A 0.97 0.53 78.1 0 1 554.17 528.72
  Q 551.36 519.68 547.42 511.07
  Q 545.19 506.22 543.51 501.16
  Q 542.63 498.48 543.14 496.26
  Q 543.52 494.58 544.23 493.01
  Q 545.07 491.14 545.42 489.86
  Q 546.40 486.26 547.80 482.81
  Q 548.31 481.56 547.58 480.61
  A 1.52 1.14 33.4 0 1 547.27 479.75
  Q 547.68 468.98 537.56 465.94
  Q 534.99 465.16 536.50 463.54
  Z"
/>
<path fill="#e3000d" d="
  M 497.25 511.29
  L 472.74 515.42
  A 0.67 0.67 72.1 0 1 472.02 515.05
  L 457.72 486.68
  Q 457.21 485.67 456.97 486.77
  L 450.11 518.39
  A 1.21 1.19 1.0 0 1 449.14 519.31
  L 418.25 524.66
  Q 417.74 524.75 418.18 525.00
  L 444.82 540.01
  A 0.69 0.68 21.1 0 1 445.15 540.74
  L 439.04 568.75
  L 391.09 616.40
  Q 390.31 617.18 389.25 617.64
  Q 380.81 621.35 372.77 625.36
  Q 372.71 625.39 370.32 626.79
  Q 368.05 628.12 365.75 628.00
  Q 361.99 627.81 359.41 629.47
  A 0.94 0.85 -46.7 0 1 358.54 629.54
  Q 354.79 627.74 354.30 623.95
  Q 354.13 622.67 354.72 620.10
  Q 355.35 617.34 355.25 616.25
  Q 354.58 608.70 351.50 597.75
  Q 347.83 584.70 342.57 571.12
  A 1.62 1.61 47.8 0 1 342.63 569.81
  Q 346.89 561.16 350.16 552.44
  Q 352.21 546.97 356.36 534.57
  Q 359.93 523.88 362.87 512.99
  A 1.56 1.19 -55.7 0 0 362.82 512.04
  Q 362.09 510.38 361.00 511.69
  Q 360.61 512.16 360.34 513.05
  Q 353.07 536.81 349.25 547.25
  Q 344.68 559.75 339.44 569.94
  Q 336.97 574.74 333.31 579.06
  Q 329.67 583.36 324.90 585.95
  Q 312.84 592.48 298.98 590.80
  Q 293.51 590.14 289.47 589.63
  Q 284.69 589.02 280.09 587.50
  Q 278.34 586.91 275.77 586.80
  Q 272.01 586.64 269.06 584.69
  Q 266.11 582.73 266.76 578.75
  Q 267.80 572.32 270.41 566.36
  Q 285.72 531.35 308.23 500.47
  Q 314.04 492.50 321.23 485.73
  Q 324.71 482.46 327.23 478.43
  A 0.70 0.70 -67.0 0 1 327.99 478.12
  Q 342.55 481.54 357.50 482.30
  Q 411.47 485.04 464.60 475.97
  Q 478.66 473.57 484.29 472.44
  Q 496.43 470.01 508.27 466.24
  Q 510.29 465.60 508.70 467.01
  Q 497.95 476.61 496.75 491.50
  Q 496.46 495.15 498.44 499.29
  Q 498.96 500.37 500.51 502.34
  Q 501.66 503.80 502.57 505.45
  A 0.87 0.84 -36.1 0 1 502.39 506.48
  L 497.25 511.29
  Z"
/>
<path fill="#fca41e" d="
  M 497.25 511.29
  L 439.04 568.75
  L 445.15 540.74
  A 0.69 0.68 21.1 0 0 444.82 540.01
  L 418.18 525.00
  Q 417.74 524.75 418.25 524.66
  L 449.14 519.31
  A 1.21 1.19 1.0 0 0 450.11 518.39
  L 456.97 486.77
  Q 457.21 485.67 457.72 486.68
  L 472.02 515.05
  A 0.67 0.67 72.1 0 0 472.74 515.42
  L 497.25 511.29
  Z"
/>
<path fill="#84071a" d="
  M 624.00 500.21
  L 620.96 496.03
  Q 623.85 497.10 624.00 500.21
  Z"
/>
<path fill="#fca41e" d="
  M 506.54 511.12
  L 482.79 534.95
  A 1.12 1.08 54.5 0 0 482.60 536.22
  L 498.67 568.64
  Q 499.41 570.13 497.95 569.32
  L 467.23 552.24
  A 1.56 1.55 -53.2 0 0 465.37 552.51
  L 437.88 580.29
  A 2.30 2.29 -63.4 0 1 435.91 580.95
  Q 435.75 580.92 435.54 579.82
  Q 440.20 575.24 444.85 570.60
  Q 475.06 540.41 505.39 510.35
  A 0.80 0.58 -49.6 0 1 506.22 510.15
  Q 506.70 510.42 506.54 511.12
  Z"
/>
<path fill="#e3000d" d="
  M 506.54 511.12
  Q 506.46 529.65 507.01 548.16
  Q 507.03 548.91 507.53 551.66
  Q 507.81 553.23 507.75 555.25
  Q 507.62 559.32 509.04 580.22
  Q 509.05 580.28 509.27 586.29
  Q 509.48 592.13 511.11 597.76
  A 0.97 0.93 58.3 0 1 510.92 598.64
  Q 509.05 600.74 506.75 601.50
  Q 490.44 606.90 472.00 608.50
  Q 468.64 608.79 462.97 610.44
  Q 459.42 611.47 454.46 613.94
  Q 444.30 619.00 436.25 620.75
  Q 433.34 621.38 429.02 620.71
  Q 426.68 620.34 422.06 618.96
  Q 411.64 615.85 409.44 615.56
  Q 404.89 614.96 401.34 615.14
  Q 399.63 615.22 400.85 614.02
  L 435.54 579.82
  Q 435.75 580.92 435.91 580.95
  A 2.30 2.29 -63.4 0 0 437.88 580.29
  L 465.37 552.51
  A 1.56 1.55 -53.2 0 1 467.23 552.24
  L 497.95 569.32
  Q 499.41 570.13 498.67 568.64
  L 482.60 536.22
  A 1.12 1.08 54.5 0 1 482.79 534.95
  L 506.54 511.12
  Z"
/>
<path fill="#fee7d4" d="
  M 340.16 574.34
  Q 340.55 573.75 340.80 574.41
  Q 347.98 593.26 351.95 613.01
  Q 352.53 615.90 352.02 619.07
  Q 351.74 620.83 350.90 619.25
  L 332.64 584.73
  A 0.74 0.71 52.8 0 1 332.74 583.90
  Q 336.82 579.48 340.16 574.34
  Z"
/>
<path fill="#fca41e" d="
  M 358.95 632.77
  Q 361.86 631.37 367.09 631.60
  Q 367.58 631.62 368.04 631.49
  Q 371.84 630.38 374.53 633.22
  Q 384.46 643.70 378.94 657.19
  Q 376.73 662.58 372.18 667.18
  Q 367.20 672.20 359.50 673.50
  Q 352.58 674.67 347.03 673.59
  Q 339.47 672.11 334.63 666.56
  Q 333.46 665.22 331.74 661.40
  Q 328.18 653.46 319.81 649.19
  Q 312.91 645.66 307.64 639.76
  Q 304.47 636.19 298.85 627.36
  Q 288.26 610.69 281.48 592.02
  A 0.29 0.29 -5.3 0 1 281.80 591.64
  Q 290.50 593.05 299.24 594.06
  Q 315.43 595.92 329.82 586.62
  A 0.52 0.51 58.8 0 1 330.55 586.80
  Q 340.93 606.06 350.69 625.31
  Q 353.13 630.13 358.05 632.77
  A 1.07 0.97 -42.4 0 0 358.95 632.77
  Z"
/>
<path fill="#fa9d25" d="
  M 642.94 775.56
  Q 632.75 766.12 631.99 752.82
  Q 631.46 743.43 635.24 735.08
  Q 639.26 726.21 647.58 720.96
  Q 654.24 716.75 662.07 715.89
  Q 670.19 714.99 677.76 717.85
  Q 685.31 720.69 690.37 726.56
  Q 695.55 732.58 697.50 740.75
  A 1.02 1.01 -6.7 0 1 696.51 742.00
  L 684.67 742.00
  A 1.25 1.24 76.1 0 1 683.57 741.33
  Q 681.92 738.10 679.64 735.51
  Q 677.30 732.84 674.17 731.33
  Q 667.45 728.08 660.65 730.18
  Q 654.45 732.10 650.70 737.20
  Q 646.94 742.29 646.69 749.44
  Q 646.45 756.22 649.56 761.37
  Q 652.64 766.48 658.27 769.16
  Q 664.78 772.27 671.94 769.94
  Q 680.36 767.19 683.65 757.79
  A 0.72 0.71 -80.1 0 1 684.32 757.31
  L 697.10 757.25
  A 0.76 0.74 -83.2 0 1 697.82 758.18
  Q 694.35 773.33 682.46 780.04
  Q 673.64 785.02 663.24 784.41
  Q 651.76 783.74 642.94 775.56
  Z"
/>
<path fill="#fa9d25" d="
  M 774.7491 750.3162
  A 35.26 34.56 0.4 0 1 739.2487 784.6292
  A 35.26 34.56 0.4 0 1 704.2309 749.8238
  A 35.26 34.56 0.4 0 1 739.7313 715.5108
  A 35.26 34.56 0.4 0 1 774.7491 750.3162
  Z
  M 740.1565 770.9697
  A 20.90 20.54 88.2 0 0 760.0299 749.4348
  A 20.90 20.54 88.2 0 0 738.8435 729.1903
  A 20.90 20.54 88.2 0 0 718.9701 750.7252
  A 20.90 20.54 88.2 0 0 740.1565 770.9697
  Z"
/>
<path fill="#fa9d25" d="
  M 795.54 783.00
  L 802.75 769.71
  Q 808.33 770.31 813.70 769.31
  Q 819.71 768.19 823.42 764.92
  Q 829.35 759.68 829.52 750.75
  Q 829.76 738.05 819.99 732.84
  Q 816.22 730.83 810.68 730.43
  Q 806.01 730.10 800.93 730.51
  A 0.75 0.73 -2.6 0 0 800.25 731.24
  L 800.37 769.81
  L 793.50 783.04
  L 787.10 782.95
  A 1.12 1.12 0.5 0 1 786.00 781.83
  L 786.00 717.50
  A 0.50 0.50 0.0 0 1 786.50 717.00
  Q 794.92 717.00 803.34 717.00
  Q 815.30 717.00 820.08 718.15
  Q 836.70 722.15 842.69 739.31
  Q 844.83 745.46 844.24 752.65
  Q 843.69 759.39 840.72 765.33
  Q 832.72 781.33 813.00 782.75
  Q 806.40 783.22 795.54 783.00
  Z"
/>
<path fill="#fa9d25" d="
  M 870.56 769.46
  L 895.49 769.76
  A 0.58 0.49 0.1 0 1 896.06 770.24
  L 896.45 781.93
  A 1.09 1.02 -0.7 0 1 895.35 782.99
  L 856.44 782.82
  A 0.51 0.51 0.0 0 1 855.93 782.31
  L 855.75 717.88
  A 0.88 0.88 0.0 0 1 856.63 717.00
  L 895.00 717.00
  A 0.50 0.50 0.0 0 1 895.50 717.50
  L 895.50 729.59
  A 0.68 0.67 -0.0 0 1 894.82 730.26
  L 870.69 730.42
  A 0.54 0.52 -0.0 0 0 870.16 730.93
  L 870.02 742.34
  A 0.93 0.90 0.3 0 0 870.95 743.25
  L 892.43 743.31
  A 0.55 0.54 -0.0 0 1 892.98 743.85
  L 892.84 755.57
  A 0.53 0.52 -0.0 0 1 892.32 756.08
  L 870.82 756.31
  A 0.56 0.51 -0.1 0 0 870.27 756.81
  L 870.04 768.94
  A 0.53 0.51 1.1 0 0 870.56 769.46
  Z"
/>
<ellipse fill="#fee7d4" cx="0.00" cy="0.00" transform="translate(739.50,750.08) rotate(88.2)" rx="20.90" ry="20.54"/>
<path fill="#fee7d4" d="
  M 802.75 769.71
  L 810.26 755.68
  A 1.21 0.95 -46.2 0 0 810.35 754.76
  Q 809.92 753.71 809.10 754.47
  Q 808.78 754.77 808.40 755.47
  Q 804.55 762.62 800.37 769.81
  L 800.25 731.24
  A 0.75 0.73 -2.6 0 1 800.93 730.51
  Q 806.01 730.10 810.68 730.43
  Q 816.22 730.83 819.99 732.84
  Q 829.76 738.05 829.52 750.75
  Q 829.35 759.68 823.42 764.92
  Q 819.71 768.19 813.70 769.31
  Q 808.33 770.31 802.75 769.71
  Z"
/>
<path fill="#000000" d="
  M 802.75 769.71
  L 795.54 783.00
  Q 789.16 794.94 782.98 806.99
  Q 781.78 809.32 780.75 813.25
  Q 780.12 815.65 780.80 817.61
  Q 781.48 819.53 783.75 820.24
  Q 787.24 821.34 790.44 819.69
  Q 798.75 815.40 804.85 807.39
  Q 806.42 805.33 808.52 801.17
  Q 810.15 797.93 812.01 794.81
  Q 812.35 794.25 812.81 793.98
  Q 814.19 793.18 813.83 794.89
  Q 813.73 795.37 813.39 795.92
  Q 808.85 803.38 806.20 811.67
  Q 805.24 814.67 805.28 816.41
  Q 805.37 820.51 809.43 820.14
  Q 811.87 819.91 814.76 818.03
  Q 818.51 815.57 821.19 812.19
  Q 827.66 804.02 833.31 794.00
  A 1.45 1.11 -78.0 0 1 834.03 793.38
  Q 835.22 793.02 834.96 794.29
  Q 834.87 794.70 834.56 795.29
  Q 826.79 809.83 820.14 825.05
  Q 819.70 826.06 820.65 825.51
  Q 834.64 817.50 846.15 806.10
  A 0.73 0.67 -53.0 0 1 846.97 805.95
  Q 848.29 806.63 847.01 807.72
  Q 846.22 808.40 846.16 808.46
  Q 834.10 820.22 818.82 828.59
  A 1.58 1.56 -2.0 0 0 818.13 829.32
  Q 815.00 836.06 811.67 842.87
  Q 806.22 853.99 796.44 859.94
  Q 794.20 861.30 791.35 861.40
  Q 788.56 861.50 786.42 860.12
  Q 783.48 858.23 782.87 854.78
  Q 782.38 852.06 783.87 848.92
  Q 787.09 842.10 794.29 838.76
  Q 805.22 833.69 815.99 828.16
  A 3.34 3.31 -2.2 0 0 817.53 826.51
  Q 820.65 819.25 823.85 812.62
  Q 823.95 812.41 823.92 812.23
  Q 823.84 811.70 823.34 812.34
  Q 820.39 816.14 816.64 819.17
  Q 811.35 823.43 805.27 820.89
  A 1.42 1.40 -1.7 0 1 804.58 820.25
  Q 802.38 815.98 804.35 811.63
  Q 805.26 809.62 803.82 811.30
  Q 798.75 817.22 791.93 820.93
  Q 788.69 822.69 785.28 822.40
  Q 781.58 822.09 779.68 819.44
  Q 777.48 816.36 779.17 811.98
  Q 779.67 810.70 778.70 811.67
  Q 772.49 817.92 764.67 821.06
  Q 757.50 823.94 750.81 821.19
  Q 745.89 819.16 745.09 813.76
  Q 745.01 813.20 745.08 812.25
  Q 745.34 808.92 743.06 811.81
  Q 739.14 816.80 732.59 820.44
  Q 729.46 822.18 727.56 822.28
  Q 724.01 822.48 722.75 818.50
  Q 721.78 815.42 723.45 811.37
  Q 725.53 806.33 727.94 801.44
  Q 730.90 795.46 725.96 795.30
  Q 723.86 795.24 721.20 796.37
  Q 716.23 798.47 712.69 802.19
  Q 704.72 810.54 698.23 821.45
  Q 697.90 822.00 697.46 822.26
  Q 696.13 823.06 696.38 821.52
  Q 696.46 821.06 696.77 820.56
  Q 699.83 815.65 702.74 810.67
  Q 705.45 806.04 707.25 799.50
  Q 708.24 795.91 705.82 795.37
  Q 704.52 795.08 702.42 795.91
  Q 696.08 798.43 691.06 803.81
  Q 682.44 813.07 676.27 822.19
  Q 675.90 822.75 675.44 823.00
  Q 674.01 823.79 674.41 822.10
  Q 674.52 821.65 674.83 821.07
  Q 681.85 808.05 689.16 795.18
  Q 689.47 794.63 689.92 794.41
  Q 691.14 793.81 690.88 795.23
  Q 690.79 795.67 690.50 796.21
  Q 687.05 802.52 683.64 808.86
  Q 682.84 810.37 683.81 809.09
  Q 689.87 801.14 698.32 795.83
  Q 700.98 794.16 704.09 793.81
  Q 710.07 793.13 709.25 799.25
  Q 709.04 800.83 707.73 804.48
  Q 707.57 804.93 707.91 804.58
  Q 712.75 799.56 716.69 796.69
  Q 722.12 792.72 727.75 793.75
  Q 730.60 794.27 730.86 796.82
  Q 731.01 798.21 730.09 800.57
  Q 728.55 804.53 725.56 810.31
  Q 724.26 812.83 724.38 816.75
  Q 724.50 821.07 728.75 820.25
  Q 732.02 819.62 736.07 816.08
  Q 740.28 812.42 743.97 808.24
  Q 745.21 806.84 747.25 803.21
  Q 750.12 798.11 755.14 795.29
  Q 758.74 793.26 761.80 794.01
  Q 766.36 795.12 765.75 801.25
  Q 765.53 803.44 762.93 806.43
  Q 757.17 813.07 749.52 816.96
  Q 748.22 817.62 749.47 818.38
  Q 752.68 820.35 756.23 820.74
  Q 759.46 821.10 763.12 819.78
  Q 769.06 817.65 774.81 812.56
  Q 780.42 807.60 782.51 803.79
  Q 788.15 793.49 793.50 783.04
  L 800.37 769.81
  Q 804.55 762.62 808.40 755.47
  Q 808.78 754.77 809.10 754.47
  Q 809.92 753.71 810.35 754.76
  A 1.21 0.95 -46.2 0 1 810.26 755.68
  L 802.75 769.71
  Z
  M 759.76 795.62
  Q 756.98 795.56 754.56 797.56
  Q 749.18 802.04 747.20 808.49
  Q 746.13 812.00 747.17 815.24
  A 0.64 0.64 67.7 0 0 748.07 815.62
  Q 752.31 813.48 755.84 810.70
  Q 759.00 808.20 760.24 806.89
  Q 762.19 804.82 763.50 802.00
  Q 764.81 799.16 763.41 797.30
  Q 762.19 795.68 759.76 795.62
  Z
  M 789.34 859.41
  Q 791.54 860.06 793.69 859.19
  Q 800.51 856.41 805.10 849.63
  Q 811.09 840.77 815.49 831.01
  Q 815.69 830.56 815.24 830.77
  Q 798.08 838.90 793.56 841.31
  Q 788.52 844.01 785.72 848.95
  Q 783.06 853.68 785.92 857.12
  Q 787.33 858.81 789.34 859.41
  Z"
/>
<path fill="#fca41e" d="
  M 347.01 823.73
  Q 337.75 815.46 333.23 803.27
  A 3.33 3.29 50.0 0 1 333.46 800.49
  Q 341.63 786.17 348.43 771.04
  A 1.35 1.35 12.2 0 1 349.66 770.25
  Q 365.55 770.26 379.81 775.69
  Q 387.26 778.52 402.97 783.66
  A 0.38 0.37 -63.5 0 1 403.15 784.23
  Q 391.70 801.35 384.23 820.78
  A 1.95 1.95 -88.0 0 1 383.00 821.93
  Q 367.84 826.74 353.00 826.50
  Q 350.05 826.45 347.01 823.73
  Z"
/>
<path fill="#fca41e" d="
  M 469.73 840.69
  A 1.17 1.16 82.2 0 1 468.82 839.99
  Q 466.34 834.19 463.47 829.08
  Q 459.33 821.73 459.33 821.72
  Q 448.79 801.47 443.26 779.29
  A 0.83 0.82 -15.5 0 1 443.83 778.30
  Q 451.92 775.87 460.17 775.25
  Q 469.95 774.52 479.75 774.51
  Q 493.72 774.49 508.24 772.13
  A 0.69 0.69 -8.1 0 1 509.03 772.72
  Q 511.36 792.37 515.36 812.56
  A 2.63 2.60 53.8 0 1 515.10 814.30
  Q 509.41 824.94 500.55 831.30
  Q 491.38 837.87 485.19 839.69
  Q 478.08 841.78 469.73 840.69
  Z"
/>
<path fill="#fee7d7" d="
  M 763.41 797.30
  Q 764.81 799.16 763.50 802.00
  Q 762.19 804.82 760.24 806.89
  Q 759.00 808.20 755.84 810.70
  Q 752.31 813.48 748.07 815.62
  A 0.64 0.64 67.7 0 1 747.17 815.24
  Q 746.13 812.00 747.20 808.49
  Q 749.18 802.04 754.56 797.56
  Q 756.98 795.56 759.76 795.62
  Q 762.19 795.68 763.41 797.30
  Z"
/>
<path fill="#fee7d7" d="
  M 785.92 857.12
  Q 783.06 853.68 785.72 848.95
  Q 788.52 844.01 793.56 841.31
  Q 798.08 838.90 815.24 830.77
  Q 815.69 830.56 815.49 831.01
  Q 811.09 840.77 805.10 849.63
  Q 800.51 856.41 793.69 859.19
  Q 791.54 860.06 789.34 859.41
  Q 787.33 858.81 785.92 857.12
  Z"
/>
</svg>
