<?xml version="1.0" encoding="UTF-8" standalone="no"?>
<!DOCTYPE svg PUBLIC "-//W3C//DTD SVG 1.1//EN" "http://www.w3.org/Graphics/SVG/1.1/DTD/svg11.dtd">
<svg xmlns="http://www.w3.org/2000/svg" version="1.1" viewBox="0 0 2020 671" width="2020" height="671">
<g stroke-width="2.00" fill="none" stroke-linecap="butt">
<path stroke="#a3e2fd" vector-effect="non-scaling-stroke" d="
  M 199.53 90.27
  Q 177.19 111.68 181.81 142.94
  Q 183.87 156.85 192.64 167.99
  Q 194.51 170.37 206.50 182.40
  Q 245.13 221.15 284.00 259.68
  Q 291.44 267.05 296.49 270.15
  Q 305.93 275.94 316.82 277.95
  Q 326.64 279.77 336.68 278.02
  Q 352.10 275.32 364.09 265.48
  Q 371.89 259.08 377.16 250.46
  Q 387.12 234.18 385.25 214.75
  Q 383.58 197.40 372.68 183.95
  Q 371.00 181.88 358.74 169.62
  Q 324.63 135.50 290.51 101.38
  Q 278.44 89.31 276.14 87.48
  Q 267.21 80.35 255.98 76.80
  Q 246.61 73.83 236.00 74.50
  Q 214.59 75.85 199.53 90.27"
/>
<path stroke="#80abcf" vector-effect="non-scaling-stroke" d="
  M 155.46 176.35
  Q 141.49 167.93 124.26 169.10
  Q 105.58 170.35 91.73 182.74
  Q 79.00 194.12 74.77 209.92
  Q 72.15 219.68 73.22 229.74
  Q 74.38 240.72 79.68 250.42
  Q 82.65 255.85 89.10 262.56
  Q 93.53 267.16 99.94 273.56
  Q 208.78 382.40 317.62 491.25
  Q 329.30 502.92 332.06 505.06
  Q 344.57 514.75 360.51 516.16
  Q 370.69 517.06 380.31 514.34
  Q 395.17 510.15 405.81 498.56
  Q 417.15 486.22 419.70 470.03
  Q 421.29 459.94 419.30 450.13
  Q 416.88 438.19 409.48 428.64
  Q 407.66 426.29 395.62 414.23
  Q 282.33 300.78 168.76 187.61
  Q 160.54 179.42 155.46 176.35"
/>
<path stroke="#808080" vector-effect="non-scaling-stroke" d="
  M 575.47 323.03
  Q 583.84 331.10 594.34 336.13
  Q 601.94 339.78 609.94 342.29
  Q 616.55 344.36 626.25 345.94
  Q 637.94 347.84 649.73 349.00
  Q 661.67 350.19 666.69 351.19
  Q 675.08 352.87 683.25 355.51
  Q 689.14 357.41 694.51 360.48
  Q 703.18 365.43 706.96 374.65
  Q 709.73 381.42 710.00 389.75
  Q 710.52 405.61 701.99 417.14
  Q 696.48 424.58 686.97 430.11
  Q 676.34 436.29 663.76 438.05
  Q 655.99 439.14 646.25 439.25
  Q 626.26 439.48 609.82 429.95
  Q 602.54 425.73 597.73 420.26
  Q 592.54 414.36 589.37 406.95
  Q 585.46 397.82 583.95 387.64
  A 0.76 0.75 85.5 0 0 583.21 387.00
  L 543.98 387.00
  A 0.87 0.86 -3.5 0 0 543.12 387.97
  Q 545.12 405.07 551.31 420.48
  Q 565.06 454.70 597.26 469.72
  Q 605.69 473.65 616.10 476.26
  Q 650.28 484.81 684.16 475.24
  Q 694.50 472.32 702.78 468.03
  Q 728.17 454.91 741.29 429.53
  Q 746.17 420.08 748.30 410.86
  Q 751.11 398.68 750.25 385.00
  Q 747.94 348.30 720.40 328.63
  Q 713.20 323.48 702.84 319.15
  Q 688.48 313.15 673.75 310.50
  Q 660.74 308.16 644.92 306.50
  Q 633.58 305.31 629.65 304.53
  Q 621.55 302.93 614.81 300.19
  Q 603.91 295.76 598.45 286.20
  Q 594.16 278.69 593.41 267.16
  Q 592.76 256.97 595.19 247.19
  Q 600.34 226.47 620.80 219.65
  Q 630.33 216.47 643.75 216.00
  Q 659.37 215.46 671.43 218.98
  Q 695.78 226.09 704.45 249.93
  Q 707.54 258.43 708.59 267.70
  A 0.91 0.90 -3.2 0 0 709.49 268.50
  L 749.04 268.50
  A 0.60 0.60 -3.7 0 0 749.64 267.82
  Q 747.74 252.07 742.15 237.16
  Q 738.47 227.33 733.56 219.15
  Q 713.83 186.27 676.25 177.42
  Q 667.16 175.28 656.47 174.65
  Q 641.22 173.76 625.99 175.94
  Q 603.88 179.09 586.43 191.85
  Q 578.17 197.89 571.89 205.52
  Q 559.10 221.09 555.08 241.52
  Q 551.07 261.90 554.94 283.81
  Q 559.07 307.22 575.47 323.03"
/>
<path stroke="#808080" vector-effect="non-scaling-stroke" d="
  M 859.81 249.68
  L 859.75 175.76
  A 0.51 0.51 0.0 0 0 859.24 175.25
  L 821.77 175.25
  A 0.71 0.70 -0.0 0 0 821.06 175.95
  L 821.07 249.73
  A 0.52 0.52 0.1 0 1 820.55 250.25
  L 787.55 250.25
  A 0.55 0.55 90.0 0 0 787.00 250.80
  L 787.06 290.70
  A 0.50 0.49 0.6 0 0 787.55 291.19
  L 820.57 291.43
  A 0.51 0.49 90.0 0 1 821.06 291.94
  L 821.00 476.86
  A 0.64 0.64 0.0 0 0 821.64 477.50
  L 859.19 477.50
  A 0.56 0.56 90.0 0 0 859.75 476.94
  L 859.75 291.77
  A 0.52 0.52 0.0 0 1 860.27 291.25
  L 893.24 291.25
  A 0.51 0.51 0.0 0 0 893.75 290.74
  L 893.69 250.82
  A 0.51 0.51 0.0 0 0 893.18 250.31
  L 860.31 250.19
  A 0.51 0.50 90.0 0 1 859.81 249.68"
/>
<path stroke="#808080" vector-effect="non-scaling-stroke" d="
  M 1838.06 366.23
  A 0.60 0.59 -44.7 0 1 1839.08 366.23
  L 1906.05 477.01
  A 0.89 0.89 74.3 0 0 1906.81 477.44
  L 1953.18 477.50
  Q 1954.05 477.50 1953.60 476.75
  L 1862.79 326.91
  A 1.76 1.76 -0.0 0 1 1862.79 325.09
  L 1953.56 175.99
  Q 1953.98 175.31 1953.18 175.31
  L 1907.32 175.25
  A 0.91 0.89 15.0 0 0 1906.54 175.69
  L 1838.86 286.97
  A 0.34 0.34 0.0 0 1 1838.28 286.97
  L 1770.80 176.01
  A 1.58 1.58 -15.6 0 0 1769.45 175.25
  L 1724.05 175.25
  Q 1723.09 175.25 1723.59 176.07
  L 1814.56 325.84
  A 1.27 1.27 -90.0 0 1 1814.56 327.16
  L 1723.50 476.82
  Q 1723.13 477.44 1723.85 477.44
  L 1769.78 477.50
  A 0.91 0.89 15.0 0 0 1770.56 477.06
  L 1838.06 366.23"
/>
<path stroke="#808080" vector-effect="non-scaling-stroke" d="
  M 1291.53 289.71
  Q 1297.29 290.94 1302.77 293.53
  A 1.14 1.14 -47.0 0 0 1303.85 293.49
  L 1340.67 271.75
  A 0.35 0.35 49.0 0 0 1340.71 271.17
  Q 1332.80 264.86 1324.22 259.81
  Q 1314.90 254.33 1306.02 251.75
  Q 1284.79 245.59 1263.34 251.06
  Q 1253.50 253.57 1244.85 258.52
  Q 1229.29 267.42 1218.58 282.32
  Q 1204.90 301.35 1202.75 323.00
  Q 1201.72 333.43 1202.12 349.41
  Q 1202.22 353.18 1202.10 357.59
  Q 1201.99 361.67 1202.02 365.75
  Q 1202.50 419.55 1202.07 473.34
  Q 1202.07 473.38 1202.23 475.02
  Q 1202.31 475.83 1202.16 476.92
  A 0.52 0.51 -86.5 0 0 1202.67 477.50
  L 1240.57 477.44
  A 0.69 0.68 90.0 0 0 1241.25 476.75
  Q 1241.25 410.38 1241.08 345.00
  Q 1241.05 334.74 1241.50 329.00
  Q 1242.59 314.99 1251.94 303.72
  Q 1263.04 290.34 1279.78 288.94
  Q 1285.66 288.45 1291.53 289.71"
/>
<path stroke="#808080" vector-effect="non-scaling-stroke" d="
  M 969.26 449.98
  Q 1002.31 479.67 1046.01 479.64
  Q 1055.99 479.63 1065.90 477.78
  Q 1104.17 470.64 1130.52 442.38
  Q 1137.36 435.05 1142.79 426.63
  Q 1166.31 390.19 1159.75 346.50
  Q 1155.17 315.96 1135.51 291.59
  Q 1129.14 283.69 1121.67 277.21
  Q 1107.23 264.67 1089.69 257.56
  Q 1062.31 246.47 1032.96 249.43
  Q 1023.19 250.41 1013.42 253.43
  Q 966.55 267.90 943.68 311.07
  Q 938.87 320.15 935.84 329.44
  Q 928.43 352.16 930.75 375.00
  Q 935.26 419.43 969.26 449.98"
/>
<path stroke="#808080" vector-effect="non-scaling-stroke" d="
  M 1423.06 271.86
  L 1423.00 256.00
  A 0.50 0.50 0.0 0 0 1422.50 255.50
  L 1382.62 255.50
  A 0.37 0.37 -90.0 0 0 1382.25 255.87
  L 1382.25 476.95
  A 0.55 0.55 -90.0 0 0 1382.80 477.50
  L 1422.43 477.44
  A 0.51 0.50 -0.0 0 0 1422.94 476.94
  Q 1423.05 411.85 1422.84 346.75
  Q 1422.81 337.48 1423.25 331.75
  Q 1423.91 323.12 1427.90 315.58
  Q 1431.59 308.64 1438.18 302.74
  Q 1453.84 288.72 1475.21 292.08
  Q 1482.93 293.29 1489.83 296.86
  Q 1497.32 300.75 1502.31 306.19
  Q 1512.46 317.25 1512.47 334.00
  Q 1512.50 405.00 1512.50 476.63
  A 0.87 0.87 89.9 0 0 1513.37 477.50
  L 1553.48 477.50
  A 0.52 0.52 0.0 0 0 1554.00 476.98
  Q 1554.00 411.13 1553.83 345.75
  Q 1553.81 335.87 1554.25 330.00
  Q 1555.16 317.92 1563.36 308.34
  Q 1574.20 295.68 1589.72 292.40
  Q 1598.81 290.48 1607.44 292.09
  Q 1616.44 293.77 1624.19 299.06
  Q 1640.20 310.01 1642.96 328.02
  Q 1643.50 331.52 1643.50 347.99
  Q 1643.50 412.27 1643.50 476.82
  A 0.68 0.67 90.0 0 0 1644.17 477.50
  L 1683.93 477.44
  A 0.51 0.50 -0.0 0 0 1684.44 476.94
  Q 1684.54 413.99 1684.50 351.04
  Q 1684.50 351.00 1684.57 342.45
  Q 1684.65 331.72 1683.75 324.50
  Q 1681.31 305.01 1670.37 288.37
  Q 1664.86 279.99 1657.52 273.09
  Q 1637.32 254.13 1609.48 250.90
  Q 1599.51 249.74 1589.52 250.82
  Q 1556.75 254.37 1533.69 279.73
  A 0.77 0.77 -45.2 0 1 1532.55 279.73
  Q 1509.22 254.13 1476.23 250.76
  Q 1465.54 249.67 1456.39 251.84
  Q 1437.06 256.44 1423.49 272.01
  Q 1423.06 272.50 1423.06 271.86"
/>
<path stroke="#a3e2fd" vector-effect="non-scaling-stroke" d="
  M 212.60 429.00
  Q 196.13 412.09 190.56 407.44
  Q 174.97 394.42 155.48 393.63
  Q 145.31 393.22 135.75 396.19
  Q 120.19 401.02 109.06 413.81
  Q 93.01 432.27 94.75 457.00
  Q 95.68 470.17 102.64 481.81
  Q 105.54 486.64 112.00 493.24
  Q 149.94 531.98 188.55 570.04
  Q 200.88 582.19 203.01 583.86
  Q 211.10 590.20 220.98 593.28
  Q 230.00 596.10 238.57 596.26
  Q 247.53 596.44 256.44 593.44
  Q 271.70 588.30 282.07 576.58
  Q 296.09 560.76 297.04 540.49
  Q 297.52 530.34 294.73 520.71
  Q 291.21 508.58 283.06 499.69
  Q 272.74 488.42 226.70 443.20
  Q 220.37 436.97 212.60 429.00"
/>
<path stroke="#808080" vector-effect="non-scaling-stroke" d="
  M 996.40 420.60
  Q 1020.39 442.33 1053.04 439.13
  Q 1075.96 436.88 1092.31 423.06
  Q 1110.46 407.73 1117.21 384.73
  Q 1120.07 375.01 1120.04 365.02
  Q 1119.97 344.06 1109.52 326.08
  Q 1104.37 317.22 1097.37 310.27
  Q 1080.39 293.43 1055.49 290.08
  Q 1026.04 286.11 1003.06 302.56
  Q 979.36 319.53 972.75 347.66
  Q 970.44 357.48 970.91 367.50
  Q 972.38 398.85 996.40 420.60"
/>
</g>
<path fill="#ffffff" d="
  M 0.00 0.00
  L 2020.00 0.00
  L 2020.00 671.00
  L 0.00 671.00
  L 0.00 0.00
  Z
  M 199.53 90.27
  Q 177.19 111.68 181.81 142.94
  Q 183.87 156.85 192.64 167.99
  Q 194.51 170.37 206.50 182.40
  Q 245.13 221.15 284.00 259.68
  Q 291.44 267.05 296.49 270.15
  Q 305.93 275.94 316.82 277.95
  Q 326.64 279.77 336.68 278.02
  Q 352.10 275.32 364.09 265.48
  Q 371.89 259.08 377.16 250.46
  Q 387.12 234.18 385.25 214.75
  Q 383.58 197.40 372.68 183.95
  Q 371.00 181.88 358.74 169.62
  Q 324.63 135.50 290.51 101.38
  Q 278.44 89.31 276.14 87.48
  Q 267.21 80.35 255.98 76.80
  Q 246.61 73.83 236.00 74.50
  Q 214.59 75.85 199.53 90.27
  Z
  M 155.46 176.35
  Q 141.49 167.93 124.26 169.10
  Q 105.58 170.35 91.73 182.74
  Q 79.00 194.12 74.77 209.92
  Q 72.15 219.68 73.22 229.74
  Q 74.38 240.72 79.68 250.42
  Q 82.65 255.85 89.10 262.56
  Q 93.53 267.16 99.94 273.56
  Q 208.78 382.40 317.62 491.25
  Q 329.30 502.92 332.06 505.06
  Q 344.57 514.75 360.51 516.16
  Q 370.69 517.06 380.31 514.34
  Q 395.17 510.15 405.81 498.56
  Q 417.15 486.22 419.70 470.03
  Q 421.29 459.94 419.30 450.13
  Q 416.88 438.19 409.48 428.64
  Q 407.66 426.29 395.62 414.23
  Q 282.33 300.78 168.76 187.61
  Q 160.54 179.42 155.46 176.35
  Z
  M 575.47 323.03
  Q 583.84 331.10 594.34 336.13
  Q 601.94 339.78 609.94 342.29
  Q 616.55 344.36 626.25 345.94
  Q 637.94 347.84 649.73 349.00
  Q 661.67 350.19 666.69 351.19
  Q 675.08 352.87 683.25 355.51
  Q 689.14 357.41 694.51 360.48
  Q 703.18 365.43 706.96 374.65
  Q 709.73 381.42 710.00 389.75
  Q 710.52 405.61 701.99 417.14
  Q 696.48 424.58 686.97 430.11
  Q 676.34 436.29 663.76 438.05
  Q 655.99 439.14 646.25 439.25
  Q 626.26 439.48 609.82 429.95
  Q 602.54 425.73 597.73 420.26
  Q 592.54 414.36 589.37 406.95
  Q 585.46 397.82 583.95 387.64
  A 0.76 0.75 85.5 0 0 583.21 387.00
  L 543.98 387.00
  A 0.87 0.86 -3.5 0 0 543.12 387.97
  Q 545.12 405.07 551.31 420.48
  Q 565.06 454.70 597.26 469.72
  Q 605.69 473.65 616.10 476.26
  Q 650.28 484.81 684.16 475.24
  Q 694.50 472.32 702.78 468.03
  Q 728.17 454.91 741.29 429.53
  Q 746.17 420.08 748.30 410.86
  Q 751.11 398.68 750.25 385.00
  Q 747.94 348.30 720.40 328.63
  Q 713.20 323.48 702.84 319.15
  Q 688.48 313.15 673.75 310.50
  Q 660.74 308.16 644.92 306.50
  Q 633.58 305.31 629.65 304.53
  Q 621.55 302.93 614.81 300.19
  Q 603.91 295.76 598.45 286.20
  Q 594.16 278.69 593.41 267.16
  Q 592.76 256.97 595.19 247.19
  Q 600.34 226.47 620.80 219.65
  Q 630.33 216.47 643.75 216.00
  Q 659.37 215.46 671.43 218.98
  Q 695.78 226.09 704.45 249.93
  Q 707.54 258.43 708.59 267.70
  A 0.91 0.90 -3.2 0 0 709.49 268.50
  L 749.04 268.50
  A 0.60 0.60 -3.7 0 0 749.64 267.82
  Q 747.74 252.07 742.15 237.16
  Q 738.47 227.33 733.56 219.15
  Q 713.83 186.27 676.25 177.42
  Q 667.16 175.28 656.47 174.65
  Q 641.22 173.76 625.99 175.94
  Q 603.88 179.09 586.43 191.85
  Q 578.17 197.89 571.89 205.52
  Q 559.10 221.09 555.08 241.52
  Q 551.07 261.90 554.94 283.81
  Q 559.07 307.22 575.47 323.03
  Z
  M 859.81 249.68
  L 859.75 175.76
  A 0.51 0.51 0.0 0 0 859.24 175.25
  L 821.77 175.25
  A 0.71 0.70 -0.0 0 0 821.06 175.95
  L 821.07 249.73
  A 0.52 0.52 0.1 0 1 820.55 250.25
  L 787.55 250.25
  A 0.55 0.55 90.0 0 0 787.00 250.80
  L 787.06 290.70
  A 0.50 0.49 0.6 0 0 787.55 291.19
  L 820.57 291.43
  A 0.51 0.49 90.0 0 1 821.06 291.94
  L 821.00 476.86
  A 0.64 0.64 0.0 0 0 821.64 477.50
  L 859.19 477.50
  A 0.56 0.56 90.0 0 0 859.75 476.94
  L 859.75 291.77
  A 0.52 0.52 0.0 0 1 860.27 291.25
  L 893.24 291.25
  A 0.51 0.51 0.0 0 0 893.75 290.74
  L 893.69 250.82
  A 0.51 0.51 0.0 0 0 893.18 250.31
  L 860.31 250.19
  A 0.51 0.50 90.0 0 1 859.81 249.68
  Z
  M 1838.06 366.23
  A 0.60 0.59 -44.7 0 1 1839.08 366.23
  L 1906.05 477.01
  A 0.89 0.89 74.3 0 0 1906.81 477.44
  L 1953.18 477.50
  Q 1954.05 477.50 1953.60 476.75
  L 1862.79 326.91
  A 1.76 1.76 -0.0 0 1 1862.79 325.09
  L 1953.56 175.99
  Q 1953.98 175.31 1953.18 175.31
  L 1907.32 175.25
  A 0.91 0.89 15.0 0 0 1906.54 175.69
  L 1838.86 286.97
  A 0.34 0.34 0.0 0 1 1838.28 286.97
  L 1770.80 176.01
  A 1.58 1.58 -15.6 0 0 1769.45 175.25
  L 1724.05 175.25
  Q 1723.09 175.25 1723.59 176.07
  L 1814.56 325.84
  A 1.27 1.27 -90.0 0 1 1814.56 327.16
  L 1723.50 476.82
  Q 1723.13 477.44 1723.85 477.44
  L 1769.78 477.50
  A 0.91 0.89 15.0 0 0 1770.56 477.06
  L 1838.06 366.23
  Z
  M 1291.53 289.71
  Q 1297.29 290.94 1302.77 293.53
  A 1.14 1.14 -47.0 0 0 1303.85 293.49
  L 1340.67 271.75
  A 0.35 0.35 49.0 0 0 1340.71 271.17
  Q 1332.80 264.86 1324.22 259.81
  Q 1314.90 254.33 1306.02 251.75
  Q 1284.79 245.59 1263.34 251.06
  Q 1253.50 253.57 1244.85 258.52
  Q 1229.29 267.42 1218.58 282.32
  Q 1204.90 301.35 1202.75 323.00
  Q 1201.72 333.43 1202.12 349.41
  Q 1202.22 353.18 1202.10 357.59
  Q 1201.99 361.67 1202.02 365.75
  Q 1202.50 419.55 1202.07 473.34
  Q 1202.07 473.38 1202.23 475.02
  Q 1202.31 475.83 1202.16 476.92
  A 0.52 0.51 -86.5 0 0 1202.67 477.50
  L 1240.57 477.44
  A 0.69 0.68 90.0 0 0 1241.25 476.75
  Q 1241.25 410.38 1241.08 345.00
  Q 1241.05 334.74 1241.50 329.00
  Q 1242.59 314.99 1251.94 303.72
  Q 1263.04 290.34 1279.78 288.94
  Q 1285.66 288.45 1291.53 289.71
  Z
  M 969.26 449.98
  Q 1002.31 479.67 1046.01 479.64
  Q 1055.99 479.63 1065.90 477.78
  Q 1104.17 470.64 1130.52 442.38
  Q 1137.36 435.05 1142.79 426.63
  Q 1166.31 390.19 1159.75 346.50
  Q 1155.17 315.96 1135.51 291.59
  Q 1129.14 283.69 1121.67 277.21
  Q 1107.23 264.67 1089.69 257.56
  Q 1062.31 246.47 1032.96 249.43
  Q 1023.19 250.41 1013.42 253.43
  Q 966.55 267.90 943.68 311.07
  Q 938.87 320.15 935.84 329.44
  Q 928.43 352.16 930.75 375.00
  Q 935.26 419.43 969.26 449.98
  Z
  M 1423.06 271.86
  L 1423.00 256.00
  A 0.50 0.50 0.0 0 0 1422.50 255.50
  L 1382.62 255.50
  A 0.37 0.37 -90.0 0 0 1382.25 255.87
  L 1382.25 476.95
  A 0.55 0.55 -90.0 0 0 1382.80 477.50
  L 1422.43 477.44
  A 0.51 0.50 -0.0 0 0 1422.94 476.94
  Q 1423.05 411.85 1422.84 346.75
  Q 1422.81 337.48 1423.25 331.75
  Q 1423.91 323.12 1427.90 315.58
  Q 1431.59 308.64 1438.18 302.74
  Q 1453.84 288.72 1475.21 292.08
  Q 1482.93 293.29 1489.83 296.86
  Q 1497.32 300.75 1502.31 306.19
  Q 1512.46 317.25 1512.47 334.00
  Q 1512.50 405.00 1512.50 476.63
  A 0.87 0.87 89.9 0 0 1513.37 477.50
  L 1553.48 477.50
  A 0.52 0.52 0.0 0 0 1554.00 476.98
  Q 1554.00 411.13 1553.83 345.75
  Q 1553.81 335.87 1554.25 330.00
  Q 1555.16 317.92 1563.36 308.34
  Q 1574.20 295.68 1589.72 292.40
  Q 1598.81 290.48 1607.44 292.09
  Q 1616.44 293.77 1624.19 299.06
  Q 1640.20 310.01 1642.96 328.02
  Q 1643.50 331.52 1643.50 347.99
  Q 1643.50 412.27 1643.50 476.82
  A 0.68 0.67 90.0 0 0 1644.17 477.50
  L 1683.93 477.44
  A 0.51 0.50 -0.0 0 0 1684.44 476.94
  Q 1684.54 413.99 1684.50 351.04
  Q 1684.50 351.00 1684.57 342.45
  Q 1684.65 331.72 1683.75 324.50
  Q 1681.31 305.01 1670.37 288.37
  Q 1664.86 279.99 1657.52 273.09
  Q 1637.32 254.13 1609.48 250.90
  Q 1599.51 249.74 1589.52 250.82
  Q 1556.75 254.37 1533.69 279.73
  A 0.77 0.77 -45.2 0 1 1532.55 279.73
  Q 1509.22 254.13 1476.23 250.76
  Q 1465.54 249.67 1456.39 251.84
  Q 1437.06 256.44 1423.49 272.01
  Q 1423.06 272.50 1423.06 271.86
  Z
  M 212.60 429.00
  Q 196.13 412.09 190.56 407.44
  Q 174.97 394.42 155.48 393.63
  Q 145.31 393.22 135.75 396.19
  Q 120.19 401.02 109.06 413.81
  Q 93.01 432.27 94.75 457.00
  Q 95.68 470.17 102.64 481.81
  Q 105.54 486.64 112.00 493.24
  Q 149.94 531.98 188.55 570.04
  Q 200.88 582.19 203.01 583.86
  Q 211.10 590.20 220.98 593.28
  Q 230.00 596.10 238.57 596.26
  Q 247.53 596.44 256.44 593.44
  Q 271.70 588.30 282.07 576.58
  Q 296.09 560.76 297.04 540.49
  Q 297.52 530.34 294.73 520.71
  Q 291.21 508.58 283.06 499.69
  Q 272.74 488.42 226.70 443.20
  Q 220.37 436.97 212.60 429.00
  Z"
/>
<path fill="#47c5fb" d="
  M 199.53 90.27
  Q 214.59 75.85 236.00 74.50
  Q 246.61 73.83 255.98 76.80
  Q 267.21 80.35 276.14 87.48
  Q 278.44 89.31 290.51 101.38
  Q 324.63 135.50 358.74 169.62
  Q 371.00 181.88 372.68 183.95
  Q 383.58 197.40 385.25 214.75
  Q 387.12 234.18 377.16 250.46
  Q 371.89 259.08 364.09 265.48
  Q 352.10 275.32 336.68 278.02
  Q 326.64 279.77 316.82 277.95
  Q 305.93 275.94 296.49 270.15
  Q 291.44 267.05 284.00 259.68
  Q 245.13 221.15 206.50 182.40
  Q 194.51 170.37 192.64 167.99
  Q 183.87 156.85 181.81 142.94
  Q 177.19 111.68 199.53 90.27
  Z"
/>
<path fill="#00569e" d="
  M 168.76 187.61
  Q 282.33 300.78 395.62 414.23
  Q 407.66 426.29 409.48 428.64
  Q 416.88 438.19 419.30 450.13
  Q 421.29 459.94 419.70 470.03
  Q 417.15 486.22 405.81 498.56
  Q 395.17 510.15 380.31 514.34
  Q 370.69 517.06 360.51 516.16
  Q 344.57 514.75 332.06 505.06
  Q 329.30 502.92 317.62 491.25
  Q 208.78 382.40 99.94 273.56
  Q 93.53 267.16 89.10 262.56
  Q 82.65 255.85 79.68 250.42
  Q 74.38 240.72 73.22 229.74
  Q 72.15 219.68 74.77 209.92
  Q 79.00 194.12 91.73 182.74
  Q 105.58 170.35 124.26 169.10
  Q 141.49 167.93 155.46 176.35
  Q 160.54 179.42 168.76 187.61
  Z"
/>
<path fill="#000000" d="
  M 575.47 323.03
  Q 559.07 307.22 554.94 283.81
  Q 551.07 261.90 555.08 241.52
  Q 559.10 221.09 571.89 205.52
  Q 578.17 197.89 586.43 191.85
  Q 603.88 179.09 625.99 175.94
  Q 641.22 173.76 656.47 174.65
  Q 667.16 175.28 676.25 177.42
  Q 713.83 186.27 733.56 219.15
  Q 738.47 227.33 742.15 237.16
  Q 747.74 252.07 749.64 267.82
  A 0.60 0.60 -3.7 0 1 749.04 268.50
  L 709.49 268.50
  A 0.91 0.90 -3.2 0 1 708.59 267.70
  Q 707.54 258.43 704.45 249.93
  Q 695.78 226.09 671.43 218.98
  Q 659.37 215.46 643.75 216.00
  Q 630.33 216.47 620.80 219.65
  Q 600.34 226.47 595.19 247.19
  Q 592.76 256.97 593.41 267.16
  Q 594.16 278.69 598.45 286.20
  Q 603.91 295.76 614.81 300.19
  Q 621.55 302.93 629.65 304.53
  Q 633.58 305.31 644.92 306.50
  Q 660.74 308.16 673.75 310.50
  Q 688.48 313.15 702.84 319.15
  Q 713.20 323.48 720.40 328.63
  Q 747.94 348.30 750.25 385.00
  Q 751.11 398.68 748.30 410.86
  Q 746.17 420.08 741.29 429.53
  Q 728.17 454.91 702.78 468.03
  Q 694.50 472.32 684.16 475.24
  Q 650.28 484.81 616.10 476.26
  Q 605.69 473.65 597.26 469.72
  Q 565.06 454.70 551.31 420.48
  Q 545.12 405.07 543.12 387.97
  A 0.87 0.86 -3.5 0 1 543.98 387.00
  L 583.21 387.00
  A 0.76 0.75 85.5 0 1 583.95 387.64
  Q 585.46 397.82 589.37 406.95
  Q 592.54 414.36 597.73 420.26
  Q 602.54 425.73 609.82 429.95
  Q 626.26 439.48 646.25 439.25
  Q 655.99 439.14 663.76 438.05
  Q 676.34 436.29 686.97 430.11
  Q 696.48 424.58 701.99 417.14
  Q 710.52 405.61 710.00 389.75
  Q 709.73 381.42 706.96 374.65
  Q 703.18 365.43 694.51 360.48
  Q 689.14 357.41 683.25 355.51
  Q 675.08 352.87 666.69 351.19
  Q 661.67 350.19 649.73 349.00
  Q 637.94 347.84 626.25 345.94
  Q 616.55 344.36 609.94 342.29
  Q 601.94 339.78 594.34 336.13
  Q 583.84 331.10 575.47 323.03
  Z"
/>
<path fill="#000000" d="
  M 860.31 250.19
  L 893.18 250.31
  A 0.51 0.51 0.0 0 1 893.69 250.82
  L 893.75 290.74
  A 0.51 0.51 0.0 0 1 893.24 291.25
  L 860.27 291.25
  A 0.52 0.52 0.0 0 0 859.75 291.77
  L 859.75 476.94
  A 0.56 0.56 89.8 0 1 859.19 477.50
  L 821.64 477.50
  A 0.64 0.64 0.0 0 1 821.00 476.86
  L 821.06 291.94
  A 0.51 0.49 90.0 0 0 820.57 291.43
  L 787.55 291.19
  A 0.50 0.49 0.6 0 1 787.06 290.70
  L 787.00 250.80
  A 0.55 0.55 89.9 0 1 787.55 250.25
  L 820.55 250.25
  A 0.52 0.52 0.0 0 0 821.07 249.73
  L 821.06 175.95
  A 0.71 0.70 -0.0 0 1 821.77 175.25
  L 859.24 175.25
  A 0.51 0.51 0.0 0 1 859.75 175.76
  L 859.81 249.68
  A 0.51 0.50 90.0 0 0 860.31 250.19
  Z"
/>
<path fill="#000000" d="
  M 1838.06 366.23
  L 1770.56 477.06
  A 0.91 0.89 15.0 0 1 1769.78 477.50
  L 1723.85 477.44
  Q 1723.13 477.44 1723.50 476.82
  L 1814.56 327.16
  A 1.27 1.27 90.0 0 0 1814.56 325.84
  L 1723.59 176.07
  Q 1723.09 175.25 1724.05 175.25
  L 1769.45 175.25
  A 1.58 1.58 -15.6 0 1 1770.80 176.01
  L 1838.28 286.97
  A 0.34 0.34 0.0 0 0 1838.86 286.97
  L 1906.54 175.69
  A 0.91 0.89 15.0 0 1 1907.32 175.25
  L 1953.18 175.31
  Q 1953.98 175.31 1953.56 175.99
  L 1862.79 325.09
  A 1.76 1.76 90.0 0 0 1862.79 326.91
  L 1953.60 476.75
  Q 1954.05 477.50 1953.18 477.50
  L 1906.81 477.44
  A 0.89 0.89 74.3 0 1 1906.05 477.01
  L 1839.08 366.23
  A 0.60 0.59 -44.7 0 0 1838.06 366.23
  Z"
/>
<path fill="#000000" d="
  M 1279.78 288.94
  Q 1263.04 290.34 1251.94 303.72
  Q 1242.59 314.99 1241.50 329.00
  Q 1241.05 334.74 1241.08 345.00
  Q 1241.25 410.38 1241.25 476.75
  A 0.69 0.68 90.0 0 1 1240.57 477.44
  L 1202.67 477.50
  A 0.52 0.51 -86.5 0 1 1202.16 476.92
  Q 1202.31 475.83 1202.23 475.02
  Q 1202.07 473.38 1202.07 473.34
  Q 1202.50 419.55 1202.02 365.75
  Q 1201.99 361.67 1202.10 357.59
  Q 1202.22 353.18 1202.12 349.41
  Q 1201.72 333.43 1202.75 323.00
  Q 1204.90 301.35 1218.58 282.32
  Q 1229.29 267.42 1244.85 258.52
  Q 1253.50 253.57 1263.34 251.06
  Q 1284.79 245.59 1306.02 251.75
  Q 1314.90 254.33 1324.22 259.81
  Q 1332.80 264.86 1340.71 271.17
  A 0.35 0.35 49.0 0 1 1340.67 271.75
  L 1303.85 293.49
  A 1.14 1.14 -47.0 0 1 1302.77 293.53
  Q 1297.29 290.94 1291.53 289.71
  Q 1285.66 288.45 1279.78 288.94
  Z"
/>
<path fill="#000000" d="
  M 969.26 449.98
  Q 935.26 419.43 930.75 375.00
  Q 928.43 352.16 935.84 329.44
  Q 938.87 320.15 943.68 311.07
  Q 966.55 267.90 1013.42 253.43
  Q 1023.19 250.41 1032.96 249.43
  Q 1062.31 246.47 1089.69 257.56
  Q 1107.23 264.67 1121.67 277.21
  Q 1129.14 283.69 1135.51 291.59
  Q 1155.17 315.96 1159.75 346.50
  Q 1166.31 390.19 1142.79 426.63
  Q 1137.36 435.05 1130.52 442.38
  Q 1104.17 470.64 1065.90 477.78
  Q 1055.99 479.63 1046.01 479.64
  Q 1002.31 479.67 969.26 449.98
  Z
  M 996.40 420.60
  Q 1020.39 442.33 1053.04 439.13
  Q 1075.96 436.88 1092.31 423.06
  Q 1110.46 407.73 1117.21 384.73
  Q 1120.07 375.01 1120.04 365.02
  Q 1119.97 344.06 1109.52 326.08
  Q 1104.37 317.22 1097.37 310.27
  Q 1080.39 293.43 1055.49 290.08
  Q 1026.04 286.11 1003.06 302.56
  Q 979.36 319.53 972.75 347.66
  Q 970.44 357.48 970.91 367.50
  Q 972.38 398.85 996.40 420.60
  Z"
/>
<path fill="#000000" d="
  M 1423.06 271.86
  Q 1423.06 272.50 1423.49 272.01
  Q 1437.06 256.44 1456.39 251.84
  Q 1465.54 249.67 1476.23 250.76
  Q 1509.22 254.13 1532.55 279.73
  A 0.77 0.77 -45.0 0 0 1533.69 279.73
  Q 1556.75 254.37 1589.52 250.82
  Q 1599.51 249.74 1609.48 250.90
  Q 1637.32 254.13 1657.52 273.09
  Q 1664.86 279.99 1670.37 288.37
  Q 1681.31 305.01 1683.75 324.50
  Q 1684.65 331.72 1684.57 342.45
  Q 1684.50 351.00 1684.50 351.04
  Q 1684.54 413.99 1684.44 476.94
  A 0.51 0.50 -0.0 0 1 1683.93 477.44
  L 1644.17 477.50
  A 0.68 0.67 -90.0 0 1 1643.50 476.82
  Q 1643.50 412.27 1643.50 347.99
  Q 1643.50 331.52 1642.96 328.02
  Q 1640.20 310.01 1624.19 299.06
  Q 1616.44 293.77 1607.44 292.09
  Q 1598.81 290.48 1589.72 292.40
  Q 1574.20 295.68 1563.36 308.34
  Q 1555.16 317.92 1554.25 330.00
  Q 1553.81 335.87 1553.83 345.75
  Q 1554.00 411.13 1554.00 476.98
  A 0.52 0.52 0.0 0 1 1553.48 477.50
  L 1513.37 477.50
  A 0.87 0.87 89.9 0 1 1512.50 476.63
  Q 1512.50 405.00 1512.47 334.00
  Q 1512.46 317.25 1502.31 306.19
  Q 1497.32 300.75 1489.83 296.86
  Q 1482.93 293.29 1475.21 292.08
  Q 1453.84 288.72 1438.18 302.74
  Q 1431.59 308.64 1427.90 315.58
  Q 1423.91 323.12 1423.25 331.75
  Q 1422.81 337.48 1422.84 346.75
  Q 1423.05 411.85 1422.94 476.94
  A 0.51 0.50 -0.0 0 1 1422.43 477.44
  L 1382.80 477.50
  A 0.55 0.55 -89.9 0 1 1382.25 476.95
  L 1382.25 255.87
  A 0.37 0.37 90.0 0 1 1382.62 255.50
  L 1422.50 255.50
  A 0.50 0.50 0.0 0 1 1423.00 256.00
  L 1423.06 271.86
  Z"
/>
<path fill="#ffffff" d="
  M 996.40 420.60
  Q 972.38 398.85 970.91 367.50
  Q 970.44 357.48 972.75 347.66
  Q 979.36 319.53 1003.06 302.56
  Q 1026.04 286.11 1055.49 290.08
  Q 1080.39 293.43 1097.37 310.27
  Q 1104.37 317.22 1109.52 326.08
  Q 1119.97 344.06 1120.04 365.02
  Q 1120.07 375.01 1117.21 384.73
  Q 1110.46 407.73 1092.31 423.06
  Q 1075.96 436.88 1053.04 439.13
  Q 1020.39 442.33 996.40 420.60
  Z"
/>
<path fill="#47c5fb" d="
  M 226.70 443.20
  Q 272.74 488.42 283.06 499.69
  Q 291.21 508.58 294.73 520.71
  Q 297.52 530.34 297.04 540.49
  Q 296.09 560.76 282.07 576.58
  Q 271.70 588.30 256.44 593.44
  Q 247.53 596.44 238.57 596.26
  Q 230.00 596.10 220.98 593.28
  Q 211.10 590.20 203.01 583.86
  Q 200.88 582.19 188.55 570.04
  Q 149.94 531.98 112.00 493.24
  Q 105.54 486.64 102.64 481.81
  Q 95.68 470.17 94.75 457.00
  Q 93.01 432.27 109.06 413.81
  Q 120.19 401.02 135.75 396.19
  Q 145.31 393.22 155.48 393.63
  Q 174.97 394.42 190.56 407.44
  Q 196.13 412.09 212.60 429.00
  Q 220.37 436.97 226.70 443.20
  Z"
/>
</svg>
