<?xml version="1.0" encoding="UTF-8" standalone="no"?>
<!DOCTYPE svg PUBLIC "-//W3C//DTD SVG 1.1//EN" "http://www.w3.org/Graphics/SVG/1.1/DTD/svg11.dtd">
<svg xmlns="http://www.w3.org/2000/svg" version="1.1" viewBox="0 0 720 720" width="720" height="720">
<g stroke-width="2.00" fill="none" stroke-linecap="butt">
<path stroke="#ebece7" vector-effect="non-scaling-stroke" d="
  M 691.8173 22.2306
  A 1.40 0.87 12.4 0 0 690.6368 21.0803
  A 1.40 0.87 12.4 0 0 689.0827 21.6294
  A 1.40 0.87 12.4 0 0 690.2632 22.7797
  A 1.40 0.87 12.4 0 0 691.8173 22.2306"
/>
<path stroke="#ebece7" vector-effect="non-scaling-stroke" d="
  M 647.8784 126.3445
  A 1.78 0.54 2.4 0 0 646.1226 125.7305
  A 1.78 0.54 2.4 0 0 644.3216 126.1955
  A 1.78 0.54 2.4 0 0 646.0774 126.8095
  A 1.78 0.54 2.4 0 0 647.8784 126.3445"
/>
<path stroke="#adaeae" vector-effect="non-scaling-stroke" d="
  M 237.75 196.71
  Q 231.43 195.48 225.00 195.29"
/>
<path stroke="#98999a" vector-effect="non-scaling-stroke" d="
  M 225.00 195.29
  L 222.25 195.29"
/>
<path stroke="#808080" vector-effect="non-scaling-stroke" d="
  M 222.25 195.29
  L 220.54 195.25"
/>
<path stroke="#adaeae" vector-effect="non-scaling-stroke" d="
  M 220.54 195.25
  L 207.00 195.04"
/>
<path stroke="#808080" vector-effect="non-scaling-stroke" d="
  M 207.00 195.04
  L 200.75 195.04"
/>
<path stroke="#c3c6c3" vector-effect="non-scaling-stroke" d="
  M 200.75 195.04
  Q 198.07 194.75 195.50 195.46"
/>
<path stroke="#808080" vector-effect="non-scaling-stroke" d="
  M 195.50 195.46
  Q 173.29 196.74 151.25 199.79"
/>
<path stroke="#ebece7" vector-effect="non-scaling-stroke" d="
  M 151.25 199.79
  L 149.29 198.17
  A 1.15 0.84 53.9 0 0 148.45 197.90
  Q 143.11 198.85 140.50 200.00
  Q 137.46 201.34 135.00 201.21"
/>
<path stroke="#808080" vector-effect="non-scaling-stroke" d="
  M 135.00 201.21
  Q 106.20 204.70 77.48 208.85
  Q 74.66 209.26 72.38 210.66
  Q 65.91 214.63 61.31 218.81
  Q 53.10 226.28 50.60 236.59
  Q 49.47 241.22 49.25 256.50
  Q 48.90 281.03 51.07 305.49
  Q 53.26 330.11 62.25 354.50
  Q 74.82 388.61 105.31 407.19
  Q 124.44 418.84 147.50 423.04"
/>
<path stroke="#98999a" vector-effect="non-scaling-stroke" d="
  M 147.50 423.04
  Q 153.64 424.71 160.00 425.04"
/>
<path stroke="#98999a" vector-effect="non-scaling-stroke" d="
  M 160.00 425.04
  Q 160.43 425.38 161.00 425.29"
/>
<path stroke="#ebece7" vector-effect="non-scaling-stroke" d="
  M 161.00 425.29
  Q 162.44 426.32 164.25 425.96"
/>
<path stroke="#98999a" vector-effect="non-scaling-stroke" d="
  M 164.25 425.96
  L 169.25 426.21"
/>
<path stroke="#adaeae" vector-effect="non-scaling-stroke" d="
  M 169.25 426.21
  Q 174.04 427.53 179.00 426.96"
/>
<path stroke="#808080" vector-effect="non-scaling-stroke" d="
  M 179.00 426.96
  Q 192.18 427.46 204.25 426.00
  Q 236.83 422.05 260.44 400.63
  Q 267.79 393.97 274.12 386.45
  Q 280.50 378.87 285.42 370.20"
/>
<path stroke="#98999a" vector-effect="non-scaling-stroke" d="
  M 285.42 370.20
  Q 292.30 360.23 295.96 348.75"
/>
<path stroke="#808080" vector-effect="non-scaling-stroke" d="
  M 295.96 348.75
  Q 303.39 330.77 307.41 311.73
  Q 310.80 295.68 311.00 279.23
  A 2.09 2.09 -9.1 0 1 312.41 277.28
  Q 315.07 276.36 317.62 274.92
  Q 326.34 270.00 336.02 268.31
  Q 338.15 267.94 350.47 266.68
  Q 359.21 265.79 365.00 265.75
  Q 372.85 265.69 377.50 266.75
  Q 381.55 267.67 385.00 270.62
  Q 389.34 274.33 390.35 275.50
  Q 392.84 278.38 392.94 282.81
  Q 393.14 292.47 395.04 303.25"
/>
<path stroke="#adaeae" vector-effect="non-scaling-stroke" d="
  M 395.04 303.25
  Q 394.86 308.32 396.79 313.00"
/>
<path stroke="#adaeae" vector-effect="non-scaling-stroke" d="
  M 396.79 313.00
  Q 397.99 320.23 400.37 327.17
  Q 404.12 338.11 408.81 348.69
  Q 413.28 358.75 416.71 364.00"
/>
<path stroke="#808080" vector-effect="non-scaling-stroke" d="
  M 416.71 364.00
  Q 426.76 382.29 442.25 395.91
  Q 448.78 401.66 454.18 405.63
  Q 460.60 410.36 467.44 413.56
  Q 474.70 416.97 482.99 419.53
  Q 490.94 421.99 499.19 423.22
  Q 515.72 425.68 532.52 424.18
  Q 537.61 423.73 553.50 421.50
  Q 586.49 416.87 612.21 398.96
  Q 620.72 393.03 627.13 385.74
  Q 641.93 368.91 649.75 346.00
  Q 657.24 324.06 659.00 302.75
  Q 661.00 278.52 661.01 248.75
  Q 661.02 240.87 659.00 233.25
  Q 656.74 224.76 650.87 218.58
  Q 648.33 215.91 645.20 213.36
  Q 642.16 210.88 638.70 209.08
  Q 634.68 206.98 627.79 205.77
  Q 613.77 203.31 598.50 201.75
  Q 579.84 199.84 553.00 196.50
  Q 542.70 195.22 526.56 194.11
  Q 509.91 192.97 507.44 192.87
  Q 498.25 192.51 488.25 193.00
  Q 467.62 194.02 452.50 195.50
  Q 438.22 196.90 426.79 201.91
  Q 419.23 205.22 414.13 209.96
  Q 408.74 214.96 404.69 221.94
  Q 397.98 233.49 395.31 244.56
  Q 393.75 251.05 392.82 266.00
  Q 392.80 266.40 392.88 268.49
  Q 392.93 269.81 392.57 271.00
  Q 392.28 271.97 391.69 271.15
  Q 386.94 264.67 380.07 262.65
  Q 376.97 261.75 366.35 261.49
  Q 349.04 261.07 336.50 263.25
  Q 323.21 265.56 312.25 272.73
  A 0.85 0.85 -18.6 0 1 310.94 272.08
  Q 310.47 265.53 309.99 259.00
  Q 308.89 244.44 303.06 231.42
  Q 298.51 221.27 292.34 214.66
  Q 283.69 205.39 271.50 201.75
  Q 256.67 197.32 237.75 196.71"
/>
<path stroke="#2d2f2f" vector-effect="non-scaling-stroke" d="
  M 416.71 364.00
  Q 411.36 350.43 407.50 342.50
  Q 405.88 339.17 405.03 336.22
  Q 403.63 331.33 403.04 329.84
  Q 399.56 321.11 397.21 312.00"
/>
<path stroke="#2d2f2f" vector-effect="non-scaling-stroke" d="
  M 397.21 312.00
  Q 396.71 309.56 396.19 307.13
  Q 396.17 307.03 396.02 305.37
  Q 395.91 304.17 395.04 303.25"
/>
<path stroke="#18191a" vector-effect="non-scaling-stroke" d="
  M 295.96 348.75
  Q 294.98 349.05 294.31 349.75
  Q 293.96 350.12 293.59 351.41
  Q 293.33 352.30 292.69 353.44
  Q 288.70 360.46 285.42 370.20"
/>
<path stroke="#2d2f2f" vector-effect="non-scaling-stroke" d="
  M 179.00 426.96
  Q 175.03 425.35 170.75 425.96"
/>
<path stroke="#18191a" vector-effect="non-scaling-stroke" d="
  M 170.75 425.96
  Q 165.62 424.51 160.25 424.96"
/>
<path stroke="#18191a" vector-effect="non-scaling-stroke" d="
  M 160.25 424.96
  Q 158.56 423.84 156.63 423.68
  Q 153.55 423.44 152.92 423.32
  Q 150.25 422.81 147.50 423.04"
/>
<path stroke="#6b6d67" vector-effect="non-scaling-stroke" d="
  M 135.00 201.21
  Q 143.20 201.35 151.25 199.79"
/>
<path stroke="#444744" vector-effect="non-scaling-stroke" d="
  M 195.50 195.46
  Q 198.19 195.82 200.75 195.04"
/>
<path stroke="#2d2f2f" vector-effect="non-scaling-stroke" d="
  M 207.00 195.04
  Q 211.81 194.94 218.19 196.31
  Q 219.43 196.58 220.54 195.25"
/>
<path stroke="#18191a" vector-effect="non-scaling-stroke" d="
  M 222.25 195.29
  Q 223.51 195.97 224.96 195.75"
/>
<path stroke="#2d2f2f" vector-effect="non-scaling-stroke" d="
  M 224.96 195.75
  Q 231.28 197.14 237.75 196.71"
/>
<path stroke="#454849" vector-effect="non-scaling-stroke" d="
  M 170.75 425.96
  Q 169.93 425.87 169.25 426.21"
/>
<path stroke="#838681" vector-effect="non-scaling-stroke" d="
  M 164.25 425.96
  Q 162.74 425.08 161.00 425.29"
/>
<path stroke="#454849" vector-effect="non-scaling-stroke" d="
  M 225.00 195.29
  L 224.96 195.75"
/>
<path stroke="#303234" vector-effect="non-scaling-stroke" d="
  M 160.25 424.96
  L 160.00 425.04"
/>
<path stroke="#5a5d5d" vector-effect="non-scaling-stroke" d="
  M 397.21 312.00
  L 396.79 313.00"
/>
<path stroke="#adaeae" vector-effect="non-scaling-stroke" d="
  M 389.00 435.46
  Q 380.87 443.10 372.76 450.76
  Q 370.70 452.71 373.10 454.70
  A 0.71 0.66 46.3 0 0 373.93 454.75
  L 378.19 451.79"
/>
<path stroke="#c3c6c3" vector-effect="non-scaling-stroke" d="
  M 378.19 451.79
  Q 389.78 444.69 398.07 434.05
  A 1.03 1.03 28.7 0 0 397.60 432.44
  Q 392.34 430.57 389.00 435.46"
/>
<path stroke="#717572" vector-effect="non-scaling-stroke" d="
  M 378.19 451.79
  Q 379.41 449.14 382.96 447.71
  Q 384.83 446.96 383.79 445.24
  Q 382.48 443.04 385.08 443.34
  Q 386.54 443.51 386.91 443.34
  Q 388.04 442.84 387.70 440.70
  A 0.37 0.37 -1.1 0 1 388.12 440.27
  Q 389.99 440.53 391.14 439.10
  Q 391.44 438.73 391.91 438.54
  Q 392.85 438.17 391.98 437.47
  Q 391.59 437.16 391.33 436.76
  Q 390.54 435.53 389.00 435.46"
/>
<path stroke="#adaeae" vector-effect="non-scaling-stroke" d="
  M 339.9813 452.4414
  A 2.98 2.98 0.0 0 0 339.5920 448.2450
  L 321.3572 433.1062
  A 2.98 2.98 0.0 0 0 317.1609 433.4955
  L 317.0587 433.6186
  A 2.98 2.98 0.0 0 0 317.4480 437.8150
  L 335.6828 452.9538
  A 2.98 2.98 0.0 0 0 339.8791 452.5645
  L 339.9813 452.4414"
/>
<path stroke="#98999a" vector-effect="non-scaling-stroke" d="
  M 313.62 554.05
  Q 313.10 553.12 312.44 552.45
  Q 310.98 550.94 310.14 552.87
  Q 309.34 554.75 310.17 556.38
  Q 311.91 559.78 314.01 562.96
  Q 317.62 568.43 318.18 569.30
  Q 327.63 584.20 340.06 595.19
  Q 343.53 598.25 348.20 600.57
  Q 352.42 602.66 356.15 602.34
  Q 362.55 601.80 368.19 596.94
  Q 378.21 588.28 383.65 580.63
  Q 394.45 565.41 404.32 549.58
  Q 405.41 547.83 405.13 546.55
  Q 404.72 544.75 402.72 543.92
  A 0.64 0.60 -62.0 0 0 401.97 544.18
  Q 386.41 568.23 383.19 572.44
  Q 377.18 580.26 370.64 587.64
  Q 366.60 592.20 361.42 595.41
  Q 358.05 597.50 355.25 597.00
  Q 347.57 595.63 341.12 589.13
  Q 333.37 581.31 326.58 572.67
  Q 324.39 569.89 320.60 564.23
  Q 317.72 559.92 314.65 555.73
  Q 314.30 555.26 313.62 554.05"
/>
<path stroke="#000000" vector-effect="non-scaling-stroke" d="
  M 147.5994 319.5608
  A 2.00 1.01 36.9 0 0 146.6064 317.5523
  A 2.00 1.01 36.9 0 0 144.4006 317.1592
  A 2.00 1.01 36.9 0 0 145.3936 319.1677
  A 2.00 1.01 36.9 0 0 147.5994 319.5608"
/>
</g>
<path fill="#ffffff" d="
  M 0.00 0.00
  L 720.00 0.00
  L 720.00 720.00
  L 0.00 720.00
  L 0.00 0.00
  Z
  M 691.8173 22.2306
  A 1.40 0.87 12.4 0 0 690.6368 21.0803
  A 1.40 0.87 12.4 0 0 689.0827 21.6294
  A 1.40 0.87 12.4 0 0 690.2632 22.7797
  A 1.40 0.87 12.4 0 0 691.8173 22.2306
  Z
  M 647.8784 126.3445
  A 1.78 0.54 2.4 0 0 646.1226 125.7305
  A 1.78 0.54 2.4 0 0 644.3216 126.1955
  A 1.78 0.54 2.4 0 0 646.0774 126.8095
  A 1.78 0.54 2.4 0 0 647.8784 126.3445
  Z
  M 237.75 196.71
  Q 231.43 195.48 225.00 195.29
  L 222.25 195.29
  L 220.54 195.25
  L 207.00 195.04
  L 200.75 195.04
  Q 198.07 194.75 195.50 195.46
  Q 173.29 196.74 151.25 199.79
  L 149.29 198.17
  A 1.15 0.84 53.9 0 0 148.45 197.90
  Q 143.11 198.85 140.50 200.00
  Q 137.46 201.34 135.00 201.21
  Q 106.20 204.70 77.48 208.85
  Q 74.66 209.26 72.38 210.66
  Q 65.91 214.63 61.31 218.81
  Q 53.10 226.28 50.60 236.59
  Q 49.47 241.22 49.25 256.50
  Q 48.90 281.03 51.07 305.49
  Q 53.26 330.11 62.25 354.50
  Q 74.82 388.61 105.31 407.19
  Q 124.44 418.84 147.50 423.04
  Q 153.64 424.71 160.00 425.04
  Q 160.43 425.38 161.00 425.29
  Q 162.44 426.32 164.25 425.96
  L 169.25 426.21
  Q 174.04 427.53 179.00 426.96
  Q 192.18 427.46 204.25 426.00
  Q 236.83 422.05 260.44 400.63
  Q 267.79 393.97 274.12 386.45
  Q 280.50 378.87 285.42 370.20
  Q 292.30 360.23 295.96 348.75
  Q 303.39 330.77 307.41 311.73
  Q 310.80 295.68 311.00 279.23
  A 2.09 2.09 -9.1 0 1 312.41 277.28
  Q 315.07 276.36 317.62 274.92
  Q 326.34 270.00 336.02 268.31
  Q 338.15 267.94 350.47 266.68
  Q 359.21 265.79 365.00 265.75
  Q 372.85 265.69 377.50 266.75
  Q 381.55 267.67 385.00 270.62
  Q 389.34 274.33 390.35 275.50
  Q 392.84 278.38 392.94 282.81
  Q 393.14 292.47 395.04 303.25
  Q 394.86 308.32 396.79 313.00
  Q 397.99 320.23 400.37 327.17
  Q 404.12 338.11 408.81 348.69
  Q 413.28 358.75 416.71 364.00
  Q 426.76 382.29 442.25 395.91
  Q 448.78 401.66 454.18 405.63
  Q 460.60 410.36 467.44 413.56
  Q 474.70 416.97 482.99 419.53
  Q 490.94 421.99 499.19 423.22
  Q 515.72 425.68 532.52 424.18
  Q 537.61 423.73 553.50 421.50
  Q 586.49 416.87 612.21 398.96
  Q 620.72 393.03 627.13 385.74
  Q 641.93 368.91 649.75 346.00
  Q 657.24 324.06 659.00 302.75
  Q 661.00 278.52 661.01 248.75
  Q 661.02 240.87 659.00 233.25
  Q 656.74 224.76 650.87 218.58
  Q 648.33 215.91 645.20 213.36
  Q 642.16 210.88 638.70 209.08
  Q 634.68 206.98 627.79 205.77
  Q 613.77 203.31 598.50 201.75
  Q 579.84 199.84 553.00 196.50
  Q 542.70 195.22 526.56 194.11
  Q 509.91 192.97 507.44 192.87
  Q 498.25 192.51 488.25 193.00
  Q 467.62 194.02 452.50 195.50
  Q 438.22 196.90 426.79 201.91
  Q 419.23 205.22 414.13 209.96
  Q 408.74 214.96 404.69 221.94
  Q 397.98 233.49 395.31 244.56
  Q 393.75 251.05 392.82 266.00
  Q 392.80 266.40 392.88 268.49
  Q 392.93 269.81 392.57 271.00
  Q 392.28 271.97 391.69 271.15
  Q 386.94 264.67 380.07 262.65
  Q 376.97 261.75 366.35 261.49
  Q 349.04 261.07 336.50 263.25
  Q 323.21 265.56 312.25 272.73
  A 0.85 0.85 -18.6 0 1 310.94 272.08
  Q 310.47 265.53 309.99 259.00
  Q 308.89 244.44 303.06 231.42
  Q 298.51 221.27 292.34 214.66
  Q 283.69 205.39 271.50 201.75
  Q 256.67 197.32 237.75 196.71
  Z
  M 389.00 435.46
  Q 380.87 443.10 372.76 450.76
  Q 370.70 452.71 373.10 454.70
  A 0.71 0.66 46.3 0 0 373.93 454.75
  L 378.19 451.79
  Q 389.78 444.69 398.07 434.05
  A 1.03 1.03 28.7 0 0 397.60 432.44
  Q 392.34 430.57 389.00 435.46
  Z
  M 339.9813 452.4414
  A 2.98 2.98 0.0 0 0 339.5920 448.2450
  L 321.3572 433.1062
  A 2.98 2.98 0.0 0 0 317.1609 433.4955
  L 317.0587 433.6186
  A 2.98 2.98 0.0 0 0 317.4480 437.8150
  L 335.6828 452.9538
  A 2.98 2.98 0.0 0 0 339.8791 452.5645
  L 339.9813 452.4414
  Z
  M 313.62 554.05
  Q 313.10 553.12 312.44 552.45
  Q 310.98 550.94 310.14 552.87
  Q 309.34 554.75 310.17 556.38
  Q 311.91 559.78 314.01 562.96
  Q 317.62 568.43 318.18 569.30
  Q 327.63 584.20 340.06 595.19
  Q 343.53 598.25 348.20 600.57
  Q 352.42 602.66 356.15 602.34
  Q 362.55 601.80 368.19 596.94
  Q 378.21 588.28 383.65 580.63
  Q 394.45 565.41 404.32 549.58
  Q 405.41 547.83 405.13 546.55
  Q 404.72 544.75 402.72 543.92
  A 0.64 0.60 -62.0 0 0 401.97 544.18
  Q 386.41 568.23 383.19 572.44
  Q 377.18 580.26 370.64 587.64
  Q 366.60 592.20 361.42 595.41
  Q 358.05 597.50 355.25 597.00
  Q 347.57 595.63 341.12 589.13
  Q 333.37 581.31 326.58 572.67
  Q 324.39 569.89 320.60 564.23
  Q 317.72 559.92 314.65 555.73
  Q 314.30 555.26 313.62 554.05
  Z"
/>
<ellipse fill="#d6d9ce" cx="0.00" cy="0.00" transform="translate(690.45,21.93) rotate(12.4)" rx="1.40" ry="0.87"/>
<ellipse fill="#d6d9ce" cx="0.00" cy="0.00" transform="translate(646.10,126.27) rotate(2.4)" rx="1.78" ry="0.54"/>
<path fill="#000000" d="
  M 416.71 364.00
  Q 411.36 350.43 407.50 342.50
  Q 405.88 339.17 405.03 336.22
  Q 403.63 331.33 403.04 329.84
  Q 399.56 321.11 397.21 312.00
  Q 396.71 309.56 396.19 307.13
  Q 396.17 307.03 396.02 305.37
  Q 395.91 304.17 395.04 303.25
  Q 393.14 292.47 392.94 282.81
  Q 392.84 278.38 390.35 275.50
  Q 389.34 274.33 385.00 270.62
  Q 381.55 267.67 377.50 266.75
  Q 372.85 265.69 365.00 265.75
  Q 359.21 265.79 350.47 266.68
  Q 338.15 267.94 336.02 268.31
  Q 326.34 270.00 317.62 274.92
  Q 315.07 276.36 312.41 277.28
  A 2.09 2.09 -9.1 0 0 311.00 279.23
  Q 310.80 295.68 307.41 311.73
  Q 303.39 330.77 295.96 348.75
  Q 294.98 349.05 294.31 349.75
  Q 293.96 350.12 293.59 351.41
  Q 293.33 352.30 292.69 353.44
  Q 288.70 360.46 285.42 370.20
  Q 280.50 378.87 274.12 386.45
  Q 267.79 393.97 260.44 400.63
  Q 236.83 422.05 204.25 426.00
  Q 192.18 427.46 179.00 426.96
  Q 175.03 425.35 170.75 425.96
  Q 165.62 424.51 160.25 424.96
  Q 158.56 423.84 156.63 423.68
  Q 153.55 423.44 152.92 423.32
  Q 150.25 422.81 147.50 423.04
  Q 124.44 418.84 105.31 407.19
  Q 74.82 388.61 62.25 354.50
  Q 53.26 330.11 51.07 305.49
  Q 48.90 281.03 49.25 256.50
  Q 49.47 241.22 50.60 236.59
  Q 53.10 226.28 61.31 218.81
  Q 65.91 214.63 72.38 210.66
  Q 74.66 209.26 77.48 208.85
  Q 106.20 204.70 135.00 201.21
  Q 143.20 201.35 151.25 199.79
  Q 173.29 196.74 195.50 195.46
  Q 198.19 195.82 200.75 195.04
  L 207.00 195.04
  Q 211.81 194.94 218.19 196.31
  Q 219.43 196.58 220.54 195.25
  L 222.25 195.29
  Q 223.51 195.97 224.96 195.75
  Q 231.28 197.14 237.75 196.71
  Q 256.67 197.32 271.50 201.75
  Q 283.69 205.39 292.34 214.66
  Q 298.51 221.27 303.06 231.42
  Q 308.89 244.44 309.99 259.00
  Q 310.47 265.53 310.94 272.08
  A 0.85 0.85 -18.6 0 0 312.25 272.73
  Q 323.21 265.56 336.50 263.25
  Q 349.04 261.07 366.35 261.49
  Q 376.97 261.75 380.07 262.65
  Q 386.94 264.67 391.69 271.15
  Q 392.28 271.97 392.57 271.00
  Q 392.93 269.81 392.88 268.49
  Q 392.80 266.40 392.82 266.00
  Q 393.75 251.05 395.31 244.56
  Q 397.98 233.49 404.69 221.94
  Q 408.74 214.96 414.13 209.96
  Q 419.23 205.22 426.79 201.91
  Q 438.22 196.90 452.50 195.50
  Q 467.62 194.02 488.25 193.00
  Q 498.25 192.51 507.44 192.87
  Q 509.91 192.97 526.56 194.11
  Q 542.70 195.22 553.00 196.50
  Q 579.84 199.84 598.50 201.75
  Q 613.77 203.31 627.79 205.77
  Q 634.68 206.98 638.70 209.08
  Q 642.16 210.88 645.20 213.36
  Q 648.33 215.91 650.87 218.58
  Q 656.74 224.76 659.00 233.25
  Q 661.02 240.87 661.01 248.75
  Q 661.00 278.52 659.00 302.75
  Q 657.24 324.06 649.75 346.00
  Q 641.93 368.91 627.13 385.74
  Q 620.72 393.03 612.21 398.96
  Q 586.49 416.87 553.50 421.50
  Q 537.61 423.73 532.52 424.18
  Q 515.72 425.68 499.19 423.22
  Q 490.94 421.99 482.99 419.53
  Q 474.70 416.97 467.44 413.56
  Q 460.60 410.36 454.18 405.63
  Q 448.78 401.66 442.25 395.91
  Q 426.76 382.29 416.71 364.00
  Z
  M 147.5994 319.5608
  A 2.00 1.01 36.9 0 0 146.6064 317.5523
  A 2.00 1.01 36.9 0 0 144.4006 317.1592
  A 2.00 1.01 36.9 0 0 145.3936 319.1677
  A 2.00 1.01 36.9 0 0 147.5994 319.5608
  Z"
/>
<path fill="#5a5d5d" d="
  M 220.54 195.25
  Q 219.43 196.58 218.19 196.31
  Q 211.81 194.94 207.00 195.04
  L 220.54 195.25
  Z"
/>
<path fill="#878d87" d="
  M 200.75 195.04
  Q 198.19 195.82 195.50 195.46
  Q 198.07 194.75 200.75 195.04
  Z"
/>
<path fill="#303234" d="
  M 222.25 195.29
  L 225.00 195.29
  L 224.96 195.75
  Q 223.51 195.97 222.25 195.29
  Z"
/>
<path fill="#5a5d5d" d="
  M 225.00 195.29
  Q 231.43 195.48 237.75 196.71
  Q 231.28 197.14 224.96 195.75
  L 225.00 195.29
  Z"
/>
<path fill="#d6d9ce" d="
  M 151.25 199.79
  Q 143.20 201.35 135.00 201.21
  Q 137.46 201.34 140.50 200.00
  Q 143.11 198.85 148.45 197.90
  A 1.15 0.84 53.9 0 1 149.29 198.17
  L 151.25 199.79
  Z"
/>
<path fill="#5a5d5d" d="
  M 395.04 303.25
  Q 395.91 304.17 396.02 305.37
  Q 396.17 307.03 396.19 307.13
  Q 396.71 309.56 397.21 312.00
  L 396.79 313.00
  Q 394.86 308.32 395.04 303.25
  Z"
/>
<path fill="#5a5d5d" d="
  M 397.21 312.00
  Q 399.56 321.11 403.04 329.84
  Q 403.63 331.33 405.03 336.22
  Q 405.88 339.17 407.50 342.50
  Q 411.36 350.43 416.71 364.00
  Q 413.28 358.75 408.81 348.69
  Q 404.12 338.11 400.37 327.17
  Q 397.99 320.23 396.79 313.00
  L 397.21 312.00
  Z"
/>
<ellipse fill="#000000" cx="0.00" cy="0.00" transform="translate(146.00,318.36) rotate(36.9)" rx="2.00" ry="1.01"/>
<path fill="#303234" d="
  M 295.96 348.75
  Q 292.30 360.23 285.42 370.20
  Q 288.70 360.46 292.69 353.44
  Q 293.33 352.30 293.59 351.41
  Q 293.96 350.12 294.31 349.75
  Q 294.98 349.05 295.96 348.75
  Z"
/>
<path fill="#303234" d="
  M 147.50 423.04
  Q 150.25 422.81 152.92 423.32
  Q 153.55 423.44 156.63 423.68
  Q 158.56 423.84 160.25 424.96
  L 160.00 425.04
  Q 153.64 424.71 147.50 423.04
  Z"
/>
<path fill="#303234" d="
  M 160.00 425.04
  L 160.25 424.96
  Q 165.62 424.51 170.75 425.96
  Q 169.93 425.87 169.25 426.21
  L 164.25 425.96
  Q 162.74 425.08 161.00 425.29
  Q 160.43 425.38 160.00 425.04
  Z"
/>
<path fill="#d6d9ce" d="
  M 161.00 425.29
  Q 162.74 425.08 164.25 425.96
  Q 162.44 426.32 161.00 425.29
  Z"
/>
<path fill="#5a5d5d" d="
  M 179.00 426.96
  Q 174.04 427.53 169.25 426.21
  Q 169.93 425.87 170.75 425.96
  Q 175.03 425.35 179.00 426.96
  Z"
/>
<path fill="#878d87" d="
  M 378.19 451.79
  Q 379.41 449.14 382.96 447.71
  Q 384.83 446.96 383.79 445.24
  Q 382.48 443.04 385.08 443.34
  Q 386.54 443.51 386.91 443.34
  Q 388.04 442.84 387.70 440.70
  A 0.37 0.37 -1.1 0 1 388.12 440.27
  Q 389.99 440.53 391.14 439.10
  Q 391.44 438.73 391.91 438.54
  Q 392.85 438.17 391.98 437.47
  Q 391.59 437.16 391.33 436.76
  Q 390.54 435.53 389.00 435.46
  Q 392.34 430.57 397.60 432.44
  A 1.03 1.03 28.7 0 1 398.07 434.05
  Q 389.78 444.69 378.19 451.79
  Z"
/>
<rect fill="#5a5d5d" x="-14.83" y="-3.06" transform="translate(328.52,443.03) rotate(39.7)" width="29.66" height="6.12" rx="2.98"/>
<path fill="#5a5d5d" d="
  M 389.00 435.46
  Q 390.54 435.53 391.33 436.76
  Q 391.59 437.16 391.98 437.47
  Q 392.85 438.17 391.91 438.54
  Q 391.44 438.73 391.14 439.10
  Q 389.99 440.53 388.12 440.27
  A 0.37 0.37 -1.1 0 0 387.70 440.70
  Q 388.04 442.84 386.91 443.34
  Q 386.54 443.51 385.08 443.34
  Q 382.48 443.04 383.79 445.24
  Q 384.83 446.96 382.96 447.71
  Q 379.41 449.14 378.19 451.79
  L 373.93 454.75
  A 0.71 0.66 46.3 0 1 373.10 454.70
  Q 370.70 452.71 372.76 450.76
  Q 380.87 443.10 389.00 435.46
  Z"
/>
<path fill="#303234" d="
  M 314.65 555.73
  Q 317.72 559.92 320.60 564.23
  Q 324.39 569.89 326.58 572.67
  Q 333.37 581.31 341.12 589.13
  Q 347.57 595.63 355.25 597.00
  Q 358.05 597.50 361.42 595.41
  Q 366.60 592.20 370.64 587.64
  Q 377.18 580.26 383.19 572.44
  Q 386.41 568.23 401.97 544.18
  A 0.64 0.60 -62.0 0 1 402.72 543.92
  Q 404.72 544.75 405.13 546.55
  Q 405.41 547.83 404.32 549.58
  Q 394.45 565.41 383.65 580.63
  Q 378.21 588.28 368.19 596.94
  Q 362.55 601.80 356.15 602.34
  Q 352.42 602.66 348.20 600.57
  Q 343.53 598.25 340.06 595.19
  Q 327.63 584.20 318.18 569.30
  Q 317.62 568.43 314.01 562.96
  Q 311.91 559.78 310.17 556.38
  Q 309.34 554.75 310.14 552.87
  Q 310.98 550.94 312.44 552.45
  Q 313.10 553.12 313.62 554.05
  Q 314.30 555.26 314.65 555.73
  Z"
/>
</svg>
