<?xml version="1.0" encoding="UTF-8" standalone="no"?>
<!DOCTYPE svg PUBLIC "-//W3C//DTD SVG 1.1//EN" "http://www.w3.org/Graphics/SVG/1.1/DTD/svg11.dtd">
<svg xmlns="http://www.w3.org/2000/svg" version="1.1" viewBox="0 0 1080 1080" width="1080" height="1080">
<g stroke-width="2.00" fill="none" stroke-linecap="butt">
<path stroke="#ffdeac" vector-effect="non-scaling-stroke" d="
  M 262.75 476.29
  Q 258.34 482.03 257.04 488.80
  Q 255.74 495.55 258.14 502.02
  Q 261.20 510.24 268.81 515.42
  Q 270.96 516.89 271.61 517.12
  Q 273.78 517.92 275.01 515.23
  Q 275.93 513.21 274.07 511.99
  Q 269.46 508.96 266.08 504.44
  Q 263.56 501.09 262.81 497.15
  Q 262.13 493.57 263.16 489.39
  Q 265.08 481.58 271.50 476.21"
/>
<path stroke="#ffdeac" vector-effect="non-scaling-stroke" d="
  M 456.21 575.75
  Q 462.85 559.11 465.06 554.31
  Q 472.95 537.24 480.46 520.00"
/>
<path stroke="#ffdeac" vector-effect="non-scaling-stroke" d="
  M 425.25 523.21
  Q 410.52 543.96 398.36 566.53"
/>
<path stroke="#ffdeac" vector-effect="non-scaling-stroke" d="
  M 383.34 559.30
  Q 392.81 533.77 398.27 507.34"
/>
<path stroke="#ffdeac" vector-effect="non-scaling-stroke" d="
  M 376.71 473.50
  Q 370.15 477.52 364.53 482.78
  Q 349.28 497.06 336.75 513.79"
/>
<path stroke="#ffdeac" vector-effect="non-scaling-stroke" d="
  M 403.79 512.25
  Q 397.81 537.89 389.00 562.71"
/>
<path stroke="#ffdeac" vector-effect="non-scaling-stroke" d="
  M 392.00 563.79
  Q 404.96 541.87 419.25 520.79"
/>
<path stroke="#ffdeac" vector-effect="non-scaling-stroke" d="
  M 463.79 575.00
  Q 463.79 573.87 464.56 572.06
  Q 479.23 537.64 489.50 515.21"
/>
<path stroke="#ffdeac" vector-effect="non-scaling-stroke" d="
  M 375.00 467.21
  Q 360.84 476.19 348.44 490.19
  Q 338.25 501.68 333.54 507.50"
/>
<path stroke="#ffdeac" vector-effect="non-scaling-stroke" d="
  M 676.08 570.40
  L 701.71 522.25"
/>
<path stroke="#ffdeac" vector-effect="non-scaling-stroke" d="
  M 694.51 522.41
  L 668.96 570.25"
/>
</g>
<path fill="#ffbd59" d="
  M 262.75 476.29
  Q 258.34 482.03 257.04 488.80
  Q 255.74 495.55 258.14 502.02
  Q 261.20 510.24 268.81 515.42
  Q 270.96 516.89 271.61 517.12
  Q 273.78 517.92 275.01 515.23
  Q 275.93 513.21 274.07 511.99
  Q 269.46 508.96 266.08 504.44
  Q 263.56 501.09 262.81 497.15
  Q 262.13 493.57 263.16 489.39
  Q 265.08 481.58 271.50 476.21
  L 296.30 476.25
  A 0.51 0.51 -84.8 0 1 296.80 476.85
  Q 293.98 491.86 288.10 505.29
  Q 271.12 544.09 234.44 562.94
  Q 211.31 574.82 183.50 575.77
  Q 142.40 577.18 108.40 554.61
  Q 99.32 548.59 91.63 540.87
  Q 62.69 511.81 56.39 471.07
  Q 48.62 420.83 74.90 379.56
  Q 80.37 370.97 87.06 363.71
  Q 113.80 334.68 153.19 326.69
  Q 193.48 318.51 230.22 334.91
  Q 239.42 339.02 247.55 344.80
  Q 285.38 371.70 295.65 419.19
  A 0.67 0.67 84.0 0 1 295.00 420.00
  L 245.02 420.00
  A 1.83 1.82 -10.5 0 1 243.32 418.84
  Q 232.58 391.44 207.58 380.05
  Q 198.54 375.92 188.43 374.62
  Q 165.72 371.68 145.56 382.56
  Q 129.29 391.35 119.50 407.24
  Q 114.39 415.53 111.43 425.46
  Q 105.14 446.56 110.00 468.80
  Q 117.53 503.27 147.81 518.69
  Q 163.90 526.88 183.99 525.57
  Q 210.78 523.83 228.19 505.21
  Q 233.68 499.34 237.70 491.96
  Q 241.56 484.86 244.13 476.84
  A 0.85 0.84 -80.9 0 1 244.93 476.25
  L 262.75 476.29
  Z"
/>
<path fill="#ffbd59" d="
  M 463.79 575.00
  Q 463.79 573.87 464.56 572.06
  Q 479.23 537.64 489.50 515.21
  Q 498.89 509.20 504.81 502.31
  Q 526.78 476.75 523.50 442.00
  Q 521.58 421.61 510.97 405.54
  Q 505.51 397.27 497.68 390.69
  Q 475.47 372.01 445.00 373.50
  Q 416.59 374.89 396.69 393.55
  Q 389.44 400.35 384.23 409.10
  Q 368.55 435.44 375.00 467.21
  Q 360.84 476.19 348.44 490.19
  Q 338.25 501.68 333.54 507.50
  Q 322.27 484.96 320.45 459.75
  Q 317.00 412.20 344.02 375.06
  Q 349.95 366.90 357.13 359.99
  Q 384.06 334.08 421.72 326.84
  Q 452.03 321.02 481.25 327.75
  Q 502.85 332.73 521.64 344.93
  Q 530.04 350.39 537.39 357.20
  Q 567.90 385.44 575.06 427.94
  Q 579.59 454.79 573.34 480.71
  Q 562.71 524.72 527.44 550.94
  Q 499.74 571.52 463.79 575.00
  Z"
/>
<path fill="#ffbd59" d="
  M 676.08 570.40
  L 701.71 522.25
  Q 709.38 522.41 716.99 521.46
  Q 751.30 517.16 767.67 489.35
  Q 772.60 480.95 775.25 470.93
  Q 781.36 447.75 774.19 424.92
  Q 771.06 414.97 765.67 406.92
  Q 751.90 386.37 727.73 380.13
  Q 720.41 378.24 708.08 377.90
  Q 689.42 377.39 670.75 377.98
  A 0.52 0.51 -1.2 0 0 670.25 378.49
  L 670.25 521.75
  A 0.50 0.50 0.0 0 0 670.75 522.25
  L 694.51 522.41
  L 668.96 570.25
  L 619.12 570.49
  A 0.88 0.86 89.7 0 1 618.25 569.61
  L 618.31 329.95
  A 0.71 0.70 -0.0 0 1 619.02 329.25
  Q 665.00 329.25 710.00 329.27
  Q 743.64 329.28 772.36 345.15
  Q 781.21 350.04 788.88 356.38
  Q 822.80 384.39 829.75 429.75
  Q 833.33 453.10 829.01 475.51
  Q 827.13 485.26 823.55 494.72
  Q 807.39 537.39 766.55 557.58
  Q 757.74 561.94 747.92 564.76
  Q 727.86 570.52 706.75 570.55
  Q 691.63 570.58 676.08 570.40
  Z"
/>
<path fill="#ffbd59" d="
  M 926.06 522.19
  L 1021.59 522.31
  A 0.63 0.62 -90.0 0 1 1022.21 522.94
  L 1022.26 569.98
  A 0.52 0.50 -90.0 0 1 1021.76 570.50
  L 874.41 570.50
  A 0.91 0.91 0.0 0 1 873.50 569.59
  L 873.50 330.12
  A 0.87 0.87 0.0 0 1 874.37 329.25
  L 1017.69 329.25
  A 0.56 0.56 -89.8 0 1 1018.25 329.81
  L 1018.25 376.69
  A 0.56 0.56 89.8 0 1 1017.69 377.25
  L 926.25 377.25
  A 0.70 0.69 -90.0 0 0 925.56 377.95
  L 925.57 424.68
  A 0.51 0.49 90.0 0 0 926.06 425.19
  L 1008.68 425.25
  A 0.82 0.82 -0.0 0 1 1009.50 426.07
  L 1009.50 471.84
  A 0.66 0.66 -89.9 0 1 1008.84 472.50
  L 926.17 472.50
  A 0.62 0.61 90.0 0 0 925.56 473.12
  L 925.57 521.69
  A 0.50 0.49 -90.0 0 0 926.06 522.19
  Z"
/>
<path fill="#ffffff" d="
  M 701.71 522.25
  L 676.08 570.40
  Q 660.14 599.65 644.99 629.34
  Q 637.59 643.85 636.75 645.85
  Q 633.17 654.43 631.74 663.75
  Q 629.88 675.96 638.06 681.09
  Q 643.50 684.50 651.94 684.26
  Q 659.32 684.05 666.22 680.74
  Q 673.82 677.09 680.57 672.02
  Q 700.86 656.77 717.10 636.13
  Q 717.96 635.03 718.54 633.76
  Q 727.53 613.97 738.15 595.42
  Q 739.20 593.59 740.94 593.55
  Q 742.64 593.52 743.54 594.86
  Q 744.59 596.42 743.25 598.75
  Q 732.74 616.97 724.20 636.19
  Q 722.09 640.92 720.34 645.79
  Q 717.92 652.54 717.05 655.60
  Q 714.84 663.34 714.85 671.50
  Q 714.86 681.15 724.31 682.44
  Q 727.45 682.87 730.56 682.31
  Q 739.91 680.64 747.67 675.15
  Q 757.26 668.37 764.97 659.48
  Q 782.53 639.22 796.21 616.15
  Q 802.49 605.58 808.72 594.99
  Q 809.84 593.10 810.82 592.51
  Q 812.82 591.29 814.53 593.46
  A 2.32 2.32 -50.8 0 1 814.78 595.92
  Q 809.73 606.14 804.92 615.12
  Q 782.19 657.57 763.36 702.11
  Q 763.10 702.73 763.68 702.39
  Q 789.59 687.16 813.84 669.06
  Q 834.34 653.76 852.11 635.36
  Q 854.77 632.60 856.93 635.50
  Q 858.36 637.44 856.70 639.18
  Q 846.55 649.78 835.55 659.45
  Q 828.59 665.56 820.03 672.05
  Q 791.09 694.01 759.46 711.73
  A 3.10 3.06 88.2 0 0 758.19 713.10
  Q 748.86 733.24 739.66 752.11
  Q 726.36 779.41 706.94 799.94
  Q 699.96 807.31 689.19 814.19
  Q 681.31 819.21 671.55 820.80
  Q 663.30 822.14 657.08 820.12
  Q 652.16 818.53 648.15 815.20
  Q 644.29 812.01 641.91 807.42
  Q 637.31 798.57 639.25 788.25
  Q 640.86 779.67 646.12 772.09
  Q 655.37 758.76 668.31 750.56
  Q 676.92 745.11 688.65 740.01
  Q 721.71 725.64 753.25 708.18
  A 1.52 1.50 88.3 0 0 753.90 707.48
  Q 766.49 680.46 778.88 653.35
  Q 779.23 652.57 778.62 652.85
  Q 778.45 652.92 778.32 653.09
  Q 773.22 659.56 767.71 665.70
  Q 757.76 676.79 744.70 683.96
  Q 737.05 688.16 728.32 688.70
  Q 715.39 689.50 710.78 680.12
  Q 708.25 674.98 708.81 666.56
  Q 709.28 659.56 711.39 652.85
  Q 711.58 652.23 711.15 652.71
  Q 699.38 665.59 685.80 676.05
  Q 676.17 683.46 664.85 687.91
  Q 651.22 693.27 638.56 688.19
  Q 630.16 684.82 627.01 676.78
  Q 625.05 671.78 625.39 665.01
  Q 625.69 658.99 627.69 653.17
  Q 628.26 651.54 627.07 652.79
  Q 608.71 672.21 585.05 683.80
  Q 563.16 694.51 540.58 688.98
  Q 529.50 686.26 522.85 680.27
  Q 510.62 669.25 512.48 650.01
  Q 512.65 648.28 511.53 649.60
  Q 499.16 664.18 484.44 676.44
  Q 478.75 681.17 470.07 685.33
  Q 457.99 691.10 450.20 684.02
  Q 445.70 679.93 443.45 671.73
  Q 441.61 665.01 441.50 657.50
  Q 441.26 640.41 443.75 625.41
  Q 447.96 600.07 456.21 575.75
  Q 462.85 559.11 465.06 554.31
  Q 472.95 537.24 480.46 520.00
  Q 487.17 506.06 491.40 491.18
  Q 492.97 485.64 493.25 480.75
  Q 493.66 473.57 488.53 471.13
  Q 485.13 469.51 479.83 470.36
  Q 475.24 471.09 471.31 473.31
  Q 467.25 475.61 463.10 478.89
  Q 459.84 481.46 455.78 485.53
  Q 438.59 502.77 425.25 523.21
  Q 410.52 543.96 398.36 566.53
  Q 398.28 566.63 398.11 566.71
  A 1.09 0.62 -9.6 0 0 397.66 567.08
  Q 365.10 624.37 336.84 683.89
  Q 335.03 687.70 332.06 685.44
  Q 329.74 683.67 331.22 681.06
  Q 332.14 679.43 332.16 679.38
  Q 348.85 644.23 364.22 608.49
  Q 374.65 584.22 383.34 559.30
  Q 392.81 533.77 398.27 507.34
  Q 400.12 497.91 400.30 488.50
  Q 400.41 482.40 398.75 477.25
  Q 397.33 472.85 393.66 470.82
  Q 390.55 469.11 386.13 469.85
  Q 381.11 470.68 376.71 473.50
  Q 370.15 477.52 364.53 482.78
  Q 349.28 497.06 336.75 513.79
  Q 317.04 539.59 302.44 563.19
  Q 267.66 619.37 237.31 678.06
  Q 235.56 681.44 234.06 684.94
  Q 233.17 687.03 232.30 687.60
  Q 230.80 688.59 228.69 687.56
  Q 226.15 686.33 227.94 682.94
  Q 230.61 677.86 232.94 672.62
  Q 252.60 628.47 272.83 584.57
  Q 283.12 562.25 292.77 539.65
  Q 300.47 521.62 304.00 504.25
  Q 305.15 498.59 304.60 491.26
  Q 303.93 482.24 297.79 475.71
  Q 295.28 473.04 292.05 471.60
  Q 288.97 470.24 285.27 470.33
  Q 277.43 470.53 271.50 476.21
  Q 265.08 481.58 263.16 489.39
  Q 262.13 493.57 262.81 497.15
  Q 263.56 501.09 266.08 504.44
  Q 269.46 508.96 274.07 511.99
  Q 275.93 513.21 275.01 515.23
  Q 273.78 517.92 271.61 517.12
  Q 270.96 516.89 268.81 515.42
  Q 261.20 510.24 258.14 502.02
  Q 255.74 495.55 257.04 488.80
  Q 258.34 482.03 262.75 476.29
  Q 270.01 467.21 280.50 464.75
  Q 284.42 463.83 288.77 464.54
  Q 292.81 465.20 296.43 467.28
  Q 303.60 471.39 307.29 479.20
  Q 309.03 482.88 309.99 486.80
  Q 310.88 490.42 310.87 494.77
  Q 310.85 502.99 308.73 511.00
  Q 304.30 527.77 297.47 543.74
  Q 284.41 574.27 270.39 604.39
  Q 270.31 604.58 270.30 604.77
  Q 270.28 605.74 270.91 604.59
  Q 298.63 553.72 333.54 507.50
  Q 338.25 501.68 348.44 490.19
  Q 360.84 476.19 375.00 467.21
  Q 378.79 465.78 382.64 464.55
  Q 395.59 460.39 402.44 470.81
  Q 406.09 476.38 406.19 485.00
  Q 406.34 498.74 403.79 512.25
  Q 397.81 537.89 389.00 562.71
  L 381.47 582.97
  Q 381.25 583.55 381.55 583.00
  L 392.00 563.79
  Q 404.96 541.87 419.25 520.79
  Q 430.65 504.02 444.08 488.83
  Q 451.97 479.92 461.29 472.54
  Q 467.56 467.57 475.10 464.93
  Q 482.25 462.43 488.91 464.63
  Q 493.79 466.25 496.43 469.93
  Q 499.25 473.87 499.29 479.25
  Q 499.32 483.91 498.28 488.45
  Q 495.10 502.22 489.50 515.21
  Q 479.23 537.64 464.56 572.06
  Q 463.79 573.87 463.79 575.00
  Q 451.49 605.50 448.12 638.24
  Q 447.08 648.39 447.75 660.00
  Q 448.07 665.58 449.43 670.57
  Q 451.15 676.88 454.16 679.49
  Q 458.55 683.32 465.50 680.75
  Q 473.63 677.74 480.85 671.58
  Q 499.50 655.69 515.39 635.84
  Q 516.11 634.94 516.57 633.88
  Q 519.72 626.62 524.21 620.01
  Q 529.31 612.50 534.04 607.67
  Q 542.48 599.02 554.00 595.00
  Q 566.42 590.67 577.00 598.54
  L 578.96 600.50
  Q 584.87 608.15 582.83 617.82
  Q 581.05 626.25 575.98 633.21
  Q 571.56 639.28 566.22 644.48
  Q 561.90 648.69 555.01 654.23
  Q 541.47 665.12 525.38 673.06
  A 0.51 0.51 -35.3 0 0 525.24 673.87
  Q 527.17 675.87 529.48 677.59
  Q 531.62 679.18 534.37 680.38
  Q 545.87 685.42 558.10 684.85
  Q 566.81 684.45 577.49 680.37
  Q 594.42 673.90 608.46 661.99
  Q 620.52 651.76 632.56 638.31
  Q 635.03 635.56 636.27 633.17
  Q 652.64 601.72 668.96 570.25
  L 694.51 522.41
  L 727.56 461.70
  Q 728.78 459.45 731.23 460.23
  Q 733.75 461.04 733.25 463.56
  Q 733.05 464.55 731.85 466.68
  Q 716.35 494.23 701.71 522.25
  Z
  M 568.85 600.57
  Q 564.48 598.79 559.25 600.00
  Q 547.80 602.65 539.71 610.71
  Q 527.75 622.61 521.56 638.31
  Q 517.07 649.71 518.49 660.95
  Q 518.73 662.88 519.30 664.48
  Q 519.96 666.30 520.82 667.78
  A 0.76 0.75 61.2 0 0 521.80 668.07
  Q 546.68 655.63 565.43 636.68
  Q 573.59 628.43 576.69 618.19
  Q 578.64 611.72 575.67 606.57
  Q 573.25 602.36 568.85 600.57
  Z
  M 651.69 809.81
  Q 660.57 817.16 671.74 814.71
  Q 683.67 812.09 693.17 804.44
  Q 700.85 798.26 707.24 790.74
  Q 722.26 773.08 732.68 752.38
  Q 741.28 735.30 749.29 717.95
  Q 749.50 717.50 749.07 717.73
  Q 717.48 734.15 684.87 748.44
  Q 675.92 752.36 665.81 759.81
  Q 652.18 769.86 646.54 784.77
  Q 642.51 795.43 647.87 805.41
  Q 649.08 807.65 651.69 809.81
  Z"
/>
<path fill="#ffbd59" d="
  M 376.71 473.50
  Q 382.62 493.41 398.27 507.34
  Q 392.81 533.77 383.34 559.30
  Q 382.39 559.10 380.69 558.06
  Q 352.84 541.10 336.75 513.79
  Q 349.28 497.06 364.53 482.78
  Q 370.15 477.52 376.71 473.50
  Z"
/>
<path fill="#ffbd59" d="
  M 403.79 512.25
  Q 411.11 517.27 419.25 520.79
  Q 404.96 541.87 392.00 563.79
  L 389.00 562.71
  Q 397.81 537.89 403.79 512.25
  Z"
/>
<path fill="#ffbd59" d="
  M 480.46 520.00
  Q 472.95 537.24 465.06 554.31
  Q 462.85 559.11 456.21 575.75
  Q 426.35 577.27 398.36 566.53
  Q 410.52 543.96 425.25 523.21
  Q 453.51 531.38 480.46 520.00
  Z"
/>
</svg>
